<?xml version="1.0" encoding="UTF-8"?>
<svg id="Layer_1" data-name="Layer 1" xmlns="http://www.w3.org/2000/svg" xmlns:xlink="http://www.w3.org/1999/xlink" viewBox="0 0 1093.84 1288.41">
  <defs>
    <style>
      .cls-1 {
        fill: #00ff00;
      }

      .cls-2 {
        fill: url(#linear-gradient-4);
      }

      .cls-3 {
        fill: url(#linear-gradient-3);
      }

      .cls-4 {
        fill: url(#linear-gradient-2);
      }

      .cls-5 {
        fill: #00cc00;
      }

      .cls-6 {
        fill: url(#linear-gradient);
      }

      .cls-7 {
        fill: #00aa00;
      }

      .cls-8 {
        fill: #ffcb99;
      }

      .cls-9 {
        fill: #c86567;
      }

      .cls-10 {
        fill: #fff;
      }

      .cls-11 {
        fill: #bed0f1;
      }

      .cls-12 {
        fill: #4a89f4;
      }

      .cls-13 {
        fill: #bdd0f1;
      }

      .cls-14 {
        fill: #fca17c;
      }
    </style>
    <linearGradient id="linear-gradient" x1="519.21" y1="334.07" x2="519.21" y2="319.38" gradientUnits="userSpaceOnUse">
      <stop offset="0" stop-color="#00ff00"/>
      <stop offset=".97" stop-color="#00aa00" stop-opacity="0"/>
      <stop offset="1" stop-color="#00aa00" stop-opacity=".2"/>
    </linearGradient>
    <linearGradient id="linear-gradient-2" x1="519.21" y1="332.07" x2="519.21" y2="320.57" gradientUnits="userSpaceOnUse">
      <stop offset="0" stop-color="#00ff00"/>
      <stop offset="1" stop-color="#000" stop-opacity=".2"/>
    </linearGradient>
    <linearGradient id="linear-gradient-3" x1="437.43" y1="336.45" x2="437.43" y2="321.76" xlink:href="#linear-gradient"/>
    <linearGradient id="linear-gradient-4" x1="437.43" y1="334.45" x2="437.43" y2="322.95" xlink:href="#linear-gradient-2"/>
  </defs>
  <g id="Mascot_Logo" data-name="Mascot Logo">
    <path class="cls-7" d="M518.14,1241.2c-52.94-.87-115.24-3.61-175.88-17.38l-.27-.06-.21-.06c-5.71-1.48-11.54-2.92-17.19-4.31-15.03-3.7-30.58-7.53-45.83-12.71l-.45-.15-.47.03c-.56.04-1.1.06-1.63.06-6.2,0-11.67-2.59-15.42-7.29l-.48-.61-.42-.65c-1.55-2.39-3.54-4.91-5.64-7.58-5.63-7.14-12.65-16.03-15.03-27.99l-.4-2,.12-2.03c.56-9.49,5.24-16.47,8.65-21.56.82-1.22,1.94-2.9,2.64-4.15l.42-.77-.17-.86c-.19-.93-.44-1.99-.68-3.02-1.11-4.72-2.49-10.59-1.57-17.45l.28-2.04-1.98-.57c-3.81-1.1-7.31-2.84-10.42-5.17l-.2-.15-.22-.1c-14.28-6.71-30.07-10.22-46.79-13.94-8.5-1.89-17.3-3.85-26-6.28l-.25-.07-.18-.06c-7.1-2.2-14.44-3.83-22.21-5.57-6.58-1.46-13.34-2.97-20.11-4.87l-.24-.07c-17.27-5.12-24.96-20.45-30.05-30.6l-.33-.66-.64-.36c-.5-.28-1.02-.56-1.48-.81-5.18-2.8-12.21-6.59-16.69-14.87l-.06-.11c-4.65-7.6-4.85-15.55-4.98-20.81-.05-1.96-.1-3.66-.28-4.63l-.07-.4-.43-.75-.36-.84c-1.79-4.23-3.02-8.43-4.1-12.14l-.27-.93-.5-.45c-6.83-6.17-14.2-13.76-15.19-25.93l-.07-.9.03-.91c.27-8.06,3.07-14.84,5.33-20.29.66-1.6,1.29-3.12,1.79-4.52l.03-.09c9.87-31.52,23.4-72.94,40.51-113.81,9.73-23.13,20.65-45.91,31.21-67.95l.11-.23c1.81-3.78,3.62-7.56,5.43-11.34l.19-.39.26-.47.04-.09c.48-1.09.66-3.06.87-7.06.09-1.62.18-3.38.36-5.19l.02-.18v-.18c-.82-15.58,2.07-31.93,8.83-50.01,9.43-26.73,24.48-51.68,43.53-72.17l.06-.07.06-.07c11.23-14.11,23.71-26.96,35.78-39.39l.19-.19c2.8-2.88,5.68-5.85,8.5-8.78l.15-.15.12-.18c7.41-11.14,19.12-13.45,26.86-14.98,3.32-.65,5.76-1.17,6.97-1.82l.41-.22.42-.19c26.92-12.47,54.39-22.82,80.95-32.83,13.97-5.26,28.34-10.68,42.53-16.36l.97-.39.37-.97c1.04-2.72,2.25-5.26,3.32-7.49,1.22-2.55,2.47-5.18,2.85-6.83l.18-.78.25-.76c.33-.98.62-2.58.99-4.74.63-3.62,1.49-8.57,3.77-13.47l.52-1.13-.97-1.67c-.93-1.6-1.82-3.13-2.48-4.24l-.06-.1-.07-.1c-4.08-5.54-10.45-17.38-18.61-55.97-5.11-24.16-10.15-55.58-14.59-90.88l-.21-1.69-1.67-.34c-2.4-.49-4.32-.87-5.93-1.1l-.36-.05-.36-.07c-13.59-2.63-18.93-14.42-21.5-20.08-.41-.9-.79-1.75-1.12-2.39l-.38-.74-.3-.78c-4.03-10.5-1.3-21.01,8.11-31.25l.53-.58.08-.79c.32-3.08.81-7.74,3.21-12.51l.19-.36c2.53-4.75,5.64-8.59,8.38-11.99.82-1.01,1.62-2,2.34-2.94l.5-.65v-.82c-.04-4.97-.1-12.48,2.47-20.03l.1-.3.11-.29c12.88-33.49,27.54-68.07,52.39-90.62l.23-.21c3.3-2.89,6.48-5.04,9.29-6.93,4.43-2.99,6.44-4.42,7.7-6.87l.05-.1c5.9-13,16.45-17.87,24.15-21.42,1.39-.64,2.71-1.25,4-1.9l.52-.26.53-.22c1.76-.72,3.54-1.5,5.43-2.31,9.95-4.31,21.19-9.18,34.24-9.18,1.81,0,3.64.1,5.43.29h.08s.08.01.08.01c19.92.81,39.06,5.99,55.34,14.99,5.9,3.19,9.11,7.97,11.25,11.79l.38.68.71.32c13.16,6.01,25.26,13.96,35.95,23.62l.28.25,5.48,5.44c6.71,6.65,13.65,13.53,20.48,20.36l.47.47.43.51c7.95,9.41,11.5,20.23,14.64,29.78.55,1.68,1.1,3.36,1.68,5.02l.12.36.11.37c3.25,11.08,5.76,22.29,8.18,33.12l.62,2.78.44.47c8.27,8.91,8.9,21.42,9.14,26.13v.35c.13,3.83.54,7.84.97,12.09.91,8.94,1.95,19.04.24,29.57l-.04.27-.04.18c-1.32,6.85-4.62,13.02-9.82,18.33l-.88.9.25,1.24c.51,2.51.76,5.2.73,7.98-.06,7.77-2.21,15.3-3.63,20.28l-.14.49-.17.47c-2.11,5.95-3.7,12.23-5.39,18.88-1.88,7.42-3.83,15.08-6.63,22.78l-.24.65-.29.62c-4.37,9.38-11.38,17.95-20.83,25.46l-.81.64-.09,1.03c-.83,9.95-.95,19.95-.95,28.42v1.24s1.01.71,1.01.71c4.42,3.12,8.18,7.42,10.9,12.43,3.83,6.89,6.93,13.86,9.93,20.6,2.63,5.91,5.12,11.5,7.95,16.76l.15.28.21.23c4.72,5.02,7.03,5.98,8.37,6.27l.8.17.78.25c47.21,15.49,83.03,28.59,116.14,42.47l.18.07.19.05c3.42.82,8.11,2.88,16.17,7.1,5.43,2.84,13.05,7.07,18.15,10.4,6.62,4.25,10.06,10.34,12.33,14.37.6,1.06,1.16,2.06,1.64,2.78l.06.09c5.35,8.19,12.57,15.51,20.21,23.26l1.48,1.5.21.23c29.67,32.61,55.02,64.08,75.32,93.54,2.85,4.02,5.67,7.65,8.65,11.5,3.86,4.98,7.83,10.11,11.81,16.01l.12.17.13.21.07.08c.52.67,1.64,1.57,3.96,3.34,2.57,1.96,5.76,4.41,8.66,7.77,5.08,5.87,7.53,12.36,9.49,17.58,1.06,2.82,2.06,5.49,3.19,7.21l.09.13c13.74,21.44,28.85,44.2,46.12,65.3l.31.38.29.4c8.58,11.89,12.22,20.21,17.26,31.72,1.37,3.13,2.92,6.67,4.75,10.69l.74,1.49c6.72,13.4,15.09,30.08,12.51,47.15-4.51,30.67-10.2,62.01-25.47,78.85l-.08.09-.07.1c-3.29,4.46-6.43,8.96-9.76,13.72-3.17,4.54-6.43,9.2-9.79,13.78-3.23,4.58-6.56,8.98-9.77,13.24-5.41,7.16-10.48,13.86-14.81,20.92-4.87,8.12-11.08,14.58-17.56,21.03l-.2.2-.15.24c-5.17,8.37-10.95,16.14-16.53,23.64-8.53,11.45-16.57,22.25-21.81,34.17l-.36.83-.46.78c-8.01,13.74-21.85,18.76-31.95,22.42l-1.42.51-.43.59c-3.01,4.14-5.81,8.59-8.78,13.31-5.01,7.96-10.19,16.2-16.96,23.82l-.12.13-.1.15c-7.87,12.04-17.19,14.56-23.63,14.56-.43,0-.85-.01-1.28-.03h-.12s-.12,0-.12,0c-.5.02-1.01.04-1.52.04-4.97,0-9.33-1.2-12.52-2.07l-1.23-.33-.94.71c-9.66,7.4-17.62,14.15-24.64,20.1-18.36,15.57-32.86,27.87-53.66,27.87-1.92,0-3.9-.11-5.88-.32h-.08c-6.79-.49-13.27-1.56-19.54-2.59-7.22-1.19-14.03-2.3-20.55-2.42h-.34s-.33.08-.33.08c-4.22,1.14-8.46,2.51-12.96,3.96-10.81,3.48-21.99,7.09-34.48,8.09h-.11c-.99.08-2.01.12-3.02.12-7.97,0-15.25-2.24-21.06-6.47l-.81-.59-.99.17c-36.03,6.03-72.59,6.9-104.03,7.25h-.21s-.22,0-.22,0ZM260.06,1128.17c-.06.23-.1.45-.13.68l-.32,2.37,6.03.8.9-4.67-5.89-1.49-.58,2.32ZM768.32,1030.1c.37,2.15.54,4.33.52,6.48l-.06,6.54,5.85-6.84-.07-.98c-.33-4.55-.37-10.57,2.31-16.82,3.21-8.02,8.57-13.52,12.88-17.94,1.74-1.78,3.38-3.47,4.57-5.01l.2-.25.21-.25c4.73-5.62,9.19-11.39,13.91-17.5,7.8-10.09,15.85-20.51,25.16-30.13l.11-.11.09-.13c3.57-4.84,6.94-9.83,10.5-15.11,3.09-4.57,6.24-9.24,9.55-13.84l1.82-2.53-2.92-1.09c-1.92-.72-3.76-1.64-5.49-2.74l-.88-.56-.8-.67c-7.21-6.08-9.4-14.23-10.71-19.1-.36-1.35-.68-2.53-.96-3.29l-.14-.4-.37-.44c-5.08-6.05-10.7-11.72-16.65-17.73-6.78-6.85-13.79-13.92-20.22-21.85l-.2-.26c-7.66-9.82-15.11-19.55-21.77-30.38l-.77-1.15-.77-.26c-1.76-.59-3.5-1.08-5.18-1.45l-2.82-.62-.07,2.89c-.1,4.13-.05,7.53.16,10.69v.1s.02.1.02.1c.54,3.51,2.03,7.48,3.6,11.68,2.55,6.83,5.45,14.57,5.79,23.7v.1c.33,10.09-2.86,19-5.42,26.16-2.13,5.95-3.97,11.08-3.48,15.28l.04.3.02.31c.65,8.4.98,16.81,1.31,24.94.08,2.06.16,4.1.25,6.13v.28s.09.27.09.27c1.23,4.3.93,8.12.75,10.41l-.02.2c-.02.24-.04.49-.05.73v.08s.02.81.02.81l-.07.88c-.23,2.76-.25,5.78-.27,8.97-.05,7.66-.1,16.34-3.11,25.31l-.05.14-.03.15c-1.88,9.26-2.69,18.73-3.24,26.77l-.05.73.2.5c.52,1.3,1.09,2.61,1.7,4,1.56,3.59,3.31,7.6,4.59,12.04l.25.86.15.89Z"/>
    <g>
      <g>
        <path class="cls-13" d="M524.21,334.08c4.64-2.6,8.64-6.02,12.49-9.66-3.76-1.68-6.42-5.09-10.29-6.55-10.5-2.77-21.79,2.44-28.18,10.85,2.96,7.12,21.23,9.27,25.97,5.36Z"/>
        <path class="cls-13" d="M441.3,337.11c3.63-3.16,9.58-4.14,11.95-8.29-5.79-6.33-14.98-9.42-23.44-8.69-6.26.36-10.25,5.67-14.72,9.33,4.38,2.48,7.95,6.27,12.93,7.66,4.36.91,8.94,1.16,13.27-.02Z"/>
        <path class="cls-13" d="M1021.64,878.32c-.2-4.84-2.82-9.1-5.2-13.16-6.92-11.21-11.87-23.44-17.8-35.16-16.01-19.13-30.87-39.22-44.46-60.14-6.07-9.54-13.29-18.57-16.95-29.41-1.81-5.33-4.44-10.68-9.27-13.89-7.2-4.53-11.9-11.68-16.27-18.76-25.73-41.26-58.22-77.66-90.81-113.54-10.04-10.24-18.95-21.64-25.61-34.37-5.89-5.98-13.69-9.77-20.45-14.71-13.05-4.88-26.62-9.29-38.89-15.73-27.15-10.14-54.3-20.32-81.83-29.42-9.44,13.06-20.56,24.77-30.78,37.2-17.47,19.82-33.37,41.09-46.35,64.15-2.66,5.86-11.9,9.04-16.47,3.76-6.14-13.36-11.65-27.12-15.38-41.38-7.28,11.91-13.16,24.69-17.7,37.89.07-4.94,1.72-9.74,2.69-14.57,4.66-17.77,9.93-36.2,21.35-50.91,2.17,2.17,1.87,5.46,2.61,8.23,2.62,15.69,8.45,30.58,14.8,45.08,19.84-35.05,49.3-63.14,72.95-95.4-6.44-5.25-13.36-10.44-17.24-18.01-5.75-11.3-10.46-23.09-15.75-34.6-1.05-1.8-1.57-4.5-4.13-4.58,1,4.34,2.14,8.66,3.1,13.02,1.51,6.88-2.71,13.08-5.66,18.94-15.47,23.13-35.26,43.21-56.86,60.66-13.74,10.31-17.96,27.82-25.72,42.29-1.66,9.3-10.2,14.82-14.98,22.41,1.52,5.92,6.58,10.85,5.85,17.3-.96,28.19-4.14,56.24-5.79,84.38-.84,9.17,6.96,15.84,8.64,24.47,3.66,15.7,3.02,31.99,4.02,47.99,1.56,24.55.11,49.13.3,73.69.34,23.26,2.69,46.48,2.45,69.73.22,2.84-.12,5.67-.16,8.52,8.44,3.27,16.09,11.37,15.41,20.93-1.5,12.05-9.58,22.55-19.45,29.21,1.38,3.98,5.53,4.08,9.09,4.24,9.1,1.79,17.27-2.98,24.98-7.06,4.12-2.54,9.31-.43,12.01,3.16,6.95,9.93,13.58,22.52,8.5,34.78,1.57,2.67,3.31,5.53,2.91,8.79-1.38,10.98-5.85,22.63-15.84,28.5-1.21,10.72-4.96,21.1-11.54,29.71-.98,19.32-9.67,38.53-24.35,51.38-4.47,9.92,5.06,18.78,3.96,28.85-.77,17.96-4.24,35.65-5.97,53.52-.82,3.01-.27,6.34-1.79,9.14,36.81-.3,73.81-1.53,110.03-8.63,2.03-7.36,9.87-10.17,16.01-13.26,11.76-5.46,23.66-10.89,35.15-16.77-4.93-.37-9.08,2.54-13.29,4.62-11.26,6.07-23.17,11.37-35.86,13.54-5.55,1.98-11.51.15-16.95-1.34-9.76-3.14-15.35-13.42-15.7-23.24-8.28-3.1-16.46-10.9-14.37-20.54.92-5.16,5.55-8.38,9.88-10.65,13.6-7.17,25.8-16.62,39.04-24.41-14.08,4.26-29.95-2.14-36.9-15.11-2.82-5.15-5.1-11.84-1.92-17.33,2.83-4.6,8.7-5.02,13.38-6.49,15.65-5.02,30.76-11.87,46.85-15.47,8.94-2.32,18.03,1.12,25.66,5.67,15.51,8.57,30.01,18.81,44.17,29.41,2.19,1.75,4.99,2.48,7.68,3.09.32-5.11,1.41-10.23.86-15.35-1.31-6.34-5.75-12.63-3.04-19.25,3.6-8.62,11.88-16.25,9.79-26.4-2.77-7.15-6.23-14.25-7.05-21.97-.29-7.96,2.26-15.66,4.4-23.21.7-25.42.8-50.94-1.12-76.34-.36-5.02-.68-10.11.09-15.1,1.75-10.62,7.79-20.16,8.66-30.94-1.04-15.07-11.46-28.34-9.41-43.95.81-25.58,3.65-51.04,4.47-76.61.72-23.78,1.53-47.56,3.27-71.28,4.84-20.13,13.13-39.33,23.75-57.08-3.33,11.46-8.46,22.51-9.88,34.45-3.23,42.08-1.94,84.37-4.59,126.48,8.37-2.03,17.14-.81,25.41,1.17,6.23,1.75,13.46,3.5,16.87,9.63,6.77,11.23,14.69,21.67,22.69,32.04,11.74,13.79,25.04,26.17,36.68,40.04.27.02.81.07,1.09.09,3.05,5.31,5.09,11.03,6.94,16.86,2.25,4.65,8.48,2.87,12.49,4.5.75-8.8.99-17.65,2.19-26.41,1.15-5.18,5.14-8.97,8.19-13.08,8.58-11.21,18.28-21.47,28.03-31.65,3.96-3.85,7.48-9.08,13.51-9.47-.93,2.5-2.57,4.6-4.27,6.62-14.66,19.86-28.56,41.8-31.76,66.77,1.38,2.16,3.33,3.84,5.05,5.72,19.11-11.68,41.46-16.49,63.45-19.11,3.9-.07,8.4-1.69,11.87.76-1.21,1.69-3.55,1.18-5.31,1.79-22.63,6.02-44.59,15.24-63.63,29.03-5.7,3.4-9.2,9.14-13,14.36-.59,7.62-6.26,13.21-10.36,19.17-9.73,13.07-17.85,27.42-29.35,39.1-12.09,14.52-22.95,30.02-35.19,44.43-2.89,3.32-6.84,5.93-8.58,10.11-.86,5.54,1.16,11.35-.89,16.77l-.1-.09c-7.37,10.77-16.67,20.15-24.69,30.46-1.71,1.88-3.59,3.68-4.69,6.01,5.72-2.55,11.59.64,16.39,3.67,11.74,7.63,21.79,17.52,31.5,27.53,11.6,11.65,21.21,25.47,26.89,40.97,6.75-10.4,12.94-21.18,20.28-31.19,5.49-7.51,15.24-9.14,23.39-12.32,6.9-2.45,7.55-10.78,11.27-16.17,11.6-18.37,26.31-34.74,37.67-53.2,8.04-5.59,13.37-14.14,18.66-22.22,12.83-18.59,26.87-36.32,39.39-55.13,3.13-5.25,8.15-9.16,10.67-14.78,7.57-21.21,13.68-43.78,11.98-66.51ZM760.82,723.01l-.67-.05c-.11-3.77-.11-7.54,0-11.31l.67-.04c0,3.8,0,7.59,0,11.4Z"/>
        <path class="cls-13" d="M249.52,612.78c4.55,10.45,11.51,19.65,17.08,29.6,11.86-18.11,27.25-34.06,45.5-45.77,6.08-3.58,13.96-7.39,20.86-3.87,8.89,6.88,10.58,18.63,13.09,28.88,6.39,29.12,16.27,57.3,26.37,85.29,18.76,54.43,41.89,107.2,65.55,159.64,13.51,23.08,31.19,43.36,46.59,65.16,9.04.02,13.53-8.51,20.39-12.57.38-17.2-1.29-34.34-1.78-51.52-2.36-29.67-.05-59.44-1.45-89.14-.86-17.02-.55-34.13-2.77-51.04-.94-8.01-6.58-14.57-7.28-22.59-.12-30.55,4.12-60.97,4.9-91.51-1.11-6.21-6.96-11.72-4.85-18.38,3.61-8.11,12.12-13.07,15.44-21.3-5.22-10.45-9.48-21.61-17.09-30.64-4.68-4.44-11.59-4.87-16.92-8.21-12.55-3.93-20.33-15.46-27.4-25.79-8.72-13.7-16.81-28.01-21.56-43.62-2.15,1.19-2.78,3.54-2.88,5.85-1.41,8.35-3.71,16.62-8,23.98,1.05,5.42.01,11.02.97,16.46,5.03,28.85,10.99,57.83,22.66,84.83.75-1.72,1.66-3.36,2.34-5.12,8.09-15.28,14.47-31.5,23.38-46.29,3.94-.81,7.89-1.68,11.91-2.02,7.79,11.82,15.88,23.49,22.62,35.95-8.54-8.31-17.56-16.23-27.62-22.69-5.51,11.09-10.71,22.33-16.38,33.34-5.57,10.34-8.59,21.78-13.32,32.49-.96,2.13-3.57,1.76-4.4-.26-18.4-27.35-26.32-60.06-31.88-92.13-1.04-6.83-2.55-13.65-2.66-20.58-4.61,1.89-9.3,3.57-13.99,5.24-36.31,14.38-73.41,26.91-108.63,43.91-6.79,3.46-14.41,4.45-21.67,6.48-.35.91-1.24,1.55-1.6,2.41-9.36,9.71-19.41,18.8-28.7,28.61,2.98,5,5.7,10.27,8.01,15.61,4.64-2.47,11.79-3.9,15.15,1.28Z"/>
        <path class="cls-13" d="M321.85,1080.83c-9.48-13.41-14.23-29.56-16.86-45.61-2.35-15.39-2.43-31.49,2.4-46.43,1.93-7.57,7.71-13.36,14.75-16.41-9.95-.72-19.99-.83-29.89-1.82l-.03-.2c-4.73-.5-9.77-1.21-13.55-4.35-4.73-3.09-7.19-10.39-13.62-9.97-9.76,1.21-19.89.53-28.83-4.08-8.69-4.38-14.16-13.06-22.37-18.08-17.09-5.64-35.51-3.41-52.76.3,15.17-7.26,31.48-12.52,48.29-14.1,5.04-1.08,9.14,2.86,12.62,5.91,2.84-1.97,5.32-4.62,6.67-7.83-1.1-3.48-4.72-4.96-7.15-7.36-11.68-8.73-9.16-25.28-15.25-37.19-4.32-7.91-9.28-15.44-14.22-22.96-1.03-1.85.27-3.78.72-5.58-7.87-4.97-14.5-11.88-22.36-16.57-.75-4.53,1.56-8.67,3.58-12.53,5.37-9.54,12.23-18.18,19.79-26.07-7.96-10.04-16.04-20.01-23.11-30.72-4.22-6.02-9.23-12.31-14.73-16.76-12.28,25.42-24.73,51.02-35.85,77.06-14.55,34.25-26.59,69.51-37.95,104.92-2.17,8.47-5.99,16.38-8.78,24.65-2.22,9.86,14.44,14.06,10.09,23.77,1.69,6.92,5.01,13.28,6.96,20.11,1.52,4.89-.31,10.18,1.11,15.03,3.97,4.12,10.17,5.07,14.2,9.16,6,6.35,7.33,15.84,13.81,21.82,4,3.27,9.32,4.11,14.21,5.24,15.5,2.96,30.61,7.55,45.88,11.43,17.7,3.93,35.61,7.47,52.45,14.4,6.41,2.51,13.19,4.41,18.64,8.82,5.28,4.82,10.27-3.54,15.83-4.17,18.63-3.86,36.84,4.86,55.3,6.19Z"/>
        <path class="cls-13" d="M507.88,1133.41c-6.61,3.65-13.83,5.99-21.11,7.88-1.15,7.68-7.05,13.48-12.55,18.46-19,21.8-63.3,25.95-69.89,24.31-5.64,1.27-9.4-3.45-13.27-6.6-16.75-29.24-33.59-58.34-50.69-87.36-2.98,1.59-6.33,2.5-9.72,2.51-16.61-1.03-32.66-6.63-49.27-7.33-.19,7.38-1.93,14.6-3.57,21.77-2.38,8.86,4.52,17.28,2.28,26.17-2.03,7.85-7.39,14.19-10.93,21.34,3.24,10.34,11.4,18.01,16.55,27.28,19.89,6.22,40.24,10.74,60.46,15.71,51.63,12.28,104.76,16.51,157.7,17.64.66-20.37,6.64-40.22,7.63-60.59.45-7.37-5.25-13.75-3.63-21.21Z"/>
      </g>
      <g>
        <path class="cls-14" d="M590.44,451.2c-1.07-13.54-.71-27.13-.77-40.69-4.03,7.23-9.8,13.28-14.87,19.74-.51.15-1.01.31-1.5.47,7.68-10.95,11.08-23.99,17.14-35.78,3.62-19.75-2.04-41.81,9.26-59.69,6.21-11.61,14.05-22.7,24.45-30.9-1.68,5.55-4.96,10.36-7.94,15.26-6.86,13.74-12.39,28.85-11.43,44.45,11.4-7.09,13.11-21.07,16.27-32.92,2.04-11.05,7.96-21.28,7.92-32.69.52-6.1-6.3-8.87-11.25-7.27-8.34,8.08-16,17.18-21.59,27.45-.7,1.31-1.11,3.66-3.18,2.92.77-15.32,3.47-32.61-6.07-45.9-25.26-8.98-52.08-12.43-78.53-16.26-23.88-.34-48.16-1.48-71.47,4.81-15.52,2.01-30.37,7.84-43.29,16.61-.1,1.19-.19,2.38-.27,3.58-1.04,14.05-1.54,28.18,1.6,41.98,5.63,28.35,9.51,57.13,17.79,84.87,4.53,18.94,19.86,32.2,29.56,48.42,5.34,9.78,14.75,16.57,25.2,20.02,17.72,9.13,39.01,6.54,56.97-.53,7.58-2.41,10.39-10.67,15.82-15.69,8.48-7.86,16.35-16.48,25.17-23.89-2.63,6.61-7.11,12.17-10.49,18.38-7.89,11.74-15.02,24.97-27.29,32.72-16.7,7.48-35.77,10.61-53.85,7.09-10.6-3.17-20.97-7.44-30.05-13.86,5.4,9.95,11.41,19.69,19.05,28.09,10.82,12.35,29.7,10.24,41.89,20.51,4.33,4.11,8.1,8.75,12.11,13.15,4.79-10.96,13.77-18.97,23.02-26.16,14.14-11.14,26.24-24.53,37.97-38.11,6.67-7.91,13.27-16.35,16.44-26.35-1.7-.71-3.84-1.73-3.81-3.88ZM414.57,321.99c4.27-6.11,12.1-7.33,18.97-8.15-3.89-1.13-7.79-2.36-11.81-2.89-7.99-1.47-15.91.5-23.65,1.93,3.58-5.8,10.05-9.95,16.9-10.62,11.17-1.37,21.97,2.51,32.82,4.4,2.6.61,5.41.74,7.62,2.42-1.97,1.94-4.15,3.64-6.49,5.1,2.98,1.98,6.37,3.26,9.27,5.34,3.49,12.17.93,25.22.94,37.74.59,7.64-4.67,13.7-6.8,20.63-.45,1.21-.83,2.43-1.13,3.68,5.17,3.8,9.64,8.51,15.12,11.93-.33.71-.23,1.93-1.34,1.8-7.55.52-14.15-3.54-20.42-7.1-4-2.51-.21-6.9,1.17-9.85,2.36-6.55,6.39-12.58,6.71-19.72.92-8.07,1.68-16.19,2.04-24.31-3.92,2.16-8.72,3.84-13.18,2.81-4.33,1.19-8.92.94-13.27.02,1.66.72,3.31,1.46,4.97,2.17-4.04-.12-8.07-.56-12.05-1.23-5.4-.48-10.17-3.29-13.98-7.02,1.91-3.51,4.91-6.19,7.6-9.07ZM501.09,385.7c-1.26,2.98-5.01,2.63-7.59,3.53-5.18,1.68-10.65,2.56-15.61,4.84,4.47-7.28,15.61-17.83,23.2-8.37ZM518.69,415.53c-5.41,2.82-11.93,1.95-17.84,2.68-11.95,1.16-23.99.59-35.92,1.84-8.22.19-16.65,1.95-24.73-.17-3.43-.9-7.3-3.83-6.86-7.68,2.12-.07,3.31,2.32,5.47,2.21,12.89.77,25.72-1.48,38.6-1.35,11.51-.36,23.02-1.02,34.51-1.84,4.68-.24,8.21-3.54,12.29-5.38,1.15,4.32-2.88,7.08-5.51,9.7ZM544.52,325.76c-5.83,7.33-15.53,9.5-24.36,10.59,1.41-.64,2.79-1.36,4.05-2.28-4.31,1.35-13.04,1.41-12.91,1.6-6.96,2.08-13.4-2.66-19.8-4.08,1.54-4.54,5.23-7.96,7.63-12.06,6.26-8.16,17.49-9.65,27.02-7.85,5.89.56,9.79,5.4,14.19,8.78,1.3,1.75,4.49,2.9,4.19,5.29ZM497.62,311.22c-6.27,1.45-11.22-3.73-14.49-8.38,15.72-.24,31.06-6.79,46.83-4.61,5.98,1.95,12.66,4.12,16.98,8.76-16.61-2.98-32.85,3.18-49.32,4.23Z"/>
        <path class="cls-14" d="M546.4,1016.29c-3.53,1.89-7.71,1.84-11.61,2.11-11.15.22-22.2-1.55-33.1-3.7-4.5-.2-9.04.94-13.3,2.3-.42-.26-.81-.52-1.2-.78,3.92-2.42,7.15-6.9,12.21-6.74,13.14-.27,26.38,3.37,39.45.51,8.22-1.42,13.39-8.54,18.77-14.21,2.92-4.99.58-11.1-2.81-15.22-3.65,1.98-7.39,3.78-11.21,5.42l-.14.19c-14.98,3.76-30.53-1.1-45.3-3.96-10.31-3.1-19.8-8.46-29.41-13.26,17.17,1.17,36.59-2.12,48.5-15.73,6.17-5.91,5.01-19.41-4.84-20.45-1.19-.35-2.38-.62-3.58-.85-5.66,5.04-11.81,9.74-18.78,12.79-11.09,1.58-22.32,2.28-33.31,4.51-2.38.68-4.67,1.78-6.58,3.38-5.23,4.08-9.85,8.88-15.16,12.87-10.5,8.58-23.52,13.33-36.55,16.48-17.96,2.51-36.16,2.04-54.25,2.54-2.74.02-5.46.23-8.18.43-1.4.1-2.79.17-4.17.23-5.04,4.63-8.54,10.74-9.96,17.44-5.56,17.36-2.47,36.28,4.57,52.73,3.78,2.64,8.34,3.05,12.79,3.52,22.86,2.17,46.27,4.31,67.51,13.75,16.88,10.84,36.55,17.95,56.7,18.92,13.21-3.24,26.61-6.01,39.43-10.64,4.3-1.22,6.74-5.28,8.46-9.1-11.44.27-23.13-1.19-34.37,1.46,3.64-4.59,8.01-10.81,14.68-9.95,12.51.02,26.48,2.09,37.34-5.6,1.91-2.86,1.73-6.59,2.47-9.86-6.71-.34-13.37-1.21-20.04-1.87-9.55-1.08-19.17-1.52-28.77-1.43-2.1,0-.23-1.91.57-2.44,3.1-2.88,6.95-5.79,11.41-5.54,11.54.12,22.91,3.16,34.48,2.69,9.99-.51,18.43-6.6,26.26-12.22,5.44-5.72,7.52-15.34,3.15-22.25-4.11,3.76-7.59,8.24-12.13,11.52Z"/>
        <path class="cls-14" d="M803.28,1110.96c-9-8.44-17.87-17.8-29.4-22.69-8.45,7.63-17.09,15.06-26.48,21.53-3.74,3.52-9.06,4.07-13.88,4.96-4.96.81-8.85-2.88-13.02-4.82-19.42-11.73-35.79-28-55.65-39.02-5.23.31-10.25,1.96-15.19,3.57-14.38,4.5-27.98,11.28-42.66,14.84-3.58.67-3.81,4.69-2.58,7.45,1.34,3.03,3.62,5.65,6.64,7.1,14.97,4.04,28.7-6.64,43.4-7.28,13.2,1.14,22.33,15.86,36.45,12.54-6.53,5.61-16.22,8.15-24.58,5.53-3.86-.64-7.8-.43-11.67-.12-6.27,4.25-12.79,8.12-19.13,12.28-11.2,7.48-22.13,15.41-34.02,21.81-3.07,1.46-5.39,4.45-4.82,8.03,1.54,6.04,9.89,8.96,14.87,5.09,13.42-4.97,25.97-11.9,38.67-18.41,6.07-2.95,12.19-6.48,19.11-6.76,11.39-.55,22.49,3.93,33.86,1.87-6.55,11.61-21.57,5.97-32.23,6.29-5.53,1.43-10.41,4.55-15.5,7.02-12.76,6.99-25.92,13.2-39.35,18.76-3.83,1.14-2.38,5.5-.92,8.06h-.01c3.22,5.91,10.74,6.35,16.61,5.09,17.66-1.57,30.65-17.39,48.83-16.39,7.63.08,19.14-2.89,23.25,5.64-1.41,6.87-9.83,9.92-15.97,11.69-6.67,2.85-13.23,6-19.68,9.33-7.69,3.98-15.85,7.07-23.29,11.52-2.53,1.33-3.72,4.38-2.69,7.06.21.48.65,1.43.86,1.9.17.28.52.84.7,1.12,15.95-1.38,30.66-8.61,46.22-11.87,15.59-1.25,31.05,2.66,46.43,4.62,7.77-.6,15.99-2.01,22.3-6.96,16.87-16.27,36.24-29.8,55.31-43.45,5.53-3.81,10.44-8.57,16.57-11.45-6.56-13.59-16.93-24.76-27.36-35.45Z"/>
      </g>
      <g>
        <path class="cls-5" d="M640.68,235.99c-.58-5.04-.04-10.47-2.54-15.07-6.7-2.44-14.84-1.58-21.47,1.05l-.03.12c-7.68,6.29-9.14,21.24-21.59,20.58-27.3-11.29-53.86-26.76-83.94-29.55,21.16-.03,41.72,6.42,61.34,13.77,6.92,2.05,13.3,6.85,20.59,7.09,6.35-5.19,7.49-15.26,15.19-19.35,7.27-3.21,15.41-4.31,23.31-3.56-4.5-18.54-8.37-37.42-16.05-54.97-2.9-7.93-9.98-12.94-15.39-19-5.63-5.06-10.24-11.15-16.1-15.96-10.02-9.72-22.55-16.09-34.78-22.52-4.58,7.42-8.48,15.2-12.23,23.06-13.9,24.61-21.73,52.74-21.43,81.09-3.09-18.91-1.71-38.42,2.76-57,5.7-19.23,14.04-37.56,23.78-55.04-.9-1.69-1.68-3.53-3.16-4.8-14.77-8.58-31.98-11.98-48.92-12.59-12.69,1.52-24.53,7.67-35.57,13.85-9.42,31.02-7.59,64.1-7.9,96.2h0c-.1,1.59.15,3.18.11,4.77-3.87-11.4-5.38-23.39-6.28-35.35-.36-14.47-1.61-28.97-.11-43.42l-.67.63c.15-.14.45-.43.6-.58.12-1.24.26-2.48.39-3.72-3.25,3.74-7.59,6.25-11.32,9.48-12.39,9.29-21.11,22.42-28.3,35.89-7.55,13.51-13.21,27.93-18.59,42.39-2.58,6.77-2.39,14.09-2.88,21.21-1.94,7.9-10.83,12.68-10.99,21.24,8.54-5.66,17.24-11.19,26.56-15.51,16.64-5.44,34.04-11.09,51.66-10.46-35.12,5.81-67.06,24.47-92.52,48.72,1.05,1.75,1.9,3.6,2.7,5.47,8.53-8.63,21.08-9.88,32.49-11.15,51.67-3.46,103.78-7.11,155.43-1.38,18.38,1.39,36.55,5.81,55.04,5.53,7.94-3,14.83-8.44,21.88-13.06,3.58-.47,6.69,1.74,9.95,2.77,5.81,7.12,2.28,16.89-3.97,22.52-.01.96-.01,1.93,0,2.9,4.88-2.07,9.94-4.23,13.99-7.71,1.48-9.52-1.05-19.05-1.04-28.59Z"/>
        <path class="cls-5" d="M275.86,653.47c5.43-8.9,12.2-16.91,19.4-24.43,2.45-2.76,7.55-4.81,10.21-1.23,3.02,4.08,4.8,8.95,6.84,13.57,1.99-.75,2.29-3.32,3.48-4.89,4.64-9.72,11.25-19.71,10.35-30.9-3.03-4.84-9.66-.49-13.35,1.6-16.76,11-30.9,25.89-41.4,42.95,1.32,1.22,2.77,6.79,4.47,3.32Z"/>
        <path class="cls-5" d="M199.8,705.3c-6.41-3.36-12.08-8.16-19.14-10.27-4.93-1.14-3.22-7.31-1.95-10.71,12.47-22.72,25.41-45.82,44.33-63.89-1.46-3.05-2.72-6.19-3.86-9.37-.39-1.18-.85-2.34-1.3-3.48-12.5,9.88-21.73,23.2-29.83,36.77-11.56,20.22-21.95,41.94-24.81,65.3-1.76,5.39-1.06,11.77,2.53,16.27,2.89,3.2,7.54,1.53,10.79-.14,9.11-5.08,16.27-12.86,23.24-20.47Z"/>
        <path class="cls-5" d="M389.57,848.47c18.98,30.05,38.71,59.62,59.39,88.52,6.05-1.41,12.23-2.13,18.37-3.03-13.66-18.35-28.1-36.21-40.17-55.68-12.02-24.68-21.94-50.31-32.86-75.48-16.58-39.08-30.83-79.12-44.3-119.36-6.97-20.21-12.14-41-16.65-61.87-9.32,23.08-24,43.51-40.75,61.76,33.87,54.14,62.71,111.25,96.99,165.15Z"/>
        <path class="cls-5" d="M207.66,695.46c12.83-17.34,24.69-36.09,30.25-57.14,1.06-5.34,2.89-11.42.08-16.51-3.23.45-5.5,3.11-7.88,5.1-17.66,16.39-28.68,38.13-40.86,58.56,6.68,2.21,12.73,5.91,18.41,9.99Z"/>
        <path class="cls-5" d="M279.7,663.2c2.68,3.94,5.23,7.97,7.73,12.03,6.25-6.61,12.1-13.71,17.35-21.16-2.63-5.14-4.95-10.43-7.36-15.67-6.7,7.62-13.59,15.45-17.72,24.81Z"/>
        <path class="cls-5" d="M204.22,779.79c11.62-8.72,23.87-19.13,39.06-19.86,9.14-.33,13.74,8.69,17.47,15.56,10.01,19.5,20.55,38.74,32.42,57.18,28.75,45.58,55.67,92.29,83.77,138.26,8.12-.29,16.51.23,24.32-2.42,12.99-4.14,24.02-12.58,33.65-22.01-37.41-52.65-71.97-107.39-102.8-164.16-16.87-30.81-34.23-61.36-52.29-91.49-10.37-17.03-21.22-33.79-30.8-51.3-9.91,30.42-28.29,57.74-50.31,80.73-7.64,7.42-15.97,14.64-26.11,18.34,3.14,3.58,6.51,7.03,9.03,11.1,6.79,10.56,14.96,20.13,22.59,30.08Z"/>
        <path class="cls-5" d="M226.71,817.71c7.85-11.22,14.96-23.65,16.81-37.44.48-3.44.07-8.89-4.44-9.14-7.5-.21-14,4.38-20.1,8.21-15.47,10.83-29.27,24.63-38.05,41.48,5.12,3.43,9.98,7.24,15,10.82,6.79-14.41,16.85-26.9,28.82-37.34-8.41,13.97-15.18,29.01-20.55,44.31,9.01-5.16,15.29-13.69,22.51-20.89Z"/>
        <path class="cls-5" d="M282.3,842.14c-10.39-16.48-20.05-33.42-28.66-50.9-.37-.58-.48-1.52-1.36-1.44-8.38,24.05-25.38,45.26-46.84,58.84,20.72,31.73,40.45,64.13,60.53,96.29,7.66,1.44,12.52,7.93,17.78,13.03,11.72,2.4,23.8,1.57,35.63,3.15,6.98,1.02,14.16,4.19,18.08,10.33,7.47-.07,14.94-.1,22.42-.12-25.53-43.26-50.96-86.59-77.58-129.18Z"/>
        <path class="cls-5" d="M471.73,1143.04c-10.93-14.57-21.46-29.42-32.95-43.74-10.82-3.87-20.88-9.54-31.21-14.54-17.88-6.37-36.74-9.7-55.63-11.1-.53,1.19-1.6,2.3-1.6,3.66,8.56,15.07,17.43,29.98,26.31,44.88,1.59,3.07,4.49,6.29,2.96,9.98,7.01,11.66,14.61,22.99,21.12,34.95,1.57,2.8,4.84,3.96,7.74,4.88,22.8-1.33,47.49-6.48,63.86-23.65,2.19-1.57,1.15-3.94-.61-5.32Z"/>
        <path class="cls-5" d="M521.96,1079.22c-2.79,6.24-6.99,12.47-13.99,14.33-12.53,4.36-25.56,7.02-38.39,10.29-2.49.75-5.1.38-7.6-.07,6.62,8.59,13.05,17.33,19.41,26.12,9.09-2.33,17.6-6.56,25.12-12.14,12.93-8.47,18.29-23.86,27.28-35.64-2.04-2.16-2.59-5.27-4.73-7.42-2.25,1.81-6.16,1.36-7.11,4.53Z"/>
      </g>
      <g>
        <path class="cls-10" d="M524.21,334.08c6.44-1.54,11.09-4.58,12.49-9.66-3.76-1.68-6.42-5.09-10.29-6.55-10.5-2.77-21.79,2.44-28.18,10.85,3.04,7.29,21.23,9.76,25.97,5.36Z"/>
        <path class="cls-10" d="M441.3,337.11c3.63-3.16,9.58-4.14,11.95-8.29-5.79-6.33-14.98-9.42-23.44-8.69-6.26.36-10.25,5.67-14.72,9.33,4.38,2.48,8.04,6.55,13.03,7.94,4.36.92,8.85.89,13.18-.3Z"/>
        <path class="cls-10" d="M646.43,839.45c15.88-19.6,35.12-36.87,46.72-59.61,4.13-6.87,4.3-15.07,5.82-22.73,2.32-12.93,2.99-26.08,3.31-39.2.71-26.45,3.51-52.9,2.62-79.35-27.88,21.95-55.61,44.32-85.9,62.93-16.76,11.24-34.96,20.37-50.77,32.99-10.99,8.99-19.55,20.38-28.59,31.21.46-14.78,2.18-29.51,3.08-44.26,5.05-8.54,9.59-17.53,15.31-25.7,5.31-5.64,13.34-7.11,20.15-10.2,25.38-9.49,46.74-27.02,65.71-45.94,7.18-6.9,8.88-17.04,11.37-26.23,5.2-23.07,14.79-45.22,28.84-64.29.95-1.18,1.63-2.54,1.98-4.01-9.59,3.15-18.2,8.68-27.6,12.33-14.49,4.62-26.05,14.96-38.59,23.15-17.78,13.74-35.26,28-50.87,44.19-11.39,11-23.4,21.92-31.19,35.92-6.05,9.96-13.63,18.87-19.74,28.79-.8-16.88.61-33.71,1.21-50.56-.78-13.93,1.7-27.75,2.66-41.61,3.33-17.5,11.57-33.48,18.6-49.7,2.01-4.45,4.42-8.82,8.26-11.95,16.45-15.55,35.38-28.98,48.13-48.04,3.72-5.47,5.32-12.14,5.2-18.7-15.47,23.13-35.26,43.21-56.86,60.66-13.74,10.31-17.96,27.82-25.72,42.29-1.66,9.3-10.2,14.82-14.98,22.41,1.52,5.92,6.58,10.85,5.85,17.3-.96,28.19-4.14,56.24-5.79,84.38-.84,9.17,6.96,15.84,8.64,24.47,3.66,15.7,3.02,31.99,4.02,47.99,1.56,24.55.11,49.13.3,73.69.34,23.26,2.69,46.48,2.45,69.73,12.04-.08,25.34-.26,35.54,7.15,1.37.74,2.68,2.23,4.33,2.06,7.9-5.91,15.93-11.71,23.46-18.11,22.11-19.99,44.35-40.12,63.04-63.47Z"/>
        <path class="cls-10" d="M414.29,511.69c5.03,28.85,10.99,57.83,22.66,84.83.75-1.72,1.66-3.36,2.34-5.12,3.62-16.5,8.06-32.8,11.7-49.3.87-2.99-.94-5.72-2.42-8.15-9.45-15.49-18.36-31.58-23.11-49.21-1.76-4.41-1.56-9.39-4.14-13.49-1.41,8.35-3.71,16.62-8,23.98,1.05,5.42.01,11.02.97,16.46Z"/>
        <path class="cls-10" d="M486.04,784.45c-.41-8.6.67-17.77-2.29-25.96-10.04-12.23-21.59-23.17-32.54-34.59-17.98-24.47-31.38-51.85-47.05-77.78,6.82,3.23,13.02,7.91,18.05,13.52,13.54,18.56,26.27,37.71,40.25,55.95,5.23,6.57,8.31,15.16,15,20.37-2.5-33.05-4.94-66.21-6.59-99.32-7.88,8.94-17.61,16.87-29.36,20.08-11.19-16.61-22.95-33.07-30.77-51.65-12.04-28.92-19.2-59.67-23.77-90.6-36.31,14.38-73.41,26.91-108.63,43.91-6.79,3.46-14.41,4.45-21.67,6.48-.35.91-1.24,1.55-1.6,2.41,1.05,3.57-1.7,7.31-.87,11.04,2.54,14.87,3.49,29.98,6.52,44.76,2.87-1.07,4.56-3.79,6.76-5.77,19.24-20.15,46.07-29.99,68.47-45.57,3.35-.15,6.63.74,9.94,1.18,8.03,31.13,14.19,62.79,24.74,93.22,8.3,21.32,15.97,42.89,25.14,63.87,11.13,25.73,20.12,52.37,32.42,77.58,10.02,19.1,19.7,38.42,31.1,56.74,7.97,12.06,15.37,24.47,22.23,37.19.49,1.09,1.31,1.97,2.29,2.67.14-10.39-.17-20.82-.49-31.21,1.9-29.45,4.47-59,2.71-88.53Z"/>
        <path class="cls-10" d="M776.25,736.32c3.12-25.09,10.7-49.67,19.29-73.27,2.62,9.31,9.28,18.02,7.38,28.12-2.73,13.71-6.47,27.22-9.13,40.96-4.38,14.3-2.98,30.68,5.17,43.39,6.13-15.94,13.31-32.22,25.4-44.61-3.02,12.28-7.44,24.2-9.78,36.68-.9,4.29-3.43,9.32-.39,13.33,15.41,22.23,29.92,45.21,46.65,66.45,2.68-4.43,2.61-9.93,4.22-14.78,3.08-13.36,10.2-25.29,14.75-38.1.42-12-1.4-24.11.01-36.1.2-2.23,2.77-1.26,4.22-1.02,10.21,2.85,20.1,6.75,30.01,10.51,8.89,3.58,17.12,8.76,26.31,11.6.49-3.18-1.36-6.08-2.25-9.03-5.81-13.53-12.89-26.45-20.05-39.29-2.92-5.76-4.52-12.31-8.95-17.2-11.12-16.18-25.33-29.77-38.44-44.25-10.8-11.95-21.09-24.36-32.07-36.13-15.2-18.44-29.12-38.13-46.62-54.47-3.04-.87-4.31,3.54-7.11,4.19-7.24,21.67-12.93,43.81-19.55,65.66-2.96,19.43-3.73,39.19-4.55,58.81-1.19-1.49-.89-3.66-1.59-5.39,1.4,13.64.29,27.44.89,41.13.59,3.63.73,7.99,4.28,10.1,5.52,3.81,10.45,8.57,16.17,12.01.53-9.98-4.33-19.38-4.25-29.32ZM760.82,723.01l-.67-.05c-.11-3.77-.11-7.54,0-11.31l.67-.04c0,3.8,0,7.59,0,11.4Z"/>
        <path class="cls-10" d="M201.07,912.42c2.22.38,3.26-1.94,3.02-3.79-.99-9.64-5.37-18.41-9.07-27.22-4.28-8.61-7.61-17.78-13.09-25.73-.39-2.24,1.9-4.12,1.54-6.37-5.83-7.88-13.98-13.58-21.17-20.11-1.12-1.37.08-3.15.81-4.4,4.76-9.27,9.36-18.66,13.05-28.41.56-2.02,1.71-4.27.92-6.34-6.86-7.15-12.57-15.35-18.02-23.61-1.36-1.78-1.55-5.46-4.11-5.66-6.8,9.63-10.86,20.91-15.23,31.8-18.53,44.86-34.57,90.72-51.8,136.06,22.33-7.55,46.48-5.79,69.73-6.51,13.71-5.85,28.48-9.62,43.44-9.7Z"/>
        <path class="cls-10" d="M927.41,786.14c-11.81,1.85-22.96,7.37-33.14,13.51-4.58,3.17-9.68,6.55-11.47,12.14-4.06,11.97-7.87,24.03-12.2,35.91,13.84-15.79,26.61-32.57,41.86-47.06,4.8-5,11.12-8.65,14.95-14.49Z"/>
        <path class="cls-10" d="M924.29,818.41c-10.98,15.69-22.61,31.77-28.74,49.95,4.21-2.03,7.4-5.44,10.8-8.53,21.22-15.83,44.46-29.08,68.97-39.13,1.11-.48,2.75-1.31,2.26-2.8-4.19-3.42-9.25-5.54-13.89-8.26-4.33-2.16-8.74-6.38-13.93-4.51-9.13,2.72-19.84,4.72-25.47,13.27Z"/>
        <path class="cls-10" d="M715.09,806.43c-8.09,9.16-15.79,18.69-23.65,28.06-30.47,32.71-64.97,61.45-100.91,87.98-9.01,7.21-19.05,13.69-25.33,23.65-1.31,2.92,1.27,5.95,4.36,5.56,11,.23,22.01-2.32,32.36-5.96,31.19-11.84,61.1-27.68,86.97-48.91,10.88-9.11,22.93-18.99,26.71-33.3,3.97-18.77,3.55-38.22,1.16-57.14-.42.01-1.25.04-1.67.06Z"/>
        <path class="cls-10" d="M952.16,838.78c-16.02,6.08-31.04,14.74-44.86,24.81,27.65-1.75,55.08-5.97,81.94-12.86,1.95-.68,4.46-.57,5.82-2.36-13.43-5.86-28.07-10.83-42.9-9.58Z"/>
        <path class="cls-10" d="M909.08,946.24c17.06-18.8,37.53-34.14,57.27-49.99,10.76-9.53,25.94-12.62,36.99-21.33-34.74-1.88-67.35,12.56-97.16,28.81-2.64,1.58-5.47,3.13-7.27,5.7-6.51,13.29-15.54,25.12-24.16,37.09-20.45,24.18-41.32,48.17-60,73.7-3.29,3.02-1.3,7.29.3,10.64,4.62,10.96,12.07,20.59,20.89,28.5,7.11,6.24,16.72,8.68,25.99,8.65,1.55-8.36-2.68-17.64,2.37-25.15,9.7-18.21,21.79-35.01,33.12-52.22-4.07,20.56-10.24,40.55-15.66,60.77,1.62-1.07,3.23-2.18,4.54-3.62,10.43-12.38,19.86-25.59,30.56-37.76,17.07-19.11,32.88-39.55,52.51-56.18,3.83-3.39,7.75-7.03,9.42-12.02,6.19-14.84,15.45-28.81,18.64-44.66-10.03,5.41-18.84,13.19-28.55,19.3-18.13,13.2-39.08,21.66-59.81,29.76Z"/>
        <path class="cls-10" d="M674.1,978.47c8.09-1.57,15.87-5.35,21.66-11.27,7.11-8.3,11.79-18.4,15.48-28.6.96-3.68,3.02-7.74,1.33-11.46-2.95-1.46-6.03.19-8.8,1.26-22.6,9.42-44.85,20.1-68.36,26.76-11.37,1.34-22.3,6.09-33.18,8.49-3.76,2.23-8.9,3.54-10.6,8,6.27,7.61,16.69,9.69,26.06,10.23,18.81,2.13,37.96.77,56.4-3.41Z"/>
        <path class="cls-10" d="M293.95,1011.37c1.73-14.29,7.72-28.19,16.79-39.36-6.13.04-12.26-1.37-18.37-.83-.04-.15-.1-.47-.13-.62l-.03-.2c-4.73-.5-9.77-1.21-13.55-4.35-4.73-3.09-7.19-10.39-13.62-9.97-14.19,10.97-31.9,15.64-49.2,19,11.17-4.43,22.53-8.71,33.1-14.4-10.62-1.28-21.11-5.31-29.25-12.37-3.43-2.91-5.12-8.01-9.93-9.01-16.79-5.28-34.22.32-51.13,1.87-9.42.99-16.98,7.38-25.81,10.18-10.31,1.94-20.28-2.17-29.78-5.62,9.55-7.81,22.52-2.76,33.59-3.78-6.96-3.83-15.01-5.73-22.82-7.02-10.8.64-22.34,2.68-30.3,10.65-4.99,2.82-.28,8.12,1.25,11.69,2.23,3.4,3.02,8.47,7.47,9.76,10.49,3.17,21.42,4.61,32.33,5.25-8.5,2.19-17.11,3.94-25.61,6.1-4.92,1.19-4.31,7.27-4.09,11.17-1.15,15.82,17.07,26.62,31.36,23.62,22.98-4.02,46.22-5.98,69.34-8.9-5.82,2.62-12.04,4.28-17.87,6.93-11.32,4.97-23.64,6.93-35.19,11.21,25,5.92,51.03,9.47,75.83,17.07,10.74,3.95,22.31,1.9,33.46,2.27-.27-8.87-1.65-18.05,1.13-26.68,4-12.86,7.31-26.26,14.33-37.87-1.15,12.58-5.18,24.71-6.36,37.3-.31,10.36.72,20.67,2.09,30.94,12.43.78,24.69,3.17,36.84,5.47-1.03-13.24-5.76-26.14-5.9-39.49Z"/>
        <path class="cls-10" d="M709.5,986.85c-34.06,15.77-70.42,25.48-105.91,37.37-10.26,2.46-23.2,3.49-28.64,14.13-4.59,9.94-10.35,19.36-14.81,29.33,16.84-6.86,34.56-11.16,52.13-15.78,25.67-6.6,50.98-14.55,75.99-23.34,5.62-1.93,10.42-5.73,13.8-10.6,6.89-10.29,14.62-21.43,16-33.9-3.11-.15-5.73,1.76-8.54,2.79Z"/>
        <path class="cls-10" d="M843.47,1078.59c-7.23-7.76-16.68-12.98-24-20.65-5.98-5.06-10.71-11.36-16.45-16.67l-.1-.09c-7.37,10.77-16.67,20.15-24.69,30.46,1.81.27,3.71.46,5.35,1.38,14.48,8.13,26.27,20.01,38.87,30.65,5.5,4.67,9.57,10.75,14.85,15.57,4.63-11.38,11.48-21.8,16.92-32.66-4.03-1.98-8.07-4.3-10.76-7.99Z"/>
        <path class="cls-10" d="M295.02,1096.24c-3.71,8.56-1.18,19.16,5.42,25.6,5.78,6.39,14.68,8,22.47,10.74,12.04,3.21,23.75,8.08,35.95,10.39-19.45-15.76-41.17-29-60.82-44.68l.62-.48c-1.09-.79-2.29-1.41-3.64-1.57Z"/>
        <path class="cls-10" d="M305.05,1139.85c-4.58-2.96-9.9-4.86-13.8-8.76-7.77,7.12-11.72,17.31-14.43,27.27-.7,2.94,2.47,4.58,4.69,5.54,21.02,9.12,43.65,13.37,65.8,18.79,21.55,4.16,42.73,10.73,64.24,14.56-20.31-9.01-39.74-19.98-59.45-30.26-16.23-8.07-31.83-17.33-47.05-27.14Z"/>
      </g>
      <g>
        <path class="cls-1" d="M531.97,90.95c1.75-2.29,3.57-5.56,6.98-5.03,1.48,1.27,2.26,3.11,3.16,4.8-9.74,17.48-18.08,35.81-23.78,55.04-4.46,18.59-5.85,38.1-2.76,57-.3-28.35,7.53-56.48,21.43-81.09,3.75-7.86,7.65-15.64,12.23-23.06,12.23,6.43,24.75,12.8,34.78,22.52,5.86,4.81,10.47,10.9,16.1,15.96,5.42,6.06,12.5,11.08,15.39,19,7.68,17.55,11.55,36.42,16.05,54.97-7.9-.75-16.04.34-23.31,3.56-7.71,4.09-8.85,14.16-15.19,19.35-7.29-.24-13.67-5.04-20.59-7.09-19.63-7.35-40.18-13.8-61.34-13.77,30.08,2.8,56.64,18.26,83.94,29.55,12.45.66,13.91-14.28,21.59-20.58-.71,3.23-2.05,6.26-2.96,9.42,5.82,1.07,12.12-.86,18.15-.11,2.28-3.35,3.79-7.24,6.32-10.48,2.5,4.6,1.96,10.04,2.54,15.07,0,9.53,2.52,19.06,1.04,28.59-4.05,3.48-9.1,5.64-13.99,7.71-.01-.97-.01-1.94,0-2.9,6.26-5.63,9.78-15.41,3.97-22.52-3.26-1.03-6.36-3.24-9.95-2.77-7.05,4.62-13.94,10.06-21.88,13.06-18.49.28-36.67-4.14-55.04-5.53-51.65-5.73-179.39,3.9-187.92,12.53-.81-1.87-1.66-3.73-2.7-5.47,25.46-24.25,57.4-42.92,92.52-48.72-17.62-.63-35.02,5.02-51.66,10.46-9.32,4.32-18.02,9.86-26.56,15.51.15-8.56,9.04-13.33,10.99-21.24.49-7.12.3-14.44,2.88-21.21.45-.78.91-1.56,1.41-2.31.06,9.31.8,18.71,3.54,27.66,21.6-8.72,44.73-14.75,68.12-15.22,15.03-1.07,30.06-2.46,45.13-2.61,2.12-.28,5.02-1.3,5.54-3.57-4.66-36.97,4.15-75.98,25.83-106.49ZM552.25,111.26c-8.53,6.68-12.54,17.11-17.63,26.32-7.54,19.52-13.18,40.03-15.11,60.88,7.01,1.43,14.24,2.05,20.87,4.9,2.51.83,6.4,2.86,8.03-.35,13.07-21.75,34.92-35.8,56.15-48.59-1.59-1.52-3.5-2.72-4.78-4.54-11.05-15.37-25.07-28.91-41.98-37.66-1.68-.78-3.8-2.46-5.55-.96ZM382.05,243.49c-1.95,1.42-1.1,4.27,1.45,3.81,34.31-4.1,71.43-10.95,105.99-9.02,24.37.6,84.23,10.11,90.86,8.39-1.77-2.45-5.01-2.99-7.46-4.54-32.82-17.03-68.78-30.46-106.2-30.45-30.39,2.58-60.06,13.81-84.65,31.8Z"/>
        <path class="cls-1" d="M439.61,110.02l.67-.63c-1.5,14.44-.25,28.94.11,43.42.9,11.96,2.41,23.95,6.28,35.35-.01.62-.03,1.25-.06,1.87-4.49-5.79-6.19-13.13-8.37-19.99-6.6-17.95-5.13-37.38-2.53-55.94,1.21-1.45,2.53-2.79,3.9-4.08Z"/>
        <path class="cls-1" d="M312.78,607.2c3.69-2.1,10.32-6.44,13.35-1.6.9,11.18-5.71,21.18-10.35,30.9-1.18,1.57-1.49,4.14-3.48,4.89-2.04-4.62-3.82-9.49-6.84-13.57-2.67-3.58-7.76-1.53-10.21,1.23-7.2,7.52-13.97,15.53-19.4,24.43-1.69,3.47-3.14-2.09-4.47-3.32,10.49-17.06,24.63-31.95,41.4-42.95Z"/>
        <path class="cls-1" d="M169.66,698.87c7.14-33.56,27.42-62.33,49.52-87.81,1.13,3.18,2.39,6.32,3.86,9.37-18.92,18.07-31.86,41.18-44.33,63.89-1.27,3.39-2.98,9.57,1.95,10.71,7.06,2.11,12.73,6.92,19.14,10.27-6.96,7.62-14.13,15.39-23.24,20.48-9.39-5.63-9.9-17.48-6.9-26.9Z"/>
        <path class="cls-1" d="M333.34,621.56c4.51,20.87,9.68,41.66,16.65,61.87,13.48,40.24,27.72,80.28,44.3,119.36,10.93,25.17,20.84,50.81,32.86,75.48,12.07,19.47,26.51,37.33,40.17,55.68-6.14.9-12.32,1.62-18.37,3.03-20.68-28.9-40.41-58.47-59.39-88.52-34.28-53.9-63.12-111.01-96.99-165.15,16.75-18.25,31.44-38.67,40.75-61.76ZM304.95,683.9c-1.28,1.3-1.88,3.09-1.85,4.9,7.97,11.92,17.77,22.82,26.29,34.48,6.29,7.76,10.79,17.03,17.26,24.52-7.25-25.66-19-50.43-20.93-77.35.31-6.86,2.56-13.55,2.54-20.37-8.93,10.42-14.55,23.26-23.32,33.83Z"/>
        <path class="cls-1" d="M230.11,626.91c2.39-1.99,4.65-4.65,7.88-5.1,2.8,5.09.98,11.16-.08,16.51-5.56,21.05-17.42,39.8-30.25,57.14-5.68-4.09-11.73-7.78-18.41-9.99,12.18-20.42,23.2-42.17,40.86-58.56Z"/>
        <path class="cls-1" d="M279.7,663.2c4.14-9.36,11.02-17.19,17.72-24.81,2.41,5.25,4.72,10.53,7.36,15.67-5.25,7.45-11.1,14.56-17.35,21.16-2.5-4.06-5.05-8.09-7.73-12.03Z"/>
        <path class="cls-1" d="M249.03,639.53c9.57,17.51,20.42,34.27,30.8,51.3,18.06,30.13,35.41,60.68,52.29,91.49,30.84,56.77,65.39,111.51,102.8,164.16-9.63,9.43-20.65,17.88-33.65,22.01-7.81,2.66-16.2,2.14-24.32,2.42-28.1-45.98-55.02-92.68-83.77-138.26-11.88-18.44-22.42-37.68-32.42-57.18-3.74-6.87-8.33-15.88-17.47-15.56-15.19.73-27.44,11.14-39.06,19.86-7.63-9.95-15.8-19.51-22.59-30.08-2.52-4.08-5.88-7.52-9.03-11.1,10.14-3.7,18.48-10.92,26.11-18.34,22.02-22.99,40.4-50.31,50.31-80.73ZM184.88,739.31c7.95-2.05,15.63-5.76,23.96-5.97,6.68.67,13.65.96,19.82,3.9,12.48,6.99,24,16.6,30.45,29.61,39.07,64.5,78.34,128.88,117.61,193.25,16.3,3.05,33.62-3.44,46.39-13.69,1.81-1.08-.13-2.95-.77-4.14-53.68-82.27-107.9-164.18-161.95-246.2-5.5-11.94-8.5-24.75-11.37-37.55-12.2,32.77-36.99,59.54-64.13,80.78Z"/>
        <path class="cls-1" d="M218.99,779.33c6.1-3.82,12.6-8.42,20.1-8.21,4.5.24,4.92,5.7,4.44,9.14-1.86,13.79-8.96,26.22-16.81,37.44-7.23,7.2-13.51,15.73-22.51,20.89,5.38-15.3,12.14-30.34,20.55-44.31-11.97,10.43-22.03,22.92-28.82,37.34-5.02-3.58-9.88-7.39-15-10.82,8.78-16.84,22.58-30.65,38.05-41.48Z"/>
        <path class="cls-1" d="M252.28,789.81c.88-.08.99.86,1.36,1.44,8.61,17.48,18.26,34.42,28.66,50.9,26.62,42.6,52.05,85.93,77.58,129.18-7.48.02-14.96.05-22.42.12-3.92-6.14-11.1-9.31-18.08-10.33-11.83-1.58-23.91-.75-35.63-3.15-5.26-5.1-10.12-11.59-17.78-13.03-20.08-32.16-39.82-64.56-60.53-96.29,21.46-13.58,38.46-34.79,46.84-58.84ZM211.26,851.47c5.86,1.79,13.58-.09,17.96,5.28,4.52,5.88,7.88,12.54,11.1,19.2,12.07,23.59,26.31,45.98,38.73,69.37,1.43,2.01,2.1,5.73,5.22,5.5,11.93,1.47,23.92-1.59,35.8.68-3.96-6.58-12.15-10.03-15.5-17.32-10.52-19.77-21.63-39.24-31.81-59.19-8.5-14.69-16.51-29.71-22.93-45.42-1.43-7.75,1.97-15.5,1.09-23.21-11.94,15.97-22.55,33.93-39.68,45.11Z"/>
        <path class="cls-1" d="M350.34,1077.32c0-1.36,1.06-2.47,1.6-3.66,18.89,1.41,37.75,4.74,55.63,11.1,10.32,5,20.39,10.67,31.21,14.54,11.5,14.32,22.03,29.17,32.95,43.74,1.75,1.38,2.8,3.75.61,5.32-16.38,17.17-41.06,22.32-63.86,23.65-2.9-.92-6.17-2.07-7.74-4.88-6.51-11.97-14.11-23.29-21.12-34.95,1.53-3.69-1.37-6.91-2.96-9.98-8.88-14.9-17.75-29.8-26.31-44.88Z"/>
        <path class="cls-1" d="M521.96,1079.22c.95-3.17,4.86-2.72,7.11-4.53,2.14,2.14,2.69,5.25,4.73,7.42-8.99,11.78-14.36,27.18-27.28,35.64-7.52,5.58-16.03,9.81-25.12,12.14-6.36-8.79-12.79-17.53-19.41-26.12,2.5.45,5.11.81,7.6.07,12.83-3.27,25.86-5.94,38.39-10.29,6.99-1.85,11.2-8.09,13.99-14.33Z"/>
      </g>
      <g>
        <path class="cls-9" d="M436.89,264.21c23.31-6.29,47.59-5.15,71.47-4.81,26.45,3.83,53.26,7.28,78.53,16.26,9.54,13.29,6.83,30.58,6.07,45.9.6,3.87-.12,7.84.8,11.66,8.76-10.15,15.8-21.98,26.59-30.31,4.5-2.61,1.19-8.11.75-12.02-1.13.08-2.26.16-3.37.29,4.96-1.6,11.77,1.17,11.25,7.27.04,11.41-5.88,21.63-7.92,32.69-3.16,11.85-4.87,25.83-16.27,32.92-.96-15.6,4.57-30.71,11.43-44.45,2.98-4.9,6.27-9.71,7.94-15.26-10.4,8.19-18.24,19.29-24.45,30.9-11.31,17.88-6.07,44.51-9.7,64.26-6.07,11.79-9.03,20.26-16.71,31.21.49-.16.99-.32,1.5-.47,5.06-6.46,10.84-12.51,14.87-19.74.06,13.56-.3,27.16.77,40.69-.03,2.15,2.11,3.17,3.81,3.88-3.17,10-9.77,18.43-16.44,26.35-11.73,13.58-23.84,26.97-37.97,38.11-9.25,7.2-18.22,15.2-23.02,26.16-4.01-4.4-7.78-9.04-12.11-13.15-12.19-10.27-31.07-8.16-41.89-20.51-7.64-8.4-13.65-18.15-19.05-28.09,9.08,6.41,19.45,10.69,30.05,13.86,18.07,3.52,37.15.39,53.85-7.09,12.27-7.75,19.4-20.98,27.29-32.72,3.38-6.2,7.87-11.76,10.49-18.38,0,0-15.31,20.01-23.78,27.87-5.43,5.02-9.64,9.29-17.21,11.7-17.96,7.06-39.24,9.66-56.97.53.14-.2.43-.62.58-.83,7.44,1.07,14.72,5.33,22.35,3.55,7.44-3.03,14.17-7.53,21.28-11.23,3.27-1.7,5.54-5.01,5.19-8.79-.12-6.19.61-12.63-1.36-18.6-.45-1.98-2.6-1.38-3.7-.34-9.41,6.81-17.81,15.32-28.45,20.24-3.46,1.78-6.43-1.08-8.55-3.49-6.34-7.56-13.84-14.57-18.69-23.12,11.95,5.92,21.88,3.67,34.73,1.67,4.08-.13,9.74-2.99,12.21-5.43-.01-.47-.03-1.4-.04-1.86,5.69-4.49,11.37-9.9,15.65-15.95,2.64-2.62,6.67-5.38,5.51-9.7-4.08,1.84-7.61,5.14-12.29,5.38-11.49.81-22.99,1.48-34.51,1.84-12.88-.12-25.71,2.13-38.6,1.35-2.16.11-3.35-2.28-5.47-2.21.12-.49.24-.99.4-1.47,7.05,2.37,14.44-.74,21.68,0,20.81-1.32,42.88,1.15,62.12-8.61-5.88-3.29-12.8-4.52-19.36-5.82-10.7,2.51-20.98,7.16-31.99,8.34-7.5-5.04-14.6-10.77-21.63-16.46,6.27,3.57,12.88,7.62,20.42,7.1,1.11.13,1.01-1.09,1.34-1.8-5.48-3.42-9.95-8.13-15.12-11.93,8.14-.9,17.03,5,24.23-.75,6.45-4.33,13.97-6.94,21.82-6.11-3.23-5.39-10.07-8.75-10.41-15.63-1.49-19.13-5.98-37.88-6.55-57.12,14.89-4.44,30.42-6.11,45.83-7.69,8.69-1.66,16.49,2.75,24.34,5.59,2.28-6.26,1.95-13.21,1.49-19.77-.07-3.45-3.88-4.11-6.39-5.22-49.42-16.57-105.36-13.44-152.22,9.57.08-1.2.17-2.39.27-3.58,12.92-8.78,27.77-14.6,43.29-16.61ZM483.13,302.84c3.27,4.65,8.21,9.83,14.49,8.38,16.48-1.05,32.71-7.21,49.32-4.23-4.33-4.65-11-6.81-16.98-8.76-15.77-2.17-31.11,4.37-46.83,4.61ZM499.13,319.54c-2.4,4.1-6.08,7.52-7.63,12.06,6.41,1.41,12.84,6.16,19.8,4.08-.12-.19,8.6-.26,12.91-1.6,5.95-1.05,14.47-.99,20.31-8.32.3-2.39-2.89-3.54-4.19-5.29-4.4-3.37-8.3-8.22-14.19-8.78-9.53-1.79-20.76-.3-27.02,7.85ZM494.73,353.58c7.13,7.5,12.73,17.93,23.02,21.29,5-2.95,11.64-5.06,13.66-11.16,3.21-8.24,7.38-16.54,7.78-25.5-14.17.53-28.85,4-42.78.03-5.9,2.65-6.42,11.21-1.69,15.34ZM477.89,394.07c4.96-2.28,10.43-3.16,15.61-4.84,2.58-.9,6.33-.55,7.59-3.53-7.59-9.47-18.73,1.09-23.2,8.37ZM521.55,396.8c3.42.64,6.77,2.11,9.48,4.27,2.22,2.98,2.03,6.96,2.96,10.43,3.62-2.61,4.94-7.52,7.2-11.28,2.01-3.93-2.81-6.6-6.12-6.7-4.64.33-9.38,1.04-13.53,3.28ZM529.7,506.97c-2.14,3.4-5.97,6.36-5.41,10.82,3.63.48,7.48-.63,10.5-2.67,15.94-15.91,29.74-33.78,43.55-51.54,7.97-9.13,3.31-22.06,2.88-32.87-19.39,23.67-34.56,50.75-51.51,76.26Z"/>
        <path class="cls-9" d="M421.72,310.94c4.02.53,7.92,1.76,11.81,2.89-6.87.82-14.7,2.04-18.97,8.15.65-4.51,4.07-7.96,7.15-11.05Z"/>
        <path class="cls-9" d="M441.3,337.11c6.41-.27,9.99-1.14,13.18-2.81-.37,8.12-1.13,16.23-2.04,24.31-7.43-3.78-14.69-8-22.56-10.8-3.43-2.75-6.46-6.09-8.92-9.74,3.98.67,9.3.57,12.49-.16,0,0,3.53.39,7.86-.8Z"/>
        <path class="cls-9" d="M512.41,932.78c9.85,1.04,11.01,14.54,4.84,20.45-11.91,13.61-31.33,16.9-48.5,15.73-4.43-2.25-9.11-4.1-13.22-6.88-.49-4.31-1.41-8.99,1.21-12.85,11-2.23,22.22-2.93,33.31-4.51,1.19,2.73.83,8.63,5.18,7.87,4.43-.71,9.03-1.41,13.08-3.43,5.32-3.51,4.62-10.84,4.11-16.38Z"/>
        <path class="cls-9" d="M543.59,985.98c3.81-1.63,7.56-3.43,11.21-5.42,3.39,4.12,5.73,10.24,2.81,15.22-5.38,5.67-10.55,12.79-18.77,14.21-13.07,2.87-26.3-.77-39.45-.51-5.06-.17-8.29,4.32-12.21,6.74.39.26.78.52,1.2.78-.32.15-.97.47-1.29.62-.1-.29-.3-.87-.4-1.15-2.98.79-5.95,1.63-9,2.16,2.57-2.92,6.54-4.58,8.3-8.16,1.03-5.65.19-11.47,1.34-17.11,9.66,2.09,19.5,3.07,29.27,4.49,10.37,2.08,19.78-5.06,26.85-11.68l.14-.19Z"/>
        <path class="cls-9" d="M321.9,1002.59c1.42-6.7,4.92-12.8,9.96-17.44,1.38-.06,2.77-.14,4.17-.23-3.9,15.18-4.65,31.73,1.39,46.46,1.76,2.31,5,2.59,7.54,3.64,16.07,4.75,32.73,7.57,48.46,13.43,11.69,5.75,23.31,11.62,35.06,17.23,7.01,3.28,14.87,1.22,22.25.82,5.23-.74,10.71-.8,15.72-2.47.94-3.73-.1-7.59.36-11.37,11.82.28,23.64-.54,35.46-.59,3.7-.76,6.36-3.8,9.16-6.11,6.67.66,13.33,1.52,20.04,1.87-.74,3.27-.56,7-2.47,9.86-10.87,7.69-24.83,5.62-37.34,5.6-6.67-.86-11.04,5.35-14.68,9.95,11.24-2.65,22.93-1.19,34.37-1.46-1.72,3.82-4.16,7.87-8.46,9.1-12.82,4.63-26.22,7.4-39.43,10.64-20.15-.97-39.82-8.08-56.7-18.92-21.24-9.44-44.65-11.58-67.51-13.75-4.45-.46-9.01-.87-12.79-3.52-7.04-16.45-10.12-35.36-4.57-52.73Z"/>
        <path class="cls-9" d="M546.4,1016.29c4.54-3.28,8.02-7.76,12.13-11.52,4.37,6.91,2.29,16.53-3.15,22.25-7.84,5.63-16.27,11.71-26.26,12.22-11.57.46-22.93-2.57-34.48-2.69-4.46-.24-8.31,2.66-11.41,5.54-2.76-.91-5.56-1.84-7.9-3.6-.36-3.08-1.04-6.1-1.59-9.14,15.09-.8,30.18-1.71,45.26-2.74,6.1-.61,11.03-4.72,15.79-8.21,3.9-.27,8.08-.22,11.61-2.11Z"/>
        <path class="cls-9" d="M664.84,1070.91c19.86,11.03,36.23,27.29,55.65,39.02,4.18,1.95,8.07,5.63,13.02,4.82,4.82-.89,10.14-1.44,13.88-4.96,9.39-6.47,18.03-13.9,26.48-21.53,11.53,4.89,20.4,14.25,29.4,22.69,10.43,10.7,20.8,21.87,27.36,35.45-6.13,2.88-11.04,7.64-16.57,11.45-19.06,13.64-38.44,27.17-55.31,43.45-6.31,4.95-14.53,6.36-22.3,6.96-15.38-1.97-30.84-5.88-46.43-4.62-15.56,3.26-30.27,10.49-46.22,11.87-.18-.28-.53-.84-.7-1.12,3.47-.4,6.82-1.48,9.91-3.1,7.94-4,17.36-4.82,24.44-10.52,3.04-2.53,6.57-4.47,9.47-7.17.78-2.94.53-6.04.98-9.03,6.14-1.76,14.56-4.82,15.97-11.69-4.11-8.53-15.61-5.56-23.25-5.64-18.18-1-31.16,14.82-48.83,16.39,13.81-7.59,29.06-13.01,41.59-22.72,1.08-5.39-2.76-10.66-2.42-16.22,10.65-.33,25.68,5.32,32.23-6.29-11.37,2.06-22.47-2.41-33.86-1.87-6.92.28-13.04,3.81-19.11,6.76-12.7,6.52-25.26,13.44-38.67,18.41,16.11-11.18,33.16-21,50.42-30.28-1.53-5.61-4.06-10.9-5.98-16.38-.34-.14-1.01-.4-1.34-.54,3.87-.31,7.81-.52,11.67.12,8.36,2.63,18.05.08,24.58-5.53-14.12,3.32-23.26-11.4-36.45-12.54-14.71.64-28.44,11.32-43.4,7.28,10.28-1.94,19.74-6.7,29.89-9.11,6.05-1.79,12.28-3.28,18.1-5.67,2.38-5.83,2.8-12.49,5.81-18.18ZM699.04,1107.9c3.91,4.64,4.75,10.67,4.85,16.54,3.6-1.35,8.5-4.06,8.5-8.43-1.38-5.81-8.03-8-13.36-8.12ZM708.79,1133.05c3.12,5.16,2.15,11.16,2.01,16.83,5.44-.17,13.33-4.09,11.45-10.69-2.01-5.35-8.53-5.95-13.46-6.14ZM710.15,1159.93c6.49,3.49,3.29,11.23,1.89,16.66,6.53,2.5,14.57-3.99,12.25-11.04-3.08-4.71-9.07-5.16-14.14-5.62Z"/>
      </g>
      <g>
        <path class="cls-8" d="M447.13,296.97c3.07.48,7.29.55,8.87-2.73,3.18-6.13,5.71-12.58,8.19-19.01.8-1.76-1.19-3.29-2.83-2.96-16.33.87-32.45,4.02-48.26,8.1-10.19,1.96-13.07,13.62-16.61,21.78,16.08-6.17,33.63-6.2,50.64-5.18Z"/>
        <path class="cls-8" d="M458.19,319.49c3.49,12.17.93,25.22.94,37.74.59,7.64-4.67,13.7-6.8,20.63,5.05-.87,10.04,2.7,14.94,1.42,3.33-3.01,8.8-4.15,10.68-8.39-3-7.98-7.4-15.7-8.5-24.34-.08-9.01-.82-18.01-1.84-26.95-.26-5.71-6.13-7.96-9.86-11.24,1.51,3.57,1.54,7.44.45,11.13Z"/>
        <path class="cls-8" d="M464.93,420.04c-8.22.19-16.65,1.95-24.73-.17-1.87,1.32-3.59,2.84-5.07,4.58-9-.45-10.65-11.98-9.81-19.08-.37-11.88,11.62-18.78,15.2-29.11-1.12-5.96-3.82-11.64-6.88-16.84-11.22-6.23-23.9-11.09-33.12-20.37-4.24-6.9,4.3-10.25,6.84-15.58,1.7-3.43,5.82-5.44,6.11-9.54-7.1,2.33-16.51,3.92-18.54,12.47,5.63,28.35,9.51,57.13,17.79,84.87,4.53,18.94,19.86,32.2,29.56,48.42,5.34,9.78,14.75,16.57,25.2,20.02.14-.2.43-.62.58-.83-.38-6.14-3.55-11.62-5.09-17.49-1.98-10.55-11.18-17.27-16.04-26.39.91-2.68,2.76-4.84,4.57-6.95,12.39,1.98,24.82-.36,37.21-1.06,5.06-.68,13.04-1.87,12.13-8.79-11.95,1.16-23.99.59-35.92,1.84Z"/>
        <path class="cls-8" d="M437.43,408.92c7.06-1.5,14.32-1.5,21.44-2.6-1.84-4.1-8.62-5.57-12.94-6.95-3.23,2.5-8.02,5.32-8.5,9.55Z"/>
        <path class="cls-8" d="M493.46,399.51c-3.77,2.8-8.4,4.15-12.14,6.94,7.23.2,14.84-1,21.57-3.54-.91-3.39-6.4-3.45-9.44-3.4Z"/>
        <path class="cls-8" d="M473.12,981.23c-7.21-4.72-16.9-5.98-21.9-13.77-4.5-3.87-5.5-10.51-1.06-14.86-5.23,4.08-9.85,8.88-15.16,12.87-10.5,8.58-23.52,13.33-36.55,16.48-17.96,2.51-36.16,2.04-54.25,2.54,1.22,7.36,1.27,14.92,3.04,22.19,1.57,6.27,8.75,7.72,13.89,9.95,9.31,4.79,19.32,8.37,29.66,10.09,13.88,4.33,28.06,8.14,42.58,9.45,6.75,1.03,12.51,5.04,18.7,7.63,3.04.88,7.88-.59,7.69-4.44.54-8.38,7.74-13.89,13.1-19.4,1.45-7.61-3.72-15.64-.15-23.21,8.19-1.12,5.17-11.81.4-15.51Z"/>
        <path class="cls-8" d="M643,1087.9c6-1.05,9.03-8.06,6.65-13.42-14.38,4.5-27.98,11.28-42.66,14.84-3.58.67-3.81,4.69-2.58,7.45,13.59,1.75,25.8-5.69,38.6-8.87Z"/>
        <path class="cls-8" d="M635.52,1126.81c-11.2,7.48-22.13,15.41-34.02,21.81-3.07,1.46-5.39,4.45-4.82,8.03,2.96.53,6.13.83,9.01-.27,10.21-4.55,19.26-11.16,28.64-17.13,4.34-2.53,3.99-8.89,1.18-12.44Z"/>
        <path class="cls-8" d="M659.12,1160.55c.92-3.51-1.94-6.14-3.65-8.81-12.76,6.99-25.92,13.2-39.35,18.76-3.84,1.14-2.36,5.54-.9,8.09l.48-.04c11.99.73,22.06-6.95,32.96-10.74,3.65-1.94,9.62-2.39,10.46-7.27Z"/>
        <path class="cls-8" d="M668.24,1193.93c-7.69,3.98-15.85,7.07-23.29,11.52-2.53,1.33-3.72,4.38-2.69,7.06,7.31-5.31,16.86-6.52,25.13-9.9,3.62-1.44,2.86-6.17.86-8.67Z"/>
        <path class="cls-8" d="M488.1,371.47c.62-3.62-2.88-6.38-5.23-8.56-.43,3.79-.72,11.14,5.23,8.56Z"/>
      </g>
      <path class="cls-11" d="M760.15,711.65l.67-.04c0,3.8,0,7.59,0,11.4l-.67-.05c-.11-3.77-.11-7.54,0-11.31Z"/>
      <path class="cls-12" d="M540.48,1063.37c1.09-3.77-.14-9.1,3.73-11.38-.84,3.91-1.95,7.78-3.73,11.38Z"/>
      <g>
        <circle cx="519.21" cy="324.88" r="10.3"/>
        <circle class="cls-6" cx="519.21" cy="324.88" r="7.78"/>
        <circle class="cls-4" cx="519.21" cy="324.88" r="6.09"/>
        <circle cx="519.21" cy="324.88" r="4.31"/>
        <ellipse class="cls-10" cx="525.75" cy="322.83" rx="2.58" ry="1.5"/>
      </g>
      <g>
        <circle cx="437.43" cy="327.26" r="10.3"/>
        <circle class="cls-3" cx="437.43" cy="327.26" r="7.78"/>
        <circle class="cls-2" cx="437.43" cy="327.26" r="6.09"/>
        <circle cx="437.43" cy="327.26" r="4.31"/>
        <ellipse class="cls-10" cx="443.97" cy="325.2" rx="2.58" ry="1.5"/>
      </g>
      <g>
        <path class="cls-10" d="M455.21,122.81c4.75-11.3,11.81-21.79,21.3-29.64-4.95,29.96-7.64,60.71-5.4,90.96,1.87-37.49,8.12-74.78,18.91-110.79-12.69,1.52-24.53,7.67-35.57,13.85-9.42,31.02-7.59,64.1-7.9,96.2,1.08-20.36,2.66-40.94,8.66-60.58Z"/>
        <path class="cls-10" d="M422.85,130.33c3.8-5.73,8.37-11,12.86-16.23,1.21-1.45,2.53-2.79,3.9-4.08.15-.14.45-.43.6-.58.12-1.24.26-2.48.39-3.72-3.25,3.74-7.59,6.25-11.32,9.48-12.39,9.29-21.11,22.42-28.3,35.89-7.55,13.51-13.21,27.93-18.59,42.39.45-.78.91-1.56,1.41-2.31,2.11-3.23,4.08-6.54,6.24-9.74.16,7.01-.39,14.05.53,21.02,7.2-5,14.89-9.33,21.43-15.23,2.5-19.16,6.15-38.18,10.85-56.9Z"/>
        <path class="cls-10" d="M556.44,117.48c-9.98,10.34-16,23.83-22.53,36.48,11.31-9.83,23.64-19,38.01-23.78-3.55-5.89-9.73-9.32-15.48-12.7Z"/>
        <path class="cls-10" d="M451.19,220.25c-17.34,2.65-33.05,10.9-48.84,18.03,13.67-3.59,27.44-7.37,41.73-7.37,29.69-2.88,59.62-1.03,88.97,3.93-6.87-5.85-16.55-7.34-25.06-9.84-18.54-4.21-37.79-8.07-56.8-4.75Z"/>
      </g>
      <g>
        <path d="M461.48,73.39c12.07-4.97,24.4-11.72,37.92-10.04,17.08.6,34.07,4.8,49.04,13.1,4.45,2.36,5.43,7.87,8.57,11.23,13.44,5.49,25.89,13.29,36.66,23.01,8.56,8.49,17.13,16.96,25.66,25.49,7.17,8.48,9.88,19.46,13.44,29.74,3.89,13.27,6.71,26.9,9.78,40.34,6.57,3.62,7.64,11.69,7.99,18.5.39,12.89,3.49,25.79,1.4,38.67-1.62,8.46-9.01,14.16-16.46,17.49,9.95,6.5,6.14,20.42,3.44,29.9-4.82,13.61-7.03,27.96-11.97,41.53-4.71,10.1-13.13,17.99-22.28,24.05-2.07,16.68-1.93,33.51-1.83,50.29,6.11.45,11.02,4.72,13.82,9.95,7.08,12.72,11.81,26.63,18.95,39.31,4.93,5.51,10.75,11.08,18.21,12.7,39.49,12.96,78.79,26.77,117.09,42.93,1.62-.7,21.9,10.05,30.07,15.41,4.59,2.91,6.46,8.24,9.34,12.58,6.55,10.02,15.09,18.51,23.46,27,26.16,28.74,51.97,59.9,74.06,91.96,6.86,9.68,13.66,17.43,20.29,27.27,3.55,5.54,9.89,8.21,14.1,13.11,5.75,6.63,6.65,15.85,11.39,23.09,14.72,22.96,29.92,45.68,47.21,66.8,9.85,13.65,12.18,21.61,20.58,40.01,6.3,12.6,13.78,26.74,11.86,39.4-3.82,25.98-9.27,57.76-22.08,71.11-6.95,9.37-13.39,19.11-20.29,28.52-8.31,11.81-17.71,22.86-25.27,35.2-4.43,7.43-10.67,13.51-16.74,19.55-12.62,21.1-30.5,38.9-40.46,61.56-6.22,10.67-18.86,13.42-29.46,17.66-10.63,13.11-17.69,29-29.19,41.5-2.62,4.34-6.61,9.2-12.3,8.35-6.96.82-13.34-3.7-20.18-2.76-42.09,31.15-54.03,51.72-79.04,48.88-14.71-1-29.15-5.32-43.96-5.06-15.66,3.95-30.71,10.88-46.97,12.18-6.77.5-14.69-1.68-17.71-8.36-36.61,7.18-74.02,8.37-111.22,8.78-57.86-.95-116.03-4.14-172.62-16.99-21.37-5.56-43.05-10.09-63.93-17.38-2.72-1.5-6.42,1.25-8.63-1.52-6.35-9.8-16.06-18.16-18.43-30.04.58-9.93,10.53-16.41,11.91-26.18-.18-7.21-4-14.15-2.56-21.44,1.72-7.44,4.11-14.79,4.74-22.44-7.13,4.96-17.56,6.09-24.34-.09-24.25-11.98-51.57-14.94-77.37-22.16-14.04-4.35-28.62-6.6-42.73-10.56-12.28-3.64-17.13-16.42-22.51-26.69-5.41-4.82-13.94-6.3-17.46-13.36-5.17-7.85-.78-17.8-5.29-25.75-2.14-5.06-3.38-10.43-5.07-15.64-5.57-5.37-13.11-10.48-13.79-18.89.24-7.2,3.99-13.68,6.33-20.36,11.91-38.06,24.69-75.93,40.11-112.74,11.22-26.68,23.96-52.69,36.43-78.8,3.32-6.07,2.49-13.2,3.33-19.83-1.07-15.47,2.43-30.78,7.83-45.18,8.76-24.9,22.64-47.98,40.69-67.26,13.86-17.5,29.89-33.12,45.28-49.21,5.8-10.45,19.53-7.75,28.79-12.72,43.23-20.03,87.24-34.22,131.26-52.32.64-8.06,6.8-15.72,8.55-23.46,2.58-7.71,1.31-18.42,9.92-22.48-2.33-3.48-7.87-13.27-10.04-16.85-10.2-12.83-22.51-70.49-32.31-153.34-5.94-.57-13.77-2.66-19.65-3.53-6.74-1.31-8.76-8.75-11.47-14.07-2.72-7.08,3.01-13.02,7.65-17.51,2.79-4.4,1.32-10.16,3.64-14.78,3.55-6.67,9.42-11.79,13.09-18.33.17-6.8-.61-13.88,1.64-20.48,10.91-28.37,25.2-63.65,48.24-84.56,7.84-6.86,16.25-9.33,20.96-19.08,4.16-9.42,12.16-11.55,20.88-15.9ZM454.45,87.18c-9.42,31.02-7.59,64.1-7.9,96.2-.1,1.59.15,3.18.11,4.77-3.87-11.4-5.38-23.39-6.28-35.35-.36-14.47-1.61-28.97-.11-43.42l-.67.63c.15-.14.45-.43.6-.58.12-1.24.26-2.48.39-3.72-3.25,3.74-7.59,6.25-11.32,9.48-12.39,9.29-21.11,22.42-28.3,35.89-7.55,13.51-13.21,27.93-18.59,42.39-2.58,6.77-2.39,14.09-2.88,21.21-1.94,7.9-10.83,12.68-10.99,21.24,8.54-5.66,17.24-11.19,26.56-15.51,16.64-5.44,34.04-11.09,51.66-10.46-35.12,5.81-67.06,24.47-92.52,48.72,1.05,1.75,1.9,3.6,2.7,5.47,8.53-8.63,108.9-22.45,160.55-16.72,18.38,1.39,63.92,10,82.41,9.73,7.94-3,14.83-8.44,21.88-13.06,3.58-.47,6.69,1.74,9.95,2.77,5.81,7.12,2.28,16.89-3.97,22.52-.01.96-.01,1.93,0,2.9,4.88-2.07,9.94-4.23,13.99-7.71,1.48-9.52-1.05-19.05-1.04-28.59-.58-5.04-.04-10.47-2.54-15.07-6.7-2.44-14.84-1.58-21.47,1.05l-.03.12c-7.68,6.29-9.14,21.24-21.59,20.58-27.3-11.29-53.86-26.76-83.94-29.55,21.16-.03,41.72,6.42,61.34,13.77,6.92,2.05,13.3,6.85,20.59,7.09,6.35-5.19,7.49-15.26,15.19-19.35,7.27-3.21,15.41-4.31,23.31-3.56-4.5-18.54-8.37-37.42-16.05-54.97-2.9-7.93-9.98-12.94-15.39-19-5.63-5.06-10.24-11.15-16.1-15.96-10.02-9.72-22.55-16.09-34.78-22.52-4.58,7.42-8.48,15.2-12.23,23.06-13.9,24.61-21.73,52.74-21.43,81.09-3.09-18.91-1.71-38.42,2.76-57,5.7-19.23,14.04-37.56,23.78-55.04-.9-1.69-1.68-3.53-3.16-4.8-14.77-8.58-31.98-11.98-48.92-12.59-12.69,1.52-24.53,7.67-35.57,13.85ZM436.89,264.21c-15.52,2.01-30.37,7.84-43.29,16.61-.1,1.19-.19,2.38-.27,3.58-1.04,14.05-1.54,28.18,1.6,41.98,5.63,28.35,9.51,57.13,17.79,84.87,4.53,18.94,44.31,64.99,54.76,68.45,17.72,9.13,36.1,4.83,54.06-2.23,7.58-2.41,27.45-16.75,43.91-37.87-2.63,6.61-7.11,12.17-10.49,18.38-7.89,11.74-15.02,24.97-27.29,32.72-16.7,7.48-35.77,10.61-53.85,7.09-10.6-3.17-20.97-7.44-30.05-13.86,5.4,9.95,11.41,19.69,19.05,28.09,10.82,12.35,29.7,10.24,41.89,20.51,4.33,4.11,8.1,8.75,12.11,13.15,4.79-10.96,13.77-18.97,23.02-26.16,14.14-11.14,26.24-24.53,37.97-38.11,6.67-7.91,13.27-16.35,16.44-26.35-1.7-.71-3.84-1.73-3.81-3.88-1.07-13.54-.71-27.13-.77-40.69-4.03,7.23-9.8,13.28-14.87,19.74-.51.15-1.01.31-1.5.47,7.68-10.95,10.37-19.03,14.77-33.9,4.4-14.87.33-43.69,11.63-61.57,6.21-11.61,14.05-22.7,24.45-30.9-1.68,5.55-4.96,10.36-7.94,15.26-6.86,13.74-12.39,28.85-11.43,44.45,11.4-7.09,13.11-21.07,16.27-32.92,2.04-11.05,7.96-21.28,7.92-32.69.52-6.1-6.3-8.86-11.25-7.27-8.34,8.08-16,17.18-21.59,27.45-.7,1.31-1.11,3.66-3.18,2.92.77-15.32,3.47-32.61-6.07-45.9-25.26-8.98-52.08-12.43-78.53-16.26-23.88-.34-48.16-1.48-71.47,4.81ZM604.7,436.92c1,4.34,2.14,8.66,3.1,13.02,1.51,6.88-2.71,13.08-5.66,18.94-15.47,23.12-35.26,43.21-56.86,60.66-13.74,10.31-17.96,27.82-25.72,42.29-1.66,9.3-10.2,14.82-14.98,22.41,1.52,5.92,6.58,10.85,5.85,17.3-.96,28.19-4.14,56.24-5.79,84.38-.84,9.17,6.96,15.84,8.64,24.47,3.66,15.7,3.02,31.99,4.02,47.99,1.56,24.55.11,49.13.3,73.69.34,23.26,2.69,46.48,2.45,69.73.22,2.84-.12,5.67-.16,8.52,8.44,3.27,16.09,11.37,15.41,20.93-1.5,12.05-9.58,22.55-19.45,29.21,1.38,3.98,5.53,4.08,9.09,4.24,9.1,1.79,17.27-2.98,24.98-7.06,4.12-2.54,9.31-.43,12.01,3.16,6.95,9.93,13.58,22.52,8.5,34.78,1.57,2.67,3.31,5.53,2.91,8.79-1.38,10.98-5.85,22.63-15.84,28.5-1.21,10.72-4.96,21.1-11.54,29.71-.98,19.32-9.67,38.53-24.35,51.38-4.47,9.92,5.06,18.78,3.96,28.85-.77,17.96-4.24,35.65-5.97,53.52-.82,3.01-.27,6.34-1.79,9.14,36.81-.3,73.81-1.53,110.03-8.63,2.03-7.36,9.87-10.17,16.01-13.26,11.76-5.46,23.66-10.89,35.14-16.77-4.93-.37-9.08,2.54-13.29,4.62-11.26,6.07-23.17,11.37-35.86,13.54-5.55,1.98-11.51.15-16.95-1.34-9.76-3.14-15.35-13.42-15.7-23.24-8.28-3.1-16.46-10.9-14.37-20.54.92-5.16,5.55-8.38,9.88-10.65,13.6-7.17,25.8-16.62,39.04-24.41-14.08,4.26-29.95-2.14-36.9-15.11-2.82-5.15-5.1-11.84-1.92-17.33,2.83-4.6,8.7-5.02,13.38-6.49,15.65-5.02,30.76-11.87,46.85-15.47,8.94-2.32,18.03,1.12,25.66,5.67,15.51,8.57,30.01,18.81,44.17,29.41,2.19,1.75,4.99,2.48,7.68,3.09.32-5.11,1.41-10.23.86-15.35-1.31-6.34-5.75-12.63-3.04-19.25,3.6-8.62,11.88-16.25,9.79-26.4-2.77-7.15-6.23-14.25-7.05-21.97-.29-7.96,2.26-15.66,4.4-23.21.7-25.42.8-50.94-1.12-76.34-.36-5.02-.68-10.11.09-15.1,1.75-10.62,7.79-20.16,8.66-30.94-1.04-15.07-11.46-28.34-9.41-43.95.81-25.58,3.65-51.04,4.47-76.61.72-23.78,1.53-47.56,3.27-71.28,3.88-28.3,12.44-45.22,23.75-57.08-3.33,11.46-8.45,22.51-9.88,34.45-3.23,42.08-1.94,84.37-4.59,126.48,8.37-2.03,17.14-.81,25.41,1.17,6.23,1.75,13.46,3.5,16.87,9.63,6.77,11.23,14.69,21.67,22.69,32.04,11.74,13.79,25.04,26.17,36.68,40.04.27.02.81.07,1.09.09,3.05,5.31,5.09,11.03,6.94,16.86,2.25,4.65,8.48,2.87,12.49,4.5.75-8.8.99-17.65,2.19-26.41,1.15-5.18,5.14-8.97,8.19-13.08,8.58-11.21,18.28-21.47,28.03-31.65,3.96-3.85,7.48-9.08,13.51-9.47-.93,2.5-2.57,4.6-4.27,6.62-14.66,19.86-28.56,41.8-31.76,66.77,1.38,2.16,3.33,3.84,5.05,5.72,19.11-11.68,41.46-16.49,63.45-19.11,3.9-.07,8.4-1.69,11.87.76-1.21,1.69-3.55,1.18-5.31,1.79-22.63,6.02-44.59,15.24-63.63,29.03-5.7,3.4-9.2,9.14-13,14.36-.59,7.62-6.26,13.21-10.36,19.17-9.73,13.07-17.85,27.42-29.35,39.1-12.09,14.52-22.95,30.02-35.19,44.43-2.89,3.32-6.84,5.93-8.58,10.11-.86,5.54,1.16,11.35-.89,16.77l-.1-.09c-7.37,10.77-16.67,20.15-24.69,30.46-1.71,1.88-3.59,3.68-4.69,6.01,5.72-2.55,11.59.64,16.39,3.67,11.74,7.63,21.79,17.52,31.5,27.53,11.6,11.65,21.21,25.47,26.89,40.97,6.75-10.4,12.94-21.18,20.28-31.19,5.49-7.51,15.24-9.14,23.39-12.32,6.9-2.45,7.55-10.78,11.27-16.17,11.6-18.37,26.31-34.74,37.67-53.2,8.05-5.59,13.37-14.14,18.66-22.22,12.83-18.59,26.87-36.32,39.39-55.13,3.13-5.25,8.15-9.16,10.67-14.78,7.57-21.21,13.68-43.78,11.98-66.51-.2-4.84-2.82-9.1-5.2-13.16-6.92-11.21-11.87-23.44-17.8-35.16-16.01-19.13-30.87-39.22-44.46-60.14-6.07-9.54-13.29-18.57-16.95-29.41-1.81-5.33-4.44-10.68-9.27-13.89-7.2-4.53-11.9-11.68-16.27-18.76-25.73-41.26-58.22-77.66-90.81-113.54-10.04-10.24-18.95-21.64-25.61-34.37-5.89-5.98-13.69-9.77-20.45-14.71-13.05-4.88-26.62-9.29-38.89-15.73-27.15-10.14-54.3-20.32-81.83-29.42-9.44,13.06-20.56,24.77-30.78,37.2-17.47,19.82-33.37,41.09-46.35,64.15-2.66,5.86-11.9,9.04-16.47,3.76-6.14-13.36-11.65-27.12-15.38-41.38-7.28,11.91-13.16,24.69-17.7,37.89.07-4.94,1.72-9.74,2.69-14.57,4.66-17.77,9.93-36.2,21.35-50.91,2.17,2.17,1.87,5.46,2.61,8.23,2.62,15.69,8.45,30.58,14.8,45.08,19.84-35.05,49.3-63.14,72.95-95.4-6.44-5.25-13.36-10.44-17.24-18.01-5.75-11.3-10.46-23.09-15.75-34.6-1.05-1.8-1.57-4.5-4.13-4.58ZM421.32,471.25c-1.41,8.35-3.71,16.62-8,23.98,1.05,5.42.01,11.02.97,16.46,5.03,28.85,10.99,57.83,22.66,84.83.75-1.72,1.66-3.36,2.34-5.12,8.09-15.28,14.47-31.5,23.38-46.29,3.94-.81,7.89-1.68,11.91-2.02,7.79,11.82,15.88,23.49,22.62,35.95-8.54-8.31-17.56-16.23-27.62-22.69-5.51,11.09-10.71,22.33-16.38,33.34-5.57,10.34-8.59,21.78-13.32,32.49-.96,2.13-3.57,1.76-4.4-.26-18.4-27.35-26.32-60.06-31.88-92.13-1.04-6.83-2.55-13.65-2.66-20.58-4.61,1.89-9.3,3.57-13.99,5.24-36.31,14.38-73.41,26.91-108.63,43.91-6.79,3.46-14.41,4.45-21.67,6.48-.35.91-1.24,1.55-1.6,2.41-9.36,9.71-19.41,18.8-28.7,28.61,2.98,5,5.7,10.27,8.01,15.61,4.64-2.47,11.79-3.9,15.15,1.28,4.55,10.45,11.51,19.66,17.08,29.6,11.86-18.11,27.25-34.06,45.5-45.77,6.08-3.58,13.96-7.39,20.86-3.87,8.89,6.88,10.58,18.63,13.09,28.88,6.39,29.12,16.27,57.3,26.37,85.29,18.76,54.43,41.89,107.2,65.55,159.64,13.51,23.08,31.19,43.36,46.59,65.16,9.04.02,13.53-8.51,20.39-12.57.38-17.2-1.29-34.34-1.78-51.52-2.36-29.67-.05-59.44-1.45-89.14-.86-17.02-.55-34.13-2.77-51.04-.94-8.01-6.58-14.57-7.28-22.59-.12-30.55,4.12-60.97,4.9-91.51-1.11-6.21-6.96-11.72-4.85-18.38,3.61-8.11,12.12-13.07,15.44-21.29-5.22-10.45-9.48-21.61-17.09-30.64-4.68-4.44-11.59-4.87-16.92-8.21-12.55-3.93-20.33-15.46-27.4-25.79-8.72-13.7-16.81-28.01-21.56-43.62-2.15,1.19-2.78,3.54-2.88,5.85ZM312.78,607.2c-16.76,11-30.9,25.89-41.4,42.95,1.32,1.22,2.77,6.79,4.47,3.32,5.43-8.9,12.2-16.91,19.4-24.43,2.45-2.76,7.55-4.81,10.21-1.23,3.02,4.08,4.8,8.95,6.84,13.57,1.99-.75,2.29-3.32,3.48-4.89,4.64-9.72,11.25-19.71,10.35-30.9-3.03-4.84-9.66-.49-13.35,1.6ZM188.05,644.35c-11.56,20.22-21.95,41.94-24.81,65.3-1.76,5.39-1.06,11.77,2.53,16.27,2.89,3.2,7.54,1.53,10.79-.14,9.11-5.08,16.27-12.86,23.24-20.48-6.41-3.36-12.08-8.16-19.14-10.27-4.93-1.14-3.22-7.31-1.95-10.71,12.47-22.72,25.41-45.82,44.33-63.89-1.46-3.05-2.72-6.19-3.86-9.37-.39-1.18-.85-2.34-1.3-3.48-12.5,9.88-21.73,23.2-29.83,36.77ZM333.34,621.56c-9.32,23.08-24,43.51-40.75,61.76,33.87,54.14,62.71,111.25,96.99,165.15,18.98,30.05,38.71,59.62,59.39,88.52,6.05-1.41,12.23-2.13,18.37-3.03-13.66-18.35-28.1-36.21-40.17-55.68-12.02-24.68-21.94-50.31-32.86-75.48-16.58-39.08-30.83-79.12-44.3-119.36-6.97-20.21-12.14-41-16.65-61.87ZM230.11,626.91c-17.66,16.39-28.68,38.13-40.86,58.56,6.68,2.21,12.73,5.91,18.41,9.99,12.83-17.34,24.69-36.09,30.25-57.14,1.06-5.34,2.89-11.42.08-16.51-3.23.45-5.5,3.11-7.88,5.1ZM279.7,663.2c2.68,3.94,5.23,7.97,7.73,12.03,6.25-6.61,12.1-13.71,17.35-21.16-2.63-5.14-4.95-10.43-7.36-15.67-6.7,7.62-13.59,15.45-17.72,24.81ZM249.03,639.53c-9.91,30.42-28.29,57.74-50.31,80.73-7.64,7.42-15.97,14.64-26.11,18.34,3.14,3.58,6.51,7.03,9.03,11.1,6.79,10.56,14.96,20.13,22.59,30.08,11.62-8.72,23.87-19.13,39.06-19.86,9.14-.33,13.74,8.69,17.47,15.56,10.01,19.5,20.55,38.74,32.42,57.18,28.75,45.58,55.67,92.29,83.77,138.26,8.12-.29,16.51.23,24.32-2.42,12.99-4.14,24.02-12.58,33.65-22.01-37.41-52.65-71.97-107.39-102.8-164.16-16.87-30.81-34.23-61.36-52.29-91.49-10.37-17.03-21.22-33.79-30.8-51.3ZM120.1,819.48c-14.55,34.25-26.59,69.51-37.95,104.92-2.17,8.47-5.99,16.38-8.78,24.65-2.22,9.86,14.44,14.06,10.09,23.77,1.69,6.92,5.01,13.28,6.96,20.11,1.52,4.89-.31,10.18,1.11,15.03,3.97,4.12,10.17,5.07,14.2,9.16,6,6.35,7.33,15.84,13.81,21.82,4,3.27,9.32,4.11,14.21,5.24,15.5,2.96,30.61,7.55,45.88,11.43,17.7,3.93,35.61,7.47,52.45,14.4,6.41,2.51,13.19,4.41,18.64,8.82,5.28,4.82,10.27-3.54,15.83-4.17,18.63-3.86,36.84,4.86,55.3,6.19-9.48-13.41-14.23-29.56-16.86-45.61-2.35-15.39-2.43-31.49,2.4-46.43,1.93-7.57,7.71-13.36,14.75-16.41-9.95-.72-19.99-.83-29.89-1.82l-.03-.2c-4.73-.5-9.77-1.21-13.55-4.35-4.73-3.09-7.19-10.39-13.62-9.97-9.76,1.21-19.89.53-28.83-4.08-8.69-4.38-14.16-13.06-22.37-18.08-17.09-5.64-35.51-3.41-52.76.3,15.17-7.26,31.48-12.52,48.29-14.1,5.04-1.08,9.14,2.86,12.62,5.91,2.84-1.97,5.32-4.62,6.67-7.83-1.1-3.48-4.72-4.96-7.15-7.36-11.68-8.73-9.16-25.28-15.25-37.19-4.32-7.91-9.28-15.44-14.22-22.96-1.03-1.85.27-3.78.72-5.58-7.87-4.97-14.5-11.88-22.36-16.57-.75-4.53,1.56-8.67,3.58-12.53,5.37-9.54,12.23-18.18,19.79-26.07-7.96-10.04-16.04-20.01-23.11-30.72-4.22-6.02-9.23-12.31-14.73-16.76-12.28,25.42-24.73,51.02-35.85,77.06ZM218.99,779.33c-15.47,10.83-29.27,24.63-38.05,41.48,5.12,3.43,9.98,7.24,15,10.82,6.79-14.41,16.85-26.9,28.82-37.34-8.41,13.97-15.18,29.01-20.55,44.31,9.01-5.16,15.29-13.69,22.51-20.89,7.85-11.22,14.96-23.65,16.81-37.44.48-3.44.07-8.89-4.44-9.14-7.5-.21-14,4.38-20.1,8.21ZM252.28,789.81c-8.38,24.05-25.38,45.26-46.84,58.84,20.72,31.73,40.45,64.13,60.53,96.29,7.66,1.44,12.52,7.93,17.78,13.03,11.72,2.4,23.8,1.57,35.63,3.15,6.98,1.02,14.16,4.19,18.08,10.33,7.47-.07,14.94-.1,22.42-.12-25.53-43.26-50.96-86.59-77.58-129.18-10.39-16.48-20.05-33.42-28.66-50.9-.37-.58-.48-1.52-1.36-1.44ZM750.03,798.78c-.4,10.07-1.25,20.17-.51,30.24,1.54,11.88,8.88,22.32,9.34,34.44.49,14.91-10.54,27.74-8.81,42.76.86,11.14,1.15,22.31,1.66,33.47,1.53,2.61.55,5.83.63,8.72-.89,10.49.78,21.4-2.94,31.47-2.1,9.9-3.1,20.02-3.78,30.11-.39.36-.77.73-1.13,1.12,1.87,7.54,6.02,14.25,8.17,21.66,1.95,11.4-6.43,20.71-11.02,30.31.08,3.36,1.91,6.38,2.9,9.54,2.48,6.04,1.39,12.69.99,19,7.29-5.36,15.06-10.91,19.46-19.01,8.34-10.56,17.23-20.68,25.94-30.94.04-5.69-1.79-11.66.64-17.12,3.07-7.88,10.3-12.79,15.32-19.28,13.24-15.73,24.73-32.95,39.15-47.65,8.92-11.95,16.59-24.82,25.76-36.61,5.21-5.86.07-13.87,1.75-20.69-5.76.51-12.4,1.4-17.51-1.87-6.45-5.44-4.62-15.32-10.25-21.29-11.55-13.75-25.38-25.41-36.7-39.37-7.43-9.53-14.78-19.14-21.09-29.46-1.56-2.12-2.59-4.97-5.22-5.97-10.27-4.19-21.84-6.39-32.75-3.58ZM237.69,925.84c-1.2,3.51-3.51,6.49-6.21,8.98,4.52,4.8,10.91,7.15,17.14,8.8-3.71-5.89-7.24-11.89-10.93-17.78ZM490.05,944.71c-11.09,1.58-22.32,2.28-33.31,4.51-2.38.68-4.67,1.78-6.58,3.38-5.23,4.08-9.85,8.88-15.16,12.87-10.5,8.58-23.52,13.33-36.55,16.48-17.96,2.51-36.16,2.04-54.25,2.54-2.74.02-5.46.23-8.18.43-1.4.1-2.79.17-4.17.23-5.04,4.63-8.54,10.74-9.96,17.44-5.56,17.36-2.47,36.28,4.57,52.73,3.78,2.64,8.34,3.05,12.79,3.52,22.86,2.17,46.27,4.31,67.51,13.75,16.88,10.84,36.55,17.95,56.7,18.92,13.21-3.24,26.61-6.01,39.43-10.64,4.3-1.22,6.74-5.28,8.46-9.1-11.44.27-23.13-1.19-34.37,1.46,3.64-4.59,8.01-10.81,14.68-9.95,12.51.02,26.48,2.09,37.34-5.6,1.91-2.86,1.73-6.59,2.47-9.86-6.71-.34-13.37-1.21-20.04-1.87-9.55-1.08-19.17-1.52-28.77-1.43-2.1,0-.23-1.91.57-2.44,3.1-2.88,6.95-5.79,11.41-5.54,11.54.12,22.91,3.16,34.48,2.69,9.99-.51,18.43-6.6,26.26-12.22,5.44-5.72,7.52-15.34,3.15-22.25-4.11,3.76-7.59,8.24-12.13,11.52-3.53,1.89-7.71,1.84-11.61,2.11-11.15.22-22.2-1.55-33.1-3.7-4.5-.2-9.04.94-13.3,2.3-.42-.26-.81-.52-1.2-.78,3.92-2.42,7.15-6.9,12.21-6.74,13.14-.27,26.38,3.37,39.45.51,8.22-1.42,13.39-8.54,18.77-14.21,2.92-4.99.58-11.1-2.81-15.22-3.65,1.98-7.39,3.78-11.21,5.42l-.14.19c-14.98,3.76-30.53-1.1-45.3-3.96-10.31-3.1-19.8-8.46-29.41-13.26,17.17,1.17,36.59-2.12,48.5-15.73,6.17-5.91,5.01-19.41-4.84-20.45-1.19-.35-2.38-.62-3.58-.85-5.66,5.04-11.81,9.74-18.78,12.79ZM540.48,1063.37c1.78-3.6,2.89-7.47,3.73-11.38-3.87,2.28-2.64,7.61-3.73,11.38ZM649.65,1074.48c-14.38,4.5-27.98,11.28-42.66,14.84-3.58.67-3.81,4.69-2.58,7.45,1.34,3.03,3.62,5.65,6.64,7.1,14.97,4.04,28.7-6.64,43.4-7.28,13.2,1.14,22.33,15.86,36.45,12.54-6.53,5.61-16.22,8.15-24.58,5.53-3.86-.64-7.8-.43-11.67-.12-6.27,4.25-12.79,8.12-19.13,12.28-11.2,7.48-22.13,15.41-34.02,21.81-3.07,1.46-5.39,4.45-4.82,8.03,1.54,6.04,9.89,8.96,14.87,5.09,13.42-4.97,25.97-11.9,38.67-18.41,6.07-2.95,12.19-6.48,19.11-6.76,11.39-.55,22.49,3.93,33.86,1.87-6.55,11.61-21.57,5.97-32.23,6.29-5.53,1.43-10.41,4.55-15.5,7.02-12.76,6.99-25.92,13.2-39.35,18.76-3.84,1.14-2.36,5.54-.9,8.09l.48-.04h-.51c3.22,5.91,10.74,6.36,16.61,5.1,17.66-1.57,30.65-17.39,48.83-16.39,7.64.08,19.14-2.89,23.25,5.64-1.41,6.87-9.83,9.92-15.97,11.69-6.67,2.85-13.23,6-19.68,9.33-7.69,3.98-15.85,7.07-23.29,11.52-2.53,1.32-3.72,4.38-2.69,7.06.21.48.65,1.43.86,1.9.17.28.52.84.7,1.12,15.95-1.38,30.66-8.61,46.22-11.87,15.59-1.25,31.05,2.66,46.43,4.62,7.77-.6,15.99-2.01,22.3-6.96,16.87-16.27,36.24-29.8,55.31-43.45,5.53-3.81,10.44-8.57,16.57-11.45-6.56-13.59-16.93-24.76-27.36-35.45-9-8.44-17.87-17.8-29.4-22.69-8.46,7.63-17.09,15.06-26.48,21.53-3.74,3.52-9.06,4.07-13.88,4.96-4.96.81-8.85-2.88-13.02-4.82-19.42-11.73-35.79-28-55.65-39.02-5.23.31-10.25,1.96-15.19,3.57ZM350.34,1077.32c8.56,15.07,17.43,29.98,26.31,44.88,1.59,3.07,4.49,6.29,2.96,9.98,7.01,11.66,14.61,22.99,21.12,34.95,1.57,2.8,4.84,3.96,7.74,4.88,22.8-1.32,47.49-6.48,63.86-23.65,2.19-1.57,1.15-3.94-.61-5.32-10.93-14.57-21.46-29.42-32.95-43.74-10.82-3.87-20.88-9.54-31.21-14.54-17.88-6.37-36.74-9.7-55.63-11.1-.53,1.19-1.6,2.3-1.6,3.66ZM521.96,1079.22c-2.79,6.24-6.99,12.47-13.99,14.33-12.53,4.36-25.56,7.02-38.39,10.29-2.49.75-5.1.38-7.6-.07,6.62,8.59,13.05,17.33,19.41,26.12,9.09-2.33,17.6-6.56,25.12-12.14,12.93-8.47,18.29-23.86,27.28-35.64-2.04-2.16-2.59-5.27-4.73-7.42-2.25,1.81-6.16,1.36-7.11,4.53ZM281.38,1085.28c-.19,7.38-1.93,14.6-3.57,21.77-2.38,8.86,4.52,17.28,2.28,26.17-2.03,7.85-7.39,14.19-10.93,21.34,3.24,10.34,11.4,18.01,16.55,27.28,19.89,6.22,40.24,10.74,60.46,15.71,51.63,12.28,104.76,16.51,157.7,17.64.66-20.37,6.64-40.22,7.64-60.59.45-7.37-5.25-13.75-3.63-21.21-6.61,3.65-13.83,5.99-21.11,7.88-1.15,7.68-7.05,13.48-12.55,18.46-20.19,23.78-63.3,25.95-69.89,24.31-5.64,1.27-9.4-3.45-13.27-6.6-16.75-29.24-33.59-58.34-50.69-87.36-2.98,1.59-6.33,2.5-9.72,2.51-16.61-1.03-32.66-6.63-49.27-7.33Z"/>
        <path d="M483.13,302.84c15.72-.24,31.06-6.79,46.83-4.61,5.98,1.95,12.66,4.12,16.98,8.76-16.61-2.98-32.85,3.18-49.32,4.23-6.27,1.45-11.22-3.73-14.49-8.38Z"/>
        <path d="M398.07,312.87c3.58-5.8,10.05-9.95,16.9-10.62,11.17-1.37,21.97,2.51,32.82,4.4,2.6.61,5.41.74,7.62,2.42-1.97,1.94-4.15,3.64-6.49,5.1,2.98,1.98,6.37,3.26,9.27,5.34,3.49,12.17.93,25.22.94,37.74.59,7.64-4.67,13.7-6.8,20.63-.45,1.21-.83,2.43-1.13,3.68,5.17,3.8,9.64,8.51,15.12,11.93-.33.71-.23,1.93-1.34,1.8-7.55.52-14.15-3.54-20.42-7.1-4-2.51-.21-6.9,1.17-9.85,2.36-6.55,6.39-12.58,6.71-19.72.92-8.07,1.68-16.19,2.04-24.31-3.92,2.16-7.62,2.87-13.18,2.81,6.77-1.64,10.25-3.81,11.95-8.29-5.79-6.33-14.98-9.42-23.44-8.69-6.26.36-10.25,5.67-14.72,9.33,4.38,2.48,7.95,6.27,12.94,7.66,2.05.6,3.18.78,5.41.78-2.76,1.29-8.51.83-12.49.16-5.4-.48-10.17-3.29-13.98-7.02,1.91-3.51,4.91-6.19,7.6-9.07,4.27-6.11,12.1-7.33,18.97-8.15-3.89-1.13-7.79-2.36-11.81-2.89-7.99-1.47-15.91.51-23.65,1.93Z"/>
        <path d="M499.13,319.54c6.26-8.16,17.49-9.65,27.02-7.85,5.89.56,9.79,5.4,14.19,8.78,1.3,1.75,4.49,2.9,4.19,5.29-5.83,7.33-12.54,7.47-20.31,8.32,4.77-2.12,9.32-3.53,12.49-9.66-3.76-1.68-6.42-5.09-10.29-6.55-10.5-2.77-21.79,2.44-28.18,10.85,5.87,6.3,12.94,6.77,13.06,6.96-6.96,2.08-13.4-2.66-19.8-4.08,1.54-4.54,5.23-7.96,7.63-12.06Z"/>
        <path d="M477.89,394.07c4.47-7.28,15.61-17.83,23.2-8.37-1.26,2.98-5.01,2.63-7.59,3.53-5.18,1.68-10.65,2.56-15.61,4.84Z"/>
        <path d="M511.92,411.21c4.68-.24,8.21-3.54,12.29-5.38,1.15,4.32-2.88,7.08-5.51,9.7-5.41,2.82-11.93,1.95-17.84,2.68-11.95,1.16-23.99.59-35.92,1.84-8.22.19-16.65,1.95-24.73-.17-3.43-.9-7.3-3.83-6.86-7.68,2.12-.07,3.31,2.32,5.47,2.21,12.89.77,25.72-1.48,38.6-1.35,11.51-.36,23.02-1.02,34.51-1.84Z"/>
        <path d="M454.48,432.19c12.41,3.37,31.27,4.22,48.56-.71.01.46.03,1.39.04,1.86-2.47,2.44-6.89,7.19-10.97,7.32-12.85,2-24.01,2.36-35.97-3.56-1.97-1.87-.36-2.54-1.66-4.91Z"/>
      </g>
    </g>
  </g>
</svg>