<?xml version="1.0" encoding="UTF-8"?>
<svg id="Layer_1" data-name="Layer 1" xmlns="http://www.w3.org/2000/svg" viewBox="0 0 600 322.5">
  <defs>
    <style>
      .cls-1 {
        font-family: Montserrat-SemiBold, Montserrat;
        font-size: 50px;
        font-variation-settings: 'wght' 600;
        font-weight: 600;
      }

      .cls-1, .cls-2 {
        fill: #ba1c33;
      }

      .cls-3 {
        letter-spacing: -.1em;
      }

      .cls-4 {
        letter-spacing: -.06em;
      }

      .cls-5 {
        letter-spacing: -.07em;
      }

      .cls-6 {
        letter-spacing: -.05em;
      }

      .cls-7 {
        fill: #F7F7FF;
      }

      .cls-8 {
        letter-spacing: -.05em;
      }

      .cls-9 {
        letter-spacing: -.05em;
      }

      .cls-10 {
        fill: #fff;
        stroke: #ba1c33;
        stroke-miterlimit: 10;
        stroke-width: 5px;
      }
    </style>
  </defs>
  <path class="cls-2" d="M252.47,218.77L30.78,99.23l22.65-55.97c3.44-8.49,9.08-15.86,13.59-23.94l232.99,131.75c-4.23,7.47-6.99,14.99-11.86,21.32l-35.67,46.37Z"/>
  <path class="cls-2" d="M94.25,286.02c-2.99,3.83-16.77,19.36-21.27,16.89l-14.02-7.69c-6.81-3.73-.8-23.05,1.51-29.5,9.29-25.94,27.81-59.86,48.61-78.31l-.03-10.77c3.88-6.74,8.35-12.01,11.03-19.43l-11.94,18.09L14.48,124.82l13.31-24.63,225.49,121.63-13.24,24.65-88.45-47.71,9.57-20.45c-10.34-6.22-19.91-12.88-31.16-17.86l29.55,18.17-9.64,20.61-14.05,7.48c-8.82,28.6-22.97,55.44-41.61,79.31ZM77.04,287.49c-.1-1.7-1.86-4.18-3.02-4.38-1-.17-3.12.19-4.14.77-4,2.3-5.49,9.19-1.13,11.24s8.6-2.51,8.29-7.63Z"/>
  <g>
    <path class="cls-10" d="M131.86,143.49v-78.4h38.64c8.74,0,16.42,1.59,23.07,4.76,6.65,3.17,11.83,7.67,15.57,13.5,3.73,5.82,5.6,12.81,5.6,20.94s-1.87,15.03-5.6,20.89c-3.73,5.86-8.92,10.38-15.57,13.55-6.65,3.17-14.34,4.76-23.07,4.76h-38.64ZM158.3,122.88h11.09c3.73,0,7-.71,9.8-2.13,2.8-1.42,4.98-3.53,6.55-6.33,1.57-2.8,2.35-6.18,2.35-10.14s-.78-7.43-2.35-10.19c-1.57-2.76-3.75-4.85-6.55-6.27-2.8-1.42-6.07-2.13-9.8-2.13h-11.09v37.18Z"/>
    <path class="cls-10" d="M223.59,143.49v-61.26h24.08v18.48l-3.92-5.26c1.87-4.78,4.85-8.36,8.96-10.75,4.11-2.39,9.03-3.58,14.78-3.58v22.4c-1.12-.15-2.11-.26-2.97-.33-.86-.07-1.74-.11-2.63-.11-3.81,0-6.93.99-9.35,2.97-2.43,1.98-3.64,5.4-3.64,10.25v27.22h-25.31Z"/>
    <path class="cls-10" d="M294.04,146.29l-26.66-64.06h25.98l18.37,47.71-17.7,16.35ZM288.1,166.34c-3.36,0-6.78-.5-10.25-1.51s-6.25-2.33-8.34-3.98l8.4-17.36c1.27.97,2.71,1.75,4.31,2.35,1.6.6,3.15.9,4.65.9,2.24,0,3.96-.47,5.15-1.4,1.19-.93,2.17-2.33,2.91-4.2l2.58-6.5,1.79-2.46,19.6-49.95h23.97l-25.2,62.5c-2.24,5.6-4.84,9.97-7.78,13.1-2.95,3.14-6.24,5.34-9.86,6.61-3.62,1.27-7.6,1.9-11.93,1.9Z"/>
    <path class="cls-10" d="M359.56,143.49l-21.28-61.26h23.97l16.13,49.73h-11.54l16.91-49.73h21.5l16.13,49.73h-11.2l16.69-49.73h22.18l-21.28,61.26h-24.64l-12.88-39.42h7.39l-13.44,39.42h-24.64Z"/>
    <path class="cls-10" d="M471.45,144.61c-5,0-9.18-.86-12.54-2.58-3.36-1.72-5.9-4.01-7.62-6.89-1.72-2.87-2.58-6.07-2.58-9.58,0-3.96,1.01-7.32,3.02-10.08,2.02-2.76,5.1-4.85,9.24-6.27,4.14-1.42,9.39-2.13,15.74-2.13h12.77v12.21h-8.74c-2.69,0-4.65.43-5.88,1.29-1.23.86-1.85,2.15-1.85,3.86,0,1.42.54,2.6,1.62,3.53,1.08.93,2.56,1.4,4.42,1.4,1.72,0,3.3-.46,4.76-1.4,1.46-.93,2.52-2.41,3.19-4.42l3.25,7.5c-.97,4.55-3.02,7.95-6.16,10.19s-7.36,3.36-12.66,3.36ZM488.81,143.49v-10.86l-1.79-2.91v-20.61c0-2.99-.92-5.26-2.74-6.83-1.83-1.57-4.8-2.35-8.9-2.35-2.76,0-5.56.43-8.4,1.29-2.84.86-5.26,2.04-7.28,3.53l-8.06-16.69c3.58-2.24,7.88-3.96,12.88-5.15,5-1.19,9.89-1.79,14.67-1.79,10.53,0,18.68,2.35,24.47,7.06,5.79,4.7,8.68,12.17,8.68,22.4v32.93h-23.52Z"/>
    <path class="cls-10" d="M523.3,143.49V60.39h25.31v83.1h-25.31Z"/>
    <path class="cls-10" d="M559.81,143.49V60.39h25.31v83.1h-25.31Z"/>
  </g>
  <g>
    <path class="cls-7" d="M131.86,142.99v-78.4h38.64c8.74,0,16.42,1.59,23.07,4.76,6.65,3.17,11.83,7.67,15.57,13.5,3.73,5.82,5.6,12.81,5.6,20.94s-1.87,15.03-5.6,20.89c-3.73,5.86-8.92,10.38-15.57,13.55-6.65,3.17-14.34,4.76-23.07,4.76h-38.64ZM158.3,122.38h11.09c3.73,0,7-.71,9.8-2.13,2.8-1.42,4.98-3.53,6.55-6.33,1.57-2.8,2.35-6.18,2.35-10.14s-.78-7.43-2.35-10.19c-1.57-2.76-3.75-4.85-6.55-6.27-2.8-1.42-6.07-2.13-9.8-2.13h-11.09v37.18Z"/>
    <path class="cls-7" d="M223.59,142.99v-61.26h24.08v18.48l-3.92-5.26c1.87-4.78,4.85-8.36,8.96-10.75,4.11-2.39,9.03-3.58,14.78-3.58v22.4c-1.12-.15-2.11-.26-2.97-.33-.86-.07-1.74-.11-2.63-.11-3.81,0-6.93.99-9.35,2.97-2.43,1.98-3.64,5.4-3.64,10.25v27.22h-25.31Z"/>
    <path class="cls-7" d="M294.04,145.79l-26.66-64.06h25.98l18.37,47.71-17.7,16.35ZM288.1,165.84c-3.36,0-6.78-.5-10.25-1.51s-6.25-2.33-8.34-3.98l8.4-17.36c1.27.97,2.71,1.75,4.31,2.35,1.6.6,3.15.9,4.65.9,2.24,0,3.96-.47,5.15-1.4,1.19-.93,2.17-2.33,2.91-4.2l2.58-6.5,1.79-2.46,19.6-49.95h23.97l-25.2,62.5c-2.24,5.6-4.84,9.97-7.78,13.1-2.95,3.14-6.24,5.34-9.86,6.61-3.62,1.27-7.6,1.9-11.93,1.9Z"/>
    <path class="cls-7" d="M359.56,142.99l-21.28-61.26h23.97l16.13,49.73h-11.54l16.91-49.73h21.5l16.13,49.73h-11.2l16.69-49.73h22.18l-21.28,61.26h-24.64l-12.88-39.42h7.39l-13.44,39.42h-24.64Z"/>
    <path class="cls-7" d="M471.45,144.11c-5,0-9.18-.86-12.54-2.58-3.36-1.72-5.9-4.01-7.62-6.89-1.72-2.87-2.58-6.07-2.58-9.58,0-3.96,1.01-7.32,3.02-10.08,2.02-2.76,5.1-4.85,9.24-6.27,4.14-1.42,9.39-2.13,15.74-2.13h12.77v12.21h-8.74c-2.69,0-4.65.43-5.88,1.29-1.23.86-1.85,2.15-1.85,3.86,0,1.42.54,2.6,1.62,3.53,1.08.93,2.56,1.4,4.42,1.4,1.72,0,3.3-.46,4.76-1.4,1.46-.93,2.52-2.41,3.19-4.42l3.25,7.5c-.97,4.55-3.02,7.95-6.16,10.19s-7.36,3.36-12.66,3.36ZM488.81,142.99v-10.86l-1.79-2.91v-20.61c0-2.99-.92-5.26-2.74-6.83-1.83-1.57-4.8-2.35-8.9-2.35-2.76,0-5.56.43-8.4,1.29-2.84.86-5.26,2.04-7.28,3.53l-8.06-16.69c3.58-2.24,7.88-3.96,12.88-5.15,5-1.19,9.89-1.79,14.67-1.79,10.53,0,18.68,2.35,24.47,7.06,5.79,4.7,8.68,12.17,8.68,22.4v32.93h-23.52Z"/>
    <path class="cls-7" d="M523.3,142.99V59.88h25.31v83.1h-25.31Z"/>
    <path class="cls-7" d="M559.81,142.99V59.88h25.31v83.1h-25.31Z"/>
  </g>
  <text class="cls-1" transform="translate(318.63 188.04)"><tspan class="cls-4" x="0" y="0">c</tspan><tspan class="cls-6" x="26" y="0">ont</tspan><tspan class="cls-3" x="105.75" y="0">r</tspan><tspan class="cls-8" x="121.95" y="0">a</tspan><tspan class="cls-9" x="149.7" y="0">c</tspan><tspan class="cls-5" x="176.45" y="0">t</tspan><tspan class="cls-6" x="194.1" y="0">ors</tspan></text>
</svg>