<?xml version="1.0" encoding="UTF-8"?>
<svg id="Layer_1" data-name="Layer 1" xmlns="http://www.w3.org/2000/svg" viewBox="0 0 2700 3161">
  <defs>
    <style>
      .cls-1, .cls-2 {
        fill: none;
      }

      .cls-2 {
        stroke: #333640;
        stroke-linecap: round;
        stroke-linejoin: round;
      }

      .cls-3 {
        fill: #333640;
      }
    </style>
  </defs>
  <path class="cls-1" d="M1288.15,171.94c.8-.21,1.6-.43,2.41-.63-.8.21-1.6.42-2.41.63Z"/>
  <path class="cls-1" d="M1274.1,308.25c-1.92-.3-3.82-.56-5.72-.81,1.9.25,3.8.52,5.72.81Z"/>
  <path class="cls-1" d="M1311.89,166.47c.97-.19,1.93-.38,2.9-.57-.97.18-1.93.38-2.9.57Z"/>
  <path class="cls-1" d="M1304.65,167.97c.88-.19,1.75-.37,2.63-.56-.88.18-1.76.37-2.63.56Z"/>
  <path class="cls-1" d="M1280.9,173.93c.76-.22,1.53-.43,2.29-.64-.76.21-1.53.42-2.29.64Z"/>
  <path class="cls-1" d="M1649.03,481.02s0,0-.01,0h0s0,0,0,0Z"/>
  <path class="cls-1" d="M1296.6,169.8c.38-.09.76-.19,1.14-.28-.38.09-.76.19-1.14.28Z"/>
  <path class="cls-1" d="M1337.85,162.13c-6.13.84-12.24,1.82-18.33,2.91.81-.15,1.62-.3,2.44-.44,5.28-.91,10.58-1.74,15.9-2.47Z"/>
  <path class="cls-1" d="M1265.69,307.11c-.95-.11-1.9-.23-2.84-.33.94.1,1.89.22,2.84.33Z"/>
  <path class="cls-1" d="M1252.81,305.87c-.12,0-.23-.02-.35-.03.12,0,.23.02.35.03Z"/>
  <path class="cls-1" d="M1259.08,306.4c-.52-.05-1.05-.1-1.57-.15.52.05,1.04.1,1.57.15Z"/>
  <path class="cls-3" d="M2110.16,1270.82c33.67-26.09,31.36-29.5-5.2-7.58l-10.71,6.43,14.56,2.19,1.34-1.04Z"/>
  <path class="cls-3" d="M2038.98,1178.63c30.13-30.09,27.4-33.18-6.09-6.86l-138.6,108.95c10.68,2.29,21.6,5.54,32.72,9.72l111.98-111.81Z"/>
  <path class="cls-3" d="M2402.62,1120.68c-123.29-194.01-297.28-350.09-503.14-451.37-7.24-3.56-14.54-7.01-21.85-10.42l-25.3-9.45c-.55-13.89-3.55-25.11-9.48-31.96-15.38-18.09-30.55-23.56-44.71-21.52.16-2.02.31-4.02.4-6.1,0,0,12.95-144.09,10.42-167.21-2.54-23.12-6.37-46.21-12.01-69.1-5.63-22.89-13.68-45.44-24.23-67.13-10.65-21.78-23.93-42.2-41.88-60.51l-6.9-6.88-6.39-5.52-3.2-2.75-1.39-1.2-.92-.68-1.81-1.34-7.21-5.39c-9.69-7.08-19.79-13.53-30.13-19.41-20.63-11.82-42.48-21.06-64.63-28.71-22.22-7.61-44.84-13.44-67.7-17.81-22.82-4.29-45.87-7.44-68.97-8.68-23.12-1.31-46.26-1.3-69.32.07-46.11,2.71-92.1,10.77-135.72,27.17-21.82,8.26-42.84,18.43-62.15,32.99-5.16,3.59-8.89,7.33-13.3,10.99l-12.39,12.83c-4.21,4.05-7.74,8.65-11.31,13.22-2.49,3.28-5.09,6.47-7.56,9.75l-.21.12s-.13.22-.3.58c-.82,1.09-1.7,2.15-2.44,3.31l-9.48,14.42c-3.24,4.75-5.64,10-8.48,14.95-5.8,9.88-10.08,20.5-14.92,30.79-2.32,5.74-4.47,11.53-6.5,17.39-8.08,1.83-16.09,3.85-23.97,6.22-13.94,4.31-27.93,9.68-40.54,16.35-12.77,6.67-24.34,14.03-35.19,22.24-10.77,8.23-20.61,17.3-28.98,27.54-8.29,10.23-15.22,21.96-17.95,35.23-1.37,6.57-1.48,13.46-.3,19.89,1.22,6.43,3.66,12.38,6.78,17.37,6.3,10.07,14.41,17.11,22.29,22.46,2.8,1.87,5.57,3.54,8.31,5.14,16.31,11.03,43.23,24.54,75.83,32.36-1.26,4.88-6.46,34.94-4.69,40.78.46,1.51.6,2.42,1.34,4.38l1.14,2.7c.26.64.53,1.27.81,1.9l-17.89,4.23c-266.66,62.59-508.49,214.12-682.29,428.04-179.57,221.06-278.48,499.94-278.48,785.28,0,562.03,373.97,1038.28,886.14,1193.14,41.78,16.32,94.28,30.46,158.24,36.7,65.75,10.75,133.16,16.42,201.89,16.42,687.21,0,1246.29-559.07,1246.29-1246.26,0-237.3-66.97-468.13-193.66-667.52ZM1661.31,463.87c-12.82,1.27-28.32,2.95-45.86,3.36-17.37.48-37.24.02-56.14-4.61-4.71-1.14-9.26-2.65-13.44-4.54-2.15-.88-4.15-1.9-6.04-3-2.24-1.36-4.52-2.73-6.79-4.13l-3.83-2.33-3.24-2.32c-2.16-1.59-4.24-2.92-6.57-4.72-4.67-3.47-9.4-7.03-14.2-10.94-19.18-15.46-40.5-33.37-64.4-49.52-23.94-16.25-50.36-30.71-78.01-42.98-.97-.42-1.96-.79-2.91-1.22,1.68-.71,1.23-1.39-1.06-2.04,4.18.32,8.34.66,12.55.96l13.43,1.29,13.19,1.77,26.48,3.62c8.78,1.34,17.45,3.32,26.12,4.93,8.73,1.63,17.47,3.16,25.96,5.58l25.61,6.57,24.94,8.35c8.45,2.46,16.22,6.46,24.3,9.7l12,5.11,11.55,5.99c7.59,4.16,15.58,7.58,22.64,12.56,7.16,4.8,14.69,9.04,21.57,14.21l19.77,15.39,30.92,31.9c-2.71.33-5.54.69-8.54,1.03ZM1204.96,364.91c18.29-4.78,38.57-9.61,59.64-13.81.69.14,1.41.21,2.11.36,1.62.3,3.22.59,4.73.95l2.29.51,1.81.46c.95.19,3.22.95,4.85,1.43-.94-.28-.09,0-.21-.05l.31.12.62.23,1.28.46,2.52.91c6.74,2.43,13.48,4.86,20.2,7.26,13.29,5.11,26.52,10.24,39.22,16.07,25.63,11.27,49.76,24.19,72.29,38.25,11.18,7.27,22.19,14.41,32.84,22.04,9.34,6.58,18.58,13.3,27.98,19.82-30.14,3.08-81.28,22.66-87.35,23.25,0,0-3.65,45.1,7.23,46.1,4.15.39,58.28-14.99,95.19-16.71,59.88-2.77,131.23,17.55,156.48,7.42,0,0-3.52-10.47-5.78-18.04-.52-1.72-9.28-6.67-23.33-12.62,10.74-2.57,20.45-5.4,29.1-8.29,0,0,0,0,.01,0,5.47-1.83,10.53-3.68,15.15-5.51,2.85-1.09,5.47-2.15,7.99-3.18-2.18,14.72,18.15,76.26,24.58,133.06,15,132.9,32.46,127.33,36.94,124.72.36-5.16,15.88-4.02,26.18-27.22,10.32-23.18,15.91-22.4,27.49-11.52,9.03,8.47-2.26,58.08-20.49,92.69-.98-9.44-1.31-18.89.07-25.23,3.78-17.39,3.04-23.43-4.54-25.68-7.56-2.24-23.45,29.46-23.45,29.46,2.23,42.56-19.49,135.83-20.02,138.07-18.78,36.46-40.34,78.62-62.46,113.94-12.23,14.31-25.74,27.34-40.33,38.89l-.74.61c.13-.11.23-.2.16-.14l-.25.19-.54.38-2.09,1.5-4.17,3.02c-2.74,1.9-5.68,4.31-8.15,5.59-5.19,3.01-9.95,6.19-15.84,8.98l-8.45,4.3-8.77,3.81c-5.73,2.72-11.9,4.74-17.86,7.07-24.2,8.75-49.88,14.44-75.83,18.8-52.1,8.3-105.76,10.39-159.28,8.76-26.76-1.01-53.56-2.58-80.08-5.54-13.24-1.41-26.46-3.22-39.32-5.3-3.13-.54-6.3-1.1-9.37-1.69-3.15-.6-6.19-1.24-8.99-1.93-.57-.13-1.13-.27-1.66-.4-1.77-3.91-3.68-9.16-5.36-14.24-2.01-6.04-3.97-12.33-5.82-18.69-3.72-12.75-7.13-25.79-10.4-38.91-6.55-26.25-12.79-52.79-18.63-79.42-6.05-26.6-11.61-53.35-17.28-80.08-5.46-26.75-11.08-53.51-16.09-80.28-2.49-13.37-4.88-26.82-6.71-40l-1.22-9.68c-.17-1.55-.31-3.11-.39-4.4l-.04-.49v-.25c-.03.15.02-.67-.06.28l.05-1.28.09-2.57c.03-3.68.45-6.36.76-9.24.28-2.87,1.08-6.18,1.58-9.28,2.76-12.62,7.08-25.31,12.07-37.77,4.85-12.52,10.52-24.98,16.71-36.89l1.01-1.96-.35-1.41c-.07-.3,3.18-10.27,3.1-10.57.28-3.8.47-8.41-.01-13.43-.33-5.68-1.42-11.77-2.5-18.17-1.19-6.34-2.63-13.12-3.72-19.53-.47-3.35-1.21-5.93-1.72-9.98-.26-1.9-.58-3.8-.95-5.71,0,0-.43-3.83-.37-4.24,0-.73,1.09-5.61,2.43-11.49,15.33-2.31,39.81-5.07,62.63-3.65,2.16.13,4.3.3,6.42.52,22.88,2.31,44.24,20.06,47.63,18.09,9.06-5.24,16.12-36.27,4.03-53.51,0,0-20.71-13.85-39.63-17.24-3.35-.6-6.65-.88-9.76-.69-24.57,1.52-49.53,14.46-66.04,26.57.75-12.98.99-25.28.77-36.18-.2-12.82-1.08-23.7-2.03-31.42-.97-7.74-1.94-12.25-1.94-12.25,0,0-.33.45-.8,1.1l1.63-43.97s33.84-11.98,80.91-24.29ZM829.28,2801.44c-367.06-189.44-618.64-572.48-618.64-1013.24,0-500.34,334.2-945.11,806.22-1089.72,0,0,44.05-13.09,69.64-15.87-3.87,8.03-7.37,16.33-10.41,24.98-1.04,3.59-2.25,6.86-3.14,10.74-.92,3.87-1.86,7.92-2.25,11.11l-.39,2.54-.19,1.27-.15,2.12c-.14,2.14-.17,4.01-.2,5.88-.03,3.73.08,7.31.25,10.84.67,14.14,1.85,27.9,3.11,41.72,3.34,36.45,7.86,72.64,13.11,108.73l-1.14-3.18c-14.4-40.11-18.37-38.93-8.79,2.6l61.64,267.68c-13.49,1.69-27.11,4.19-40.77,8.31l-121.76-239.35c-19.3-37.99-23.09-36.34-8.39,3.65l92.89,252.89c-6.61,4.49-12.88,9.9-18.45,16.22-3.95,4.51-7.5,9.49-10.53,14.77l-159.39-234.89c-23.92-35.26-27.47-33.15-7.88,4.69l152.23,294.04c-.62,11.98-.42,23.79.19,35.42.11,1.77.25,3.52.37,5.28-.47-.52-.92-1.03-1.4-1.57l-239.98-272.58c-28.14-31.98-31.4-29.45-7.22,5.64l206.07,299.05c1.21,1.75,2.32,3.41,3.37,5.02-7.3.66-15.09,1.44-23.3,2.36l-266.44-235.22c-31.94-28.21-34.86-25.27-6.46,6.5l210.07,235.19c-6.4.73-12.92,1.42-19.6,1.86-9.06.77-18.3,1.65-27.64,2.63l-233.58-158.97c-35.22-23.99-37.75-20.72-5.61,7.25l185.6,161.5h0c-2.49.83-4.47,1.8-6.74,2.71-4.28,1.94-8.94,3.53-12.91,5.83-10.93,5.5-20.82,11.98-30.07,18.9l-195.93-100c-37.94-19.38-40.04-15.81-4.67,7.92l172.68,115.71c-1.77,1.7-3.49,3.43-5.16,5.19-5.98,5.85-11.5,11.88-16.74,17.98-6.47,7.38-12.44,14.85-18.02,22.25l-181.19-65.39c-40.08-14.45-41.71-10.66-3.62,8.43l166.3,83.4c-4.89,7.51-9.38,14.82-13.41,21.89-7.24,12.44-13.16,24-17.97,34.16l-170.98-38.35c-41.59-9.33-42.72-5.37-2.55,8.8l118.37,41.75c-1.87-.13-3.76-.22-5.69-.25-6.14-.37-12.76.87-19.12,1.86-6.4,1.91-12.91,3.58-18.73,6.94l-4.42,2.34c-.82.45-1.27.61-2.38,1.34l-1.43.95-5.69,3.8c-4.3,3.07-8.62,6.2-12.63,9.47-8.11,6.7-16.42,13.82-23.72,26-2.36,4.03-4.6,8.98-5.93,14.56l-41.71-3.97c-42.43-4.03-43.07.05-1.42,9.08l42.09,9.12c.7,7.15,3.22,13.36,5.36,17.59,1.69,3.23,3.15,5.73,4.1,7.32-3.16,2.74-6.02,5.01-9.26,8.02-6.4,5.64-12.42,11.68-18.06,18.12-5.45,6.89-10.72,14.06-14.01,23.08-2.49,7.34-3.46,15.63-2.04,23.06l-17.96.55c-42.59,1.32-42.71,5.45-.28,9.17l22.7,2c.84,1.48,1.7,2.9,2.51,4.29,2.36,2.84,4.65,5.56,6.96,7.98,5.02,4.06,9.46,7.96,14.16,10.25,2.26,1.28,4.41,2.52,6.49,3.69,2.12.96,4.16,1.87,6.1,2.74.56.26,1.06.45,1.59.69,0,0-13.62,29.06-31.24,71.58l-25.58,4.03c-42.08,6.62-41.68,10.74.89,9.12l19.59-.74c-14.76,36.27-31.53,80.35-45.24,124.06-28.57,91.07-40.61,180.94-41.4,189.47-1.71,18.21-2.52,37.09.42,57.55,1.44,10.22,3.85,20.97,9.28,32.34.68,1.4,1.32,2.82,2.07,4.23l2.7,4.27,2.8,4.21c1.1,1.4,2.38,2.77,3.56,4.13l3.79,3.98c-.08-.04,1.26,1.08,1.75,1.5l.26.2.66.51,1.39,1.07,6.49,4.68c16.22,11.29,32.61,19.99,49.39,28.65,33.67,16.48,68.67,28.73,103.6,38.54,8.77,2.29,17.49,4.55,26.17,6.78,8.67,2.38,17.49,3.65,26.16,5.44,8.67,1.67,17.31,3.33,25.87,4.94,8.23,1.35,16.49,2.24,24.63,3.3-28.3,28.5-25.05,30.99,7.79,5.17l4.58-3.6c4.66.59,9.31,1.17,13.93,1.75,8.2.88,16.38,1.25,24.44,1.73,4.42,12.69,14.84,42.63,28.49,81.89-18.58,24.59-17.14,27.81,2.95,8.47,15.56,44.73,34.82,100.12,54.09,155.54,15.46,44.99,30.78,89.9,43.99,129.25,1.95,5.83,3.86,11.54,5.71,17.11ZM1171.3,1100.48s.09.01.17.05l-.17-.05ZM1176.68,1104.91s.05.05.07.08c.01.03-.02,0-.07-.08ZM1694.97,1225.01c6.53-3.66,13.03-7.29,19.33-11.66.37-.01.73.19,1.08.19h.13c5.6,0,9.65,1.41,9.44,5.92-.12,2.16-1.07,4.8-3.44,8.46-17.43,26.74-74.14,82.62-78.75,101,0,0,76.75-39.96,113.26-71.29l-.78,2.38c-.13.28-.77,2.13-1.09,2.8-.65,1.25-1.57,3.06-2.67,4.74-4.18,6.76-10.35,13.67-16.62,20.05-6.25,6.25-12.9,12.78-19.79,18.92-13.82,12.43-28.29,24.48-42.86,36.59-14.64,12.09-28.97,24.61-43.41,37.35-14.37,12.8-28.6,25.97-42.38,40.04-6.86,7.09-13.53,14.4-19.98,22.17-6.47,7.71-12.72,15.79-18.52,24.51-2.13,3.1-4.09,6.44-6.05,9.74-2.1-6.46-4.08-13.19-5.93-20.05l-9.98-37.57c-1.84-6.55-3.87-13.18-6.6-20.43-1.33-3.56-3.04-7.48-5.21-11.67-1.34-2.29-2.44-4.39-4.5-7.12-1.25-2.05-5.53-6.48-7.26-7.75l-1.87-1.56-3.28-2.47c-2.34-1.77-4.03-2.68-6.14-4.01-3.95-2.27-8.06-4.32-12.11-5.87-8.06-3.23-15.81-5.02-23.24-6.41-.05,0-.1-.02-.15-.03-14.89-2.69-28.37-3.21-41.41-4.01-1.03-.05-2.05-.11-3.1-.17,15.2-7.69,30.76-15.01,46.61-22.03,19.3-8.41,38.87-16.48,58.59-24.57,19.72-8,39.64-15.78,59.62-23.56,20-7.8,39.9-16.11,59.87-24.51,19.94-8.46,39.84-17.29,59.18-28.11ZM1287.04,1380.67c-4.32,1.6-8.62,3.19-12.89,4.87-5.9,2.28-11.7,4.76-17.51,7.16,8.55-14.42,13.36-32.59-8.95-40.84l-11.62-12.94c-11.01-12.27-21.17-25.37-29.83-39.48-4.32-7.05-8.09-14.45-11.19-22.2-.6-1.43-1.12-2.9-1.64-4.36,1.35-.42,3.18-.93,5.23-1.99,2.32-1.18,5.27-2.6,8.32-4.61,2.96-1.95,6.08-4.31,9.36-7.02,3.13-2.73,6.35-5.8,9.54-9.2,3.03-3.4,6.17-7.08,9.05-11.03,5.74-7.89,10.77-16.79,14.87-26.06.5-1.12.98-2.24,1.44-3.37.34-.83.66-1.66.99-2.49.11-.29.24-.59.35-.88.38-1,.74-2.01,1.1-3.01.04-.12.09-.24.13-.36,4.93-14.05,7.44-28.5,7.78-41.03,17.11,1.38,34.24,2.27,51.4,2.71,28.09.76,56.23.35,84.4-1.68,28.14-1.94,56.33-5.33,84.3-10.9,19.56-3.86,39.06-8.7,58.23-15.08-3.04,24.87-11.95,84.16-31.5,125.08,0,0,0,0,0,0-22.49,7.12-44.97,14.62-67.25,23.14-20.45,7.67-40.79,16.14-60.93,25.85-20.12,9.66-39.99,20.7-59.09,34.7l-44.99,33.01,10.91,2.02ZM1103.94,1325.37c-2.08,2.07-4.04,4.16-5.89,6.27-5.01,5.72-9.27,11.56-13.23,17.29-5.07,7.5-9.54,14.8-13.96,21.77-2.45-17.03-5.16-33.48-7.25-49.73-1.17-8.24-2.15-16.4-2.81-24.48-.81-8.09-1.37-16.08-1.46-23.94-.07-2-.16-3.93-.16-5.89v-1.93c0-.51.05.6.05.46l.08-.2.09-.82.34-3.24c.26-1.84.32-2.82.65-4.56.29-1.62.63-3.22,1.09-4.79,1.67-6.28,4.26-12.17,8.04-17.6,7.5-10.87,19.73-19.95,33.97-26.88,1.51-.75,3.05-1.47,4.59-2.18.62-.29,1.25-.57,1.88-.85,10.43-4.63,21.65-8.4,33.16-11.78v.02c2.33-.69,4.67-1.38,7.02-2.03,16.45-4.55,33.44-8.35,50.46-12.93,4.6-1.26,9.23-2.54,13.83-3.94-3.8,6.2-7.35,12.67-10.38,19.47-3.92,8.99-7.14,18.23-9.29,27.29-2.18,9.05-3.5,17.73-4.05,25.59-.3,3.82-.46,7.5-.49,10.85-.06,2.03-.02,3.95.02,5.78-.72-3.13-1.35-6.35-1.83-9.61l-.92,6.41c-.17,2.16-.21,4.37-.31,6.59,0,4.41.19,8.83.75,13.25.14,2.24.66,4.38,1.02,6.58.35,2.21.87,4.36,1.39,6.53.97,4.35,2.25,8.61,3.62,12.84,1.28,4.01,2.72,7.94,4.29,11.82-6.08-3.6-12.71-7.09-20.28-9.79-5.61-1.98-11.74-3.48-18.27-4.05-6.48-.54-13.34-.03-19.89,1.55-6.53,1.58-12.66,4.17-18.17,7.3l-1.03.58-.54.29-.96.62-1.55.97c-.58.35-.95.54-1.66,1.02l-2.21,1.61c-1.58,1.11-2.87,2.17-3.99,3.14-1.2,1-2.38,2.03-3.47,3.08-.8.75-1.57,1.51-2.33,2.27ZM1691.3,1731.37l-61.55,113.49c-2.82-.41-5.67-.76-8.51-1.15,15.59-46.1,31.81-89.56,48.52-129.96l21.54,17.63ZM1606.74,1891.51c2.43-2.64,4.85-5.18,6.85-6.96,11.08,1.59,22.31,3.31,33.42,5.18,2.09.35,4.11.78,6.17,1.14,11.05,1.9,22.09,3.87,33.05,6.07,25.92,5.33,51.82,10.98,76.32,18.52,12.09,3.78,24.13,8.2,33.91,13.28,4.84,2.41,9.07,5.56,10.39,7.03l.06.04.02.03.06.06.78.99,1.57,1.99,1.57,1.98c.59.73,1.02,1.3,1.21,1.7,1.08,1.85,2.4,3.45,3.38,5.68,2.29,4.14,3.45,8.19,3.62,11.01.12,2.94-.24,4.15-.9,5.21-.69,1.1-2.69,2.64-6.29,3.73-3.5,1.22-8.58,1.24-13.6,1.22l-12.98-.05c-33.03-11.42-91.42-30.03-122.74-30.46,0,0,85.97,40.12,115.89,57.14.58,2.49,1.09,4.97,1.38,7.4.35,3.25.59,6.47.34,9.47,0,1.54-.23,2.97-.46,4.43-.12,1.5-.63,2.77-.91,4.17-.76,2.7-1.88,5.14-3.12,7.54l-2.34,3.4-2.81,3.23-3.27,3-3.81,2.74-4.25,2.55c-1.33.92-3.04,1.52-4.57,2.31-1.45.76-3.01,1.37-4.61,1.97-21.96-14.7-81.43-53.31-117.25-64.77,0,0,79.28,74.83,103.32,100.67l1.53-2.07c.98,2.47,1.61,4.72,1.83,6.5.19,3.24,0,4.89-2.8,8.21-2.69,3.18-7.82,6.55-13.6,9.46-5.82,2.99-12.42,5.68-19.26,8.47-5.3,2.24-10.78,4.47-16.52,7.26-8.18-12.95-46.2-69.76-91.93-82.37,0,0,51.62,70.25,62,102.73-3.84,2.62-7.82,5.08-11.78,7.3-5.9,2.93-11.92,5.49-18.04,6.92-1.53.37-3.03.53-4.57.81-.96.13-1.11.28-2.7.44l-2.77.4-11.04,1.58-19.73,2.8-7.18-6.74c.74.03,1.6.13,2.33.14,6.1.14,11.22-.31,14.82-.88,3.55-.52,5.59-1.15,5.59-1.15,0,0-1.55-1.79-4.25-4.35-2.71-2.62-6.53-6-11.16-9.36-2.33-1.68-4.83-3.39-7.49-5.04-2.74-1.82-5.69-3.68-8.78-5.4-3.07-1.74-6.3-3.47-9.64-5-3.34-1.6-6.8-2.95-10.26-4.36-7.01-2.59-14.13-4.94-21.05-6.58-6.91-1.66-13.58-2.66-19.48-3.12-5.89-.49-11.01-.45-14.67-.18-3.66.2-5.88.62-5.88.62,0,0,1.27,1.88,3.71,4.59,2.41,2.77,5.99,6.44,10.58,10.18,6.59,5.41,15.25,11.08,24.84,15.88-5.54,5.79-11.18,12.09-14.99,17.4l-122.1-10.38-158.18-13.44-14.25-3.3-24.24-5.63-24.37-5.07c-3.53-.74-7.07-1.44-10.6-2.18,19.6-1.55,39.2-3.22,58.76-5,14.33-1.2,28.59-2.8,42.88-4.19l42.86-4.29,1.27-.14,1.97-.92c14.88-6.95,29.44-14.35,43.96-21.77l21.86-11.08,21.46-11.85,42.65-24.25,41.51-26.61,20.72-13.43,5.17-3.41c.93-.64,1.55-.97,2.71-1.83l2.48-1.8c3.12-2.28,6.88-5.19,10.21-7.85,13.43-10.7,25.87-22.38,37.6-34.47,11.73-12.09,22.71-24.71,33.25-37.03,5.34-6.13,10.4-12.32,15.37-17.79ZM1973.49,2040.64l-.88-.44c-5.41,7.59-13.43,18.83-23.34,32.72l1.99.72c-7.38,10.39-16.25,22.39-26.66,35.75l-.92-.62c-4.06,5.69-8.27,11.59-12.6,17.64-81.45,100.64-239.78,263.07-501.08,406.68-12.46-1.23-24.86-2.89-37.16-5.53-12.34-2.38-26.11-5.65-38.84-8.56-23.97-6.56-48.92-13.97-73.03-23.8-24.26-9.21-47.92-20.4-71.4-31.88-23.28-12.04-46.33-24.58-68.83-38.25-11.26-6.79-22.52-13.63-33.53-20.9-11.13-7.04-22.11-14.4-33.06-21.76-21.96-14.68-43.41-30.17-64.72-45.91-21.13-15.99-42.15-32.16-62.66-49-41.29-33.4-80.95-68.97-120.15-104.93-.32-.3-.64-.04-.97-1.04h0c-6.96-6-13.88-12.89-20.79-19.44-2.99-2.83-5.97-5.6-8.95-8.44l-.03.06c-9.04-8.67-18.02-17.38-26.92-26.18-10.25-10.15-20.46-20.44-30.52-30.81l8.96-.9c7.56-.81,15.48-.78,23.23-1.21,7.89-.07,15.82.2,23.76.27l2.97.06,2.48.19,6.2.51,12.37.97,24.78,2.01c16.43,1.5,33.16,2.22,49.31,4.61l97.77,12.17,24.49,2.96,24.52,3.66,49.06,7.33c32.71,4.87,65.41,9.86,98.2,14.45l24.58,3.49,24.49,4.08,6.2,1.01,267.83,56.24,129.3-27.25,65.06-8.95c9.13.91,18.75,1.46,28.19,1.3,11.92-.2,23.54-1.52,33.53-4.65.19-.06.38-.12.57-.18.66-.21,1.32-.44,1.97-.66.2-.07.41-.14.6-.21.78-.29,1.55-.58,2.31-.89.23-.09.45-.2.68-.29.53-.22,1.05-.45,1.57-.69.3-.14.59-.28.89-.42.46-.22.92-.45,1.37-.69.15-.08.31-.15.46-.23,0,0,0,0,0,0,.11-.06.23-.12.34-.18.69-.38,1.38-.76,2.04-1.17,38.23-23.16,82.5-70.13,82.5-70.13,0,0,57.32-34.36,76.92-89.93,0,0,33.85-4.74,62.4,25.99,0,0-2.23,3.95-6.85,11.28ZM902.08,2381.59c-21.63-.3-45.96.08-72.4-1.6-13.24-.67-27-1.08-41.18-2.06-14.16-1.44-28.78-2.53-43.81-3.84-15.04-.86-30.27-3.77-45.91-5.76-7.79-1.19-15.71-2.05-23.62-3.33-7.9-1.45-15.86-2.96-23.86-4.44-8.01-1.49-16.09-3-24.25-4.54-8.04-1.89-16.12-3.8-24.25-5.72-16.37-3.5-32.46-8.53-48.82-13.12-32.28-10.2-64.77-21.7-95.08-36.83-14.98-7.54-30.17-15.53-43.17-24.48l-4.36-3.04-1.26-.93-.06-.06c-.19-.25-.36-.51-.59-.72l-.88-.77-.84-1.32-.94-1.3-.84-1.71c-2.41-4.5-4.36-11.05-5.46-18.18-2.42-14.23-2.6-30.44-1.75-46.48.85-16.12,2.88-32.35,5.18-48.35,4.92-31.95,11.26-63.11,18.4-92.45,47.48-147.37,95-237.45,121-280.61l1.29.11,15.28-25.04-.63.02c2.75-3.99,4.25-5.95,4.25-5.95,0,0-3.45-4.84-10.01-8.26.95.1,1.81.14,2.79.29,2.57.22,5.25.82,8.08,1.48,2.83.52,5.73,1.27,8.75,2.27,3.04.88,6.15,1.88,9.29,3.2,3.19,1.13,6.42,2.51,9.68,4.1,6.55,2.94,13.19,6.68,19.89,10.77,3.13,1.93,6.27,3.99,9.37,6.13,3.54,2.43,7.06,4.97,10.57,7.58,6.54,5.07,13.06,10.31,19.35,15.91,25.23,22.23,47.39,47.81,62.95,67.57,7.8,9.88,13.99,18.32,18.16,24.25.52.74.93,1.34,1.39,2-4.4,12.91-8.03,25.88-11.94,38.35-4.56,14.17-7.79,28.18-11.34,41.39-1.71,6.59-3.49,13.03-4.95,19.29-1.36,6.3-2.67,12.39-3.94,18.21-2.47,11.71-5.01,22.43-6.73,32.03-1.44,8.48-2.67,15.96-3.77,22.37-2.65.6-5.3,1.23-7.94,1.85l-7.45,2.36c-1.17.34-2.74,1.06-4.11,1.6l-2.1.89c-.8.36-2.2,1.13-3.25,1.71l-22.67,12.83,17.68,20.04c18.34,20.79,36.74,40.32,55.64,59.9,18.87,19.5,38.07,38.65,57.55,57.52,19.47,18.85,39.36,37.32,59.62,55.35,20.36,17.95,40.84,35.77,61.86,53.01,20.86,17.39,42.3,34.13,63.89,50.7,1.28.97,2.58,1.91,3.88,2.87-4.02.81-8.37,1.69-13.09,2.59-5.73.16-11.7.34-18.19.53-9.38-.06-19.51-.12-30.36-.19ZM461.83,1770.63c-.94-2.13-1.86-4.23-2.9-6.29-.33-2.11-1.08-4.13-1.04-6.04-.17-3.77,1.27-6.89,3.5-10.47,2.53-3.58,6.61-7.54,11.36-11.43,5.13-3.83,10.69-7.93,17-11.69,3.29-2.08,6.63-4.15,9.99-6.29,4.48-3.05,9.59-6.56,14.63-14.02,1.22-1.66,2.39-4.31,3.36-6.54.85-2.59,1.71-5.27,1.92-8.08.68-5.72-.36-10.89-1.48-14.67-2.45-7.72-4.74-11.41-5.58-14.14-.9-2.58-.35-2.85-.25-2.34.18.54.21.26,1.32-1.19,2.16-2.89,7.59-7.83,13.67-12.24,3.13-2.31,6.29-4.33,9.52-6.43l5.83-3.59,1.43-.9s.5-.2.68-.27l1.68-.78c2.1-1.39,4.68-1.61,7.02-2.57,2.73-.09,5.19-.85,8.28-.52,11.82-.35,26.79,5.07,41.03,11.91,14.33,7.05,28.49,15.92,41.94,25.22,13.44,9.39,26.3,19.13,38.38,28.72,12.09,9.58,23.46,18.91,33.9,27.71,26.87,22.81,47.99,40.74,59.85,50.81-2.73,6.17-5.46,12.39-8.04,18.78-2.96,7.14-5.97,14.32-8.98,21.55-2.79,7.33-5.59,14.67-8.41,22.03-.02.05-.05.12-.06.19-2.11-1.93-4.31-3.89-6.63-5.93-20.11-17.75-48.06-40.21-78.75-58.71-7.64-4.64-15.53-8.95-23.33-13-7.94-3.89-15.8-7.57-23.67-10.58-7.83-3.04-15.51-5.71-23.02-7.56-3.7-1.04-7.37-1.85-10.92-2.46-3.54-.76-7.01-1.23-10.34-1.56-3.32-.48-6.5-.69-9.56-.72-3.06-.13-5.91-.25-8.62.01-4.81.09-8.86.7-12.4,1.3-.39-.06-.8-.1-1.2-.14-.16-.02-.32-.03-.48-.04-.25-.02-.5-.04-.76-.05-.19-.01-.38-.02-.58-.03-.2,0-.41,0-.62-.01-.45,0-.91,0-1.37,0-.09,0-.17,0-.26,0-9.79.35-22.39,5.46-37.57,20.87-3.7,3.76-7.55,8.13-11.56,13.19-.31.39-.63.8-.94,1.2-.51.66-1.03,1.09-1.55,1.78-.04.05-.08-.08-.12-.08h0c-3.26,5-6.62,9.29-10.08,14.55-.79-.77-1.53-1.35-2.36-2.12-1.38-1.61-2.84-3.23-4.38-5-3.2-3.38-5.72-7.32-8.48-11.33ZM478.99,1683.27c.44-.25-.02.59-.96,1.7.34-.9.76-1.59.96-1.7ZM1374.58,2038.44l-14.66,9.73-20.55,12.65c-13.37,8.29-26.79,16.5-40.33,24.32l-39.89,8.27c-14.04,2.95-28.12,5.74-42.16,8.89-22.2,4.81-44.42,9.75-66.58,14.93-25.74-5.3-51.54-10.49-77.33-15.67l-48.84-9.79-24.42-4.9-24.68-4.23-98.98-16.19c-11.07-2.03-22.11-3.26-33.11-4.5,2.6-64.83,10.42-126.38,21.81-183.93l556.4,22.8c-16.29,44.02-31.84,89.91-46.67,137.61ZM800.42,2056.98l-10.73-1.26-6.16-.71-3.7-.4-3.22-.18c-5.93-.27-11.81-.6-17.71-.89.09-3.28.16-6.68.24-10.33.31-9.17,1.26-19.47,1.97-30.79.4-5.65.81-11.55,1.22-17.65.54-6.09,1.37-12.37,2.04-18.83,1.56-12.93,2.66-26.69,5.07-40.72,2.28-14.07,4.03-28.77,7.08-43.46,2.83-14.74,5.48-29.84,9.04-44.71,1.67-7.47,3.37-14.94,5.03-22.38,1.92-7.41,3.81-14.78,5.68-22.09,3.58-14.69,7.9-28.92,11.88-42.8,4.06-13.86,8.45-27.11,12.53-39.74,4.37-12.48,8.29-24.44,12.43-35.24.54-1.46,1.07-2.89,1.6-4.32.22-.6.44-1.18.66-1.78.35-.93.7-1.87,1.04-2.78.14-.38.29-.76.43-1.13,3.37-8.88,6.59-16.98,9.54-24.2,5.92-14.49,10.77-25.34,13.6-31.5.05-.11.1-.23.15-.34.1-.22.2-.44.3-.65.12-.25.23-.5.34-.73.07-.15.14-.3.21-.44.1-.22.2-.44.3-.64.04-.09.08-.18.12-.27.26-.54.48-1.01.66-1.4.02-.05.05-.1.07-.14.07-.15.14-.3.2-.42.01-.02.02-.05.03-.07.07-.14.13-.26.17-.36.02-.03.03-.06.04-.09.02-.05.05-.1.06-.13.04-.08.06-.13.06-.13,0,0-3.68,5.42-9.77,15.19-1.71,2.75-3.61,5.82-5.68,9.24,0-.04-7.52-114.95-35.14-146.13,0,0,16.78,67.73,8.85,92.68-7.95,24.95-55.07-4.08-55.07-4.08,0,0,51.3,78.02,55.3,103.66v.02c-5,9.25-10.2,19.28-15.69,29.83-5.9,12.03-12.3,24.75-18.4,38.08-2.43,5.38-4.95,10.86-7.43,16.38-1.25-2.33-2.64-4.84-4.29-7.57-8.1-14.3-20.48-34.23-37.52-56.7-17.08-22.45-38.64-47.59-66.01-71.42-5.84-5.04-11.94-10.03-18.38-14.85-7.63-5.71-15.73-11.18-24.46-16.24-.02-.01-.04-.02-.06-.03-1.24-.72-2.5-1.44-3.77-2.14-1.75-.93-3.56-1.88-5.36-2.82.77-.8,1.53-1.59,2.38-2.45,5.06-5.16,11.46-11.27,18.32-18.52,7.15-7.02,14.73-15.28,23.4-23.83,8.44-8.74,17.73-17.98,27.48-27.67,9.79-9.62,20.15-19.61,31.07-29.43,10.83-9.92,22.36-19.49,34.14-28.61,11.98-8.65,24.08-17.55,36.72-23.56,3.06-1.91,6.26-2.88,9.35-4.41,1.51-.65,3.2-1.54,4.57-2l4-1.3,3.96-1.48c1.58-.5,3.86-.89,5.75-1.34l5.93-1.31,1.46-.32c-.32.05-2.52.4-1.3.19l.18-.02.39-.07.76-.13,3.04-.53c16.11-2.82,31.94-5.9,47.2-9.12,12.41-2.3,24.27-5.79,35.68-9.07-3.39,8.98-7.73,19.12-11.23,30.19-1.22,3.62-2.48,7.4-3.72,11.15-2.72,8.23-5.49,16.6-8.29,25.08,0,0,0,0,0,0-.05.16-.1.31-.16.47-2.06,6.2-4.11,12.42-6.14,18.55-1.68,6.23-3.33,12.37-4.96,18.31-3.18,11.84-6.14,22.88-8.69,32.36-5.06,18.86-8.44,31.41-8.44,31.41,0,0,1.68-3.34,4.6-9.11.83-1.64,1.75-3.46,2.77-5.46,2.11-4.15,4.54-9,7.32-14.49,4.4-8.68,9.52-18.8,15-29.64,2.73-5.41,5.57-10.98,8.44-16.65,3.21-5.51,6.46-11.1,9.71-16.7,6.45-11.16,12.92-22.31,18.97-32.75,5.93-10.5,12.39-19.53,17.4-27.59,5.19-7.98,9.31-14.54,12.71-19.25,3.24-4.68,5.13-7.34,5.13-7.34l-5.18-2.91c.37-.14.76-.29,1.14-.41,11.8-4.52,22.49-8.81,31.85-12.77,9.3-4,16.97-8.41,23.49-11.69,1.61-.8,3.13-1.58,4.53-2.35.39,2.85.69,5.79,1.08,8.61.39,3.16.84,6.27,1.27,9.38-40.16,56.16-207.34,310.54-222.51,669.21ZM1218.86,1163.67c-6.66.74-13.37,1.29-20.15,1.65-5.9.28-11.83.55-17.79.85l-5.78-16.08c3.89.84,7.7,1.58,11.54,2.33,10.58,2,21.06,3.52,31.52,4.85l.65,6.41ZM810.47,2646.46c-13.36-61.22-26.7-122.47-37.12-170.27,46.72,3.65,175.62,12.01,234.1-1.44,0,0,295.05,268.5,444.75,254.24l-9.64,193.04-.11,1.77c-30.49,2.45-61.34,3.78-92.47,3.78-172.6,0-336.32-38.67-483.09-107.67-.75-2.19-1.52-4.41-2.3-6.63-22.48-64.34-48.74-141.71-54.13-166.8ZM1698.2,2873.07l3.3-12.85,80.83-314.79,30.12,44.4c23.92,35.28,27.49,33.15,7.9-4.69l-32.23-62.26,26.94-104.94,93.86,106.63c28.17,31.98,31.42,29.44,7.21-5.65l-92.52-134.26,7.07-27.54c10.12-9.27,20.33-18.89,30.56-28.77l135.22,119.38c31.94,28.21,34.85,25.27,6.46-6.5l-119.9-134.24c15.02-14.95,30-30.31,44.75-45.78l145.89,99.29c35.22,24.01,37.73,20.72,5.59-7.26l-130.87-113.87c15.53-16.63,30.69-33.22,45.23-49.42l145.71,74.38c37.96,19.35,40.04,15.79,4.65-7.93l-131.21-87.93c17.28-19.52,33.45-38.18,48.08-55.29l131.56,47.46c40.1,14.47,41.72,10.67,3.62-8.41l-118.06-59.2c9.71-11.5,18.5-22.02,26.18-31.29,31.56,3.4,60.86,3,60.86,3,6.34-3.9,12.3-12.45,17.9-24.62l49.18,11.03c41.59,9.32,42.74,5.35,2.56-8.82l-46.01-16.23c8.7-23.7,16.47-56.09,23.42-92.92l45.69,4.35c42.4,4.05,43.05-.05,1.42-9.07l-44.48-9.64c5.38-30.25,10.24-62.97,14.63-96l39.63-1.22c42.62-1.31,42.71-5.44.27-9.17l-38.1-3.35c4.42-34.23,8.34-68.48,11.83-100.35l22.61-3.56c42.09-6.62,41.69-10.74-.92-9.12l-20.39.77c4.76-44,8.68-82.67,11.9-109.29,28.41-8.75,28.61-12.06,1.02-8.17.33-2.58.66-5.01.97-7.29-6.03,1.07-11.11,1.35-14.69,1.35-7.29,0-12.19-.95-13.09-1.13l-2.71-.57-121.91-66.23c12.53,13.39,22.11,27.39,26.92,41.63,9.97,59.52-69.77,372.79-126.45,396.89,0,0-49.61-51.38-204.91-76.16l-7.03,9.71h-149.11l96.97-176.41c-8.47-18.45-16.38-47.31-9.02-83.36,9.15-44.93,96.4-135.51,149.24-186.98-10.77-7.4-25.92-16.25-42.06-20.67-48.28,47.84-121.96,133.7-205.09,275.42-23.55,55.89-46.25,117.74-67.59,184.31-.75,2.33-1.5,4.65-2.23,6.94-1.78,2.19-3.56,4.38-5.3,6.55-10.06,12.65-19.94,24.86-30.37,36.41-10.41,11.53-21.29,22.46-32.85,32.39-2.94,2.46-5.44,4.66-8.79,7.25l-2.4,1.88-2.24,1.63-4.88,3.46-19.37,14.04-27.33,19.93c40.27-121.53,85.47-230.03,135.34-324.88,53.3-91.84,101.36-161.16,141.6-213.99l-26.8-6.57,4.42-18.33c.41-1.71,3.36-13.43,9.79-29.81-99.05,113.39-185.77,264.85-258.89,451.95l-563.33-23.08c40.89-174.66,111.48-307.91,154.53-378.01l27.02-7.35c8.72-2.39,16.05-6.86,21.66-11.52,4.4-3.67,7.92-7.5,11-11.29-1.63,22.1-7.43,55.15-26.84,73.05,0,0,101.32-30.89,107.09-79.6,4.05-34.16,37.96-24.2,57.88-15.2-3.74,1.66-7.49,3.3-11.18,5.08l-6.69,3.22-2.48,9.54c-3.16,12.21-6.02,24.47-8.86,36.75-2.64,12.3-5.34,24.6-7.62,36.98-2.5,12.33-4.53,24.76-6.71,37.16-1.91,12.44-3.93,24.86-5.52,37.36-3.29,24.97-5.86,50.11-7.37,75.41-.8,12.64-1.26,25.36-1.41,38.12-.12,6.36.03,12.79.12,19.21.06,6.4.42,12.87.86,19.34,2.72-5.89,5.36-11.8,7.69-17.77,2.36-5.98,4.79-11.91,6.94-17.9,4.39-12,8.48-24.05,12.24-36.15,7.59-24.2,14.11-48.56,19.9-73.09,2.96-12.26,5.51-24.59,8.13-36.89,2.38-12.37,4.89-24.7,6.95-37.11,2.26-12.39,4.08-24.83,6-37.28,1.4-10.05,2.73-20.12,3.91-30.22,1.69-1.12,3.39-2.21,5.06-3.35,4.45-2.92,8.88-5.92,13.26-9,8.81-6.06,17.51-12.31,26.12-18.74,8.63-6.37,17.13-13.03,25.54-19.82.44-.36.84-.72,1.28-1.09l19.04,3.56c13.47,2.51,26.99,4.47,40.38,5.73,13.4,1.26,26.68,2.04,39.42,2.85,12.7.76,25.07,1.67,35.6,3.46,5.23.93,10.08,2.09,13.93,3.61,1.99.73,3.68,1.63,5.3,2.48.63.42,1.8,1.05,1.98,1.27l.63.38,1.41,1.16c.12.23.29.51.45.74.77,1.54,1.73,3.51,2.64,5.98,1.89,4.79,3.65,10.51,5.4,16.35l10.54,37.08c3.74,12.78,7.78,25.82,13.51,39.3,2.86,6.76,6.16,13.62,10.71,20.69,4.59,6.98,10.34,14.58,19.97,21.13l34.1,23.19,2.3-40.91c.69-12.68,7.03-27.82,15.78-42.32,4.33-7.3,9.33-14.53,14.69-21.63,5.26-7.16,11.17-14.05,16.92-21.08,11.81-13.94,24.44-27.52,37.51-40.96l39.86-40.14c13.31-13.58,26.74-27.24,39.78-41.6,2.62-2.93,5.23-5.9,7.81-8.88-4.12,9.53-8.22,18.9-12.28,28.07,20.3-27.43,48.9-52.97,88.25-63.39-1.07-.93-2.13-1.86-3.18-2.81l141.87-182.64c26.14-33.64,23.03-36.36-6.88-6.04l-160.97,163.06c-4.61-5.05-9.1-10.26-13.45-15.66-.13-1.5-.37-2.98-.59-4.48,1.02-12.67,3.46-33.39-2.04-53.02l92.07-155.42c21.72-36.67,18.28-38.98-7.62-5.15l-100.97,131.94c-10.24-10-25.5-17.71-48.08-20.9,2.24-9.89,4.66-20.27,7.21-31.29,2.78-12.87,5.69-26.43,8.72-40.47l40.59-93.64c16.96-39.08,13.28-40.95-8.17-4.13l-20.25,34.74c1.67-9.28,3.36-18.61,5.04-27.95.53-3.37,7.51-69.51,11.65-107.91h0s8.54-19.08,8.54-19.08c1.01-.42,2.02-.86,3.03-1.35,20.86-24.3,43.7-49.39,63.44-77.8-.63-.31-1.25-.62-1.88-.92.96-2.16,1.91-4.33,2.83-6.52,7.79,3.62,15.57,7.33,23.29,11.12,233.82,115.03,414.94,300.42,523.28,523.89l-.41-.24c13.42,20.66,23.92,42.66,30.29,68.41.07-.12.19-.25.26-.35,54.43,134.08,83.64,279.91,83.64,431.24,0,506.85-332.68,937.37-791.14,1084.87ZM1201.72,211.97c4.5-3.2,9.13-7.1,13.49-9.55,17.69-11.14,37.94-20.11,58.68-26.41,2.32-.72,4.66-1.41,7-2.08.76-.22,1.53-.43,2.29-.64,1.65-.46,3.3-.91,4.96-1.35.8-.21,1.6-.43,2.41-.63,2.01-.52,4.02-1.02,6.04-1.5.38-.09.76-.19,1.14-.28,2.29-.54,4.59-1.06,6.9-1.56.88-.19,1.75-.37,2.63-.56,1.53-.32,3.07-.64,4.61-.94.97-.19,1.93-.38,2.9-.57,1.58-.3,3.15-.59,4.73-.87,6.09-1.09,12.2-2.07,18.33-2.91,21.67-3.09,43.59-4.78,65.5-5.13,21.93-.37,43.9.56,65.67,2.72,21.79,2.26,43.44,5.41,64.69,10.09,21.26,4.65,42.18,10.63,62.4,18.15,2.84,1.04,5.61,2.2,8.42,3.32,105.26,90.09,91.64,251.6,91.64,251.6l-36.21-34.27-.86-.81-.21-.16-22.96-16.36c-7.72-5.3-16.1-9.63-24.11-14.45-7.93-5.06-16.67-8.41-25.05-12.54-4.23-1.95-8.42-4.01-12.68-5.85l-13.12-4.7c-8.8-2.97-17.36-6.69-26.38-8.77l-26.7-7.19-27.04-5.27c-8.94-1.96-18.03-3.07-27.1-4.13-9.07-.99-18.11-2.33-27.2-3.02l-27.23-1.65-13.66-.79-13.5-.27c-9.07-.02-18.27-.03-27.3.43-5.82.14-11.61.5-17.4.88-2.34-.87-4.64-1.77-6.97-2.64-7.23-2.35-14.46-4.69-21.69-7.04l-5.97-1.93c-1.91-.5-3.18-.95-5.82-1.57l-3.57-.83-3.14-.63c-2.11-.43-4.14-.76-6.19-1.1-1.92-.3-3.82-.56-5.72-.81-.9-.12-1.8-.22-2.69-.32-.95-.11-1.9-.23-2.84-.33-1.26-.14-2.51-.26-3.76-.38-.52-.05-1.05-.1-1.57-.15-1.57-.14-3.14-.27-4.7-.38-.12,0-.23-.02-.35-.03-7.02-.51-13.97-.79-20.88-.94-1.54-.03-3.09-.06-4.63-.09-15.41-.21-30.63.4-45.7,1.66-7.45.59-14.85,1.36-22.21,2.27,4.59-21.22,15.74-56.89,42.68-96.79Z"/>
  <path class="cls-3" d="M378.7,2310.01l-.06-.05c.33.28.28.24.06.05Z"/>
  <path class="cls-3" d="M1808.63,1553.95c-13.92,24.18-26.82,58.36-36.52,92.45l70.22-127.62c-7.96,2.63-22.01,14.86-33.7,35.17Z"/>
  <path class="cls-3" d="M2234.25,1879.47s.06-.07.08-.13c.71-1.51.3-1.19-.08.13Z"/>
  <path class="cls-2" d="M828.36,1430.15s.04,0,.04,0"/>
  <path class="cls-3" d="M1299.77,1454.79c-19.87,0-35.99,16.11-35.99,36s16.12,36,35.99,36,35.98-16.12,35.98-36-16.11-36-35.98-36Z"/>
  <path class="cls-3" d="M1248.85,1650.59c-20.23,0-36.64,16.39-36.64,36.63s16.41,36.63,36.64,36.63,36.63-16.4,36.63-36.63-16.4-36.63-36.63-36.63Z"/>
  <path class="cls-3" d="M1329.53,839.65s87.82-30.22,82.92-38.19c-6.13-2.11-27.37-10.11-45.64-7.05-19.24,3.23-51.72,14.17-66.78,12.25-11.11-1.41-21.53-20.1-20.52-22.97,3.67-10.41,17.15-17.16,17.77-27.57.61-10.41,19.6-153.3-11.85-138.26,0,0-9.8,86.27-20.01,130.71-2.86,12.44-37.58,31.17-33.49,48.26,4.08,17.09,43.34,46.91,97.61,42.82Z"/>
  <path class="cls-3" d="M1585.38,813.62c-.48-5.63-35.2-21.6-45.07-22.53-9.86-.94-23.01-.94-23.01,7.52s18.9,16.19,18.9,16.19c0,0-6.67,19.01-33.43,47.18-26.75,28.17-263.44,29.39-263.44,29.39-5.27,4.22,2.02,17.64,9.01,20.84,3.05,1.39,52.43,2.88,107.41.59,71.71-2.99,153.62-10.53,161.56-13.72,14.1-5.64,46.97-78.86,46.97-78.86,0,0,21.58-.95,21.12-6.58Z"/>
  <path class="cls-3" d="M1417.3,612.11s33.52-11.08,67.36-14.92c-9.45,6.84-15.61,17.96-15.61,30.52,0,20.78,16.85,37.63,37.62,37.63.05,0,.09-.02.13-.02-10.87,6.32-17.9,12.54-17.9,12.54,0,0,.95,11.87,9.7,5.78,8.75-6.11,55.62-12.01,64.29-11.9,8.68.11,11.05-13.19,11.05-13.19-13.42-7.51-27.67-7.43-40.68-4.24,6.8-6.82,11.04-16.21,11.04-26.61,0-12.46-6.06-23.5-15.39-30.35,12.76,1.55,21.79,4.05,23.06,5.67,5.12,6.54,17.37,26.71,17.37,26.71,0,0,17.36-.51,17.36-6.55s-11.05-28.73-22.49-37.73c-5.81-4.56-39.54-15.49-72.16-14.33-31.73,1.13-62.45,14.33-62.45,14.33-8.68,4.6-12.3,26.68-12.3,26.68Z"/>
  <path class="cls-3" d="M1140.04,643.93c.11,2.64.9,5.4,2.1,8.14,4.33,9.8,14.12,19.23,18.07,21.15,5.03,2.46,9.56-8.64,5.53-13.67-4.02-5.04-4.54-17.13-4.54-17.13,0,0,6.97-26.71,13.57-31.75,3.08-2.36,17.05-3.73,32.13-3.84-10.75,6.1-18.02,17.64-18.02,30.89,0,19.61,15.9,35.5,35.49,35.5s35.49-15.89,35.49-35.5c0-10.34-4.42-19.64-11.48-26.12.94-.73,7.1-6.01-2.62-13.02,0,0-51.89-24.74-93.63,3.33-.16.11-.33.21-.49.33,0,0-12.11,29.61-11.6,41.7Z"/>
  <path class="cls-3" d="M2347.63,1458.03c8.85-51.04,3.14-88.63-16.27-111.73-16.08-19.12-36.67-21.28-41.84-21.51l-153.76-11.5v-37.37l-26.93-4.05-14.56-2.19-125.12-18.83-33.9,42.84c-2.76-1.14-5.5-2.21-8.23-3.24-11.11-4.18-22.03-7.43-32.72-9.72-12.78-2.74-25.23-4.12-37.27-4.12-14.02,0-26.97,1.78-38.93,4.95-39.34,10.42-67.95,35.97-88.25,63.39-15.98,21.59-26.81,44.34-33.66,61.79-6.43,16.38-9.37,28.1-9.79,29.81l-4.42,18.33,26.8,6.57,48.9,11.99,6.06-15.37c13.48-34.18,32.12-50.79,57.02-50.79,6.52,0,13.1,1.06,19.52,2.82,16.14,4.42,31.29,13.24,42.06,20.65,2.22,1.53,4.25,2.99,6.07,4.35l-46.06,83.7-70.22,127.62-30.01,54.54-96.97,176.24h149.11l7.03-9.53,277.81-376.65,26.63,14.47,121.91,66.23,2.71.57c.91.18,5.8,1.13,13.09,1.13,3.58,0,8.66-.28,14.69-1.35,27.37-4.87,74.31-26.29,89.51-114.04ZM1925.52,1445.7c8.78-2.1,24.89-4.99,43.15-4.99,1.74,0,3.45.04,5.14.09,32.93,1.07,56.26,12.57,69.56,34.51l-268.23,363.29h-65.97l216.35-392.9ZM1820.71,1369.42c-21.8,0-49.74,7.53-72.59,38.38-4.53,6.11-8.86,13.12-12.9,21.19l-6.36-1.55c13.2-35.93,50.42-112.98,127.94-112.98,22.95,0,48.15,6.55,75.32,19.46l12.89,6.34,39.35-48.82,112.81,17.11v39.85l8.67.65,150.48,11.25,1.9.14c.83-.32,1.26-.48,1.26-.48l.81.63,26.36,1.97,3.18.05c.06,0,7.09.73,13.23,8.04,6.7,7.96,16.58,29.06,7.6,80.9-12.66,73.09-47.57,84.01-67.26,84.01-1.29,0-2.39-.05-3.25-.12l-10-5.43c.37,1.41.58,2.17.58,2.16l-2.39.81s-.65-.52-1.75-1.6c-1.01-1.09-2.86-2.66-4.52-4.94-.31-.44-.66-.9-1.01-1.38l-157.45-85.54c-21.67-24.01-53.87-36.52-94.96-36.52-21.68,0-40.83,3.62-51.8,6.23-15.5-12.36-54.62-39.82-96.16-39.82Z"/>
  <path class="cls-3" d="M2255.9,1361.39c-1.26.5-2.82,1.11-4.48,2.11-2.31,1.51-5.62,3.45-8.52,6.09-2.9,2.56-6.49,5.52-9.45,9.2-1.57,1.8-3.12,3.77-4.72,5.8-1.48,2.06-2.85,4.27-4.36,6.53-3.04,4.58-5.36,9.55-7.87,14.83-1.29,2.62-2.14,5.34-3.18,8.09-.05.14-.1.29-.16.43-.96,2.62-1.94,5.27-2.69,7.99-1.61,5.84-2.85,11.17-4.09,17.78-.71,5.64-1.59,10.94-1.85,16.82-.19,3.04-.26,6.07-.22,9.06,0,2.99-.11,5.93.26,8.79.48,5.73,1.01,11.18,2.23,16.47.61,2.62,1.11,5.14,1.77,7.57.8,2.47,1.53,4.83,2.35,7.05,1.46,4.44,3.71,8.48,5.51,11.9,1.38,2.79,3.15,5.16,4.63,7.16.36.48.7.95,1.01,1.38,1.67,2.28,3.52,3.84,4.52,4.94,1.1,1.08,1.75,1.6,1.75,1.6l2.39-.81s-.22-.75-.58-2.16c-.32-1.24-.76-2.99-1.28-5.19-.36-2.4-1.04-5.25-1.39-8.6-.28-3.37-.85-7.12-.96-11.29-.12-2.07-.21-4.23-.33-6.47.03-2.24.05-4.57.07-6.96-.07-4.77.42-9.8.73-15,.31-5.2,1.14-10.52,1.71-15.95.72-5.43,1.74-10.98,2.6-16.52.87-5.41,2-10.93,2.98-16.31,1.24-5.32,2.44-10.59,3.78-15.62,1.57-4.95,2.74-9.89,4.52-14.3,1.55-4.51,3.19-8.7,4.97-12.45,1.59-3.85,3.47-7.14,4.96-10.17,1.57-2.98,3.2-5.35,4.42-7.44,2.8-3.99,4.52-6.23,4.52-6.23l-1.18-.92-.81-.63s-.44.16-1.26.48c-.27.1-.58.22-.94.36-.4.19-.87.39-1.4.6Z"/>
</svg>