<?xml version="1.0" encoding="UTF-8"?>
<svg id="Layer_1" data-name="Layer 1" xmlns="http://www.w3.org/2000/svg" viewBox="0 0 1005.6 600.51">
  <defs>
    <style>
      .cls-1 {
        fill: #00ff00;
      }

      .cls-2 {
        fill: #00cc00;
      }

      .cls-3 {
        fill: #00aa00;
      }

      .cls-4 {
        fill: #00ff00;
      }
    </style>
  </defs>
  <path class="cls-4" d="M767.05,71.79v40.21l100.21,182.7V125.64c0-29.74-24.11-53.85-53.85-53.85h-46.35Z"/>
  <path class="cls-1" d="M603.68,71.93l145.56,265.39c9.45,17.24,27.55,27.95,47.21,27.95h75.12l-145.56-265.39c-9.45-17.24-27.55-27.95-47.21-27.95h-75.12Z"/>
  <path class="cls-1" d="M462.31,71.93l145.56,265.39c9.45,17.24,27.56,27.95,47.21,27.95h75.12l-145.56-265.39c-9.45-17.24-27.56-27.95-47.22-27.95h-75.12Z"/>
  <path class="cls-1" d="M320.8,71.93l145.56,265.39c9.46,17.24,27.56,27.95,47.22,27.95h75.12L443.14,99.88c-9.46-17.24-27.55-27.95-47.21-27.95h-75.12Z"/>
  <path class="cls-4" d="M69.25,520.51h75.17c19.67,0,37.76-10.72,47.22-27.97l162.69-296.69-53.5-97.54-231.58,422.2h0Z"/>
  <path class="cls-2" d="M779.48,392.45l12.33,22.49c9.45,17.23,27.56,27.95,47.22,27.95h75.12l-27.67-50.44h-107.01Z"/>
  <path class="cls-2" d="M638.11,392.45l12.33,22.49c9.46,17.23,27.56,27.95,47.23,27.95h75.11l-27.67-50.44h-107Z"/>
  <path class="cls-2" d="M496.6,392.45l12.33,22.49c9.45,17.23,27.55,27.95,47.21,27.95h75.12l-27.66-50.44h-107.01Z"/>
  <polygon class="cls-4" points="387.09 442.89 437.53 442.89 437.53 392.45 387.09 392.45 387.09 442.89 387.09 442.89"/>
  <polygon class="cls-4" points="305.56 442.89 356 442.89 356 392.45 305.56 392.45 305.56 442.89 305.56 442.89"/>
  <path class="cls-3" d="M822.06,470.07l12.34,22.49c9.46,17.24,27.55,27.96,47.21,27.96h75.12l-27.67-50.44h-107.01Z"/>
  <path class="cls-3" d="M680.68,470.07l12.34,22.49c9.45,17.24,27.55,27.96,47.21,27.96h75.12l-27.67-50.44h-107.01Z"/>
  <path class="cls-3" d="M539.18,470.07l12.33,22.49c9.46,17.24,27.55,27.96,47.22,27.96h75.12l-27.66-50.44h-107Z"/>
  <polygon class="cls-4" points="387.09 520.51 437.53 520.51 437.53 470.07 387.09 470.07 387.09 520.51 387.09 520.51"/>
  <polygon class="cls-4" points="305.56 520.51 356 520.51 356 470.07 305.56 470.07 305.56 520.51 305.56 520.51"/>
</svg>