<?xml version="1.0" encoding="UTF-8"?>
<svg id="Layer_1" data-name="Layer 1" xmlns="http://www.w3.org/2000/svg" xmlns:xlink="http://www.w3.org/1999/xlink" viewBox="0 0 465.05 417.04">
  <defs>
    <style>
      .cls-1 {
        fill: url(#linear-gradient);
      }
    </style>
    <linearGradient id="linear-gradient" x1="-250.03" y1="698.62" x2="-664.73" y2="555.56" gradientTransform="translate(546.89 970.64) rotate(120)" gradientUnits="userSpaceOnUse">
      <stop offset="0" stop-color="#00aa00"/>
      <stop offset=".51" stop-color="#00cc00"/>
      <stop offset="1" stop-color="#00aa00"/>
    </linearGradient>
  </defs>
  <path class="cls-1" d="M414.34,379.21c-2.28,0-4.57-.59-6.61-1.77l-59.51-34.35c-4.09-2.36-6.61-6.73-6.61-11.45v-133.61l-109.09-62.99-109.09,62.99v110.7l33.06-19.09v-64.9c0-4.72,2.52-9.09,6.61-11.45l62.81-36.26c4.09-2.36,9.13-2.36,13.22,0l62.81,36.26c4.09,2.36,6.61,6.73,6.61,11.45v72.53c0,7.3-5.92,13.22-13.22,13.22s-13.22-5.92-13.22-13.22v-64.89l-49.59-28.63-49.59,28.63v64.89c0,4.72-2.52,9.09-6.61,11.45l-59.51,34.36c-4.09,2.36-9.13,2.36-13.22,0-4.09-2.36-6.61-6.73-6.61-11.45v-141.24c0-4.73,2.52-9.09,6.61-11.45l122.32-70.62c4.09-2.36,9.13-2.36,13.22,0l122.32,70.62c4.09,2.36,6.61,6.73,6.61,11.45v133.61l33.06,19.09v-179.41l-168.6-97.34L63.92,163.67v202.31c0,7.3-5.92,13.22-13.22,13.22s-13.22-5.92-13.22-13.22v-209.95c0-4.72,2.52-9.09,6.61-11.45L225.91,39.61c4.09-2.36,9.13-2.36,13.22,0l181.82,104.98c4.09,2.36,6.61,6.73,6.61,11.45v209.95c0,4.72-2.52,9.09-6.61,11.45-2.04,1.18-4.33,1.77-6.61,1.77Z"/>
</svg>