<?xml version="1.0" encoding="UTF-8"?>
<svg id="Layer_1" data-name="Layer 1" xmlns="http://www.w3.org/2000/svg" viewBox="0 0 300 300">
  <g>
    <polygon points="92.17 192.3 8.61 192.34 8.61 108.21 92.18 108.22 92.17 192.3" fill="#ba1c33"/>
    <polygon points="92.18 92.14 8.61 92.18 8.61 8.61 92.17 8.61 92.18 92.14" fill="#ba1c33"/>
    <path d="M192.36,72.78c-13.23,1.13-24.45,7.97-31.3,19.38l-52.85.02V8.61s84.12,0,84.12,0l.03,64.17Z" fill="#ba1c33"/>
  </g>
  <g>
    <polygon points="291.94 108.22 291.94 192.33 252.62 192.34 234.11 108.23 291.94 108.22" fill="#ba1c33"/>
    <polygon points="136.84 192.19 108.24 192.29 108.23 108.25 155.37 108.22 136.84 192.19" fill="#ba1c33"/>
  </g>
  <path d="M269.5,63.95c-5.08,5.25-8.79,10.28-16.56,10.29-7.91.02-11.48-5.4-16.34-10.31-4.79-4.84-10.44-8.36-10.27-16.36.16-7.5,4.71-11.76,10.34-16.35,3.87-3.16,5.95-8.67,11.37-9.71,9.59-1.84,16.04,1.22,21.04,10.38,6.68,2.97,10.03,8.95,10.42,15.6.46,7.79-5.29,11.59-10,16.46Z" fill="#ba1c33"/>
  <path d="M198.42,291.94h-7.19c-6.48-2.17-12.96-6.86-13.01-14.62l-.36-58.38,8.4-.11v-26.49s-32.79-.02-32.79-.02l19.05-85.62c2.2-9.87,10.64-16.8,20.65-17.58,11.24-.87,21.48,7.02,23.95,18.15l18.84,85.03-32.55.04-.02,26.51,8.4.09-.32,57.25c-.05,8.13-6.1,13.47-13.04,15.75ZM202.86,191.7v-42.53s-16.06,0-16.06,0v42.61s16.06-.08,16.06-.08Z" fill="#ba1c33"/>
</svg>