<?xml version="1.0" encoding="UTF-8"?>
<svg id="Layer_1" data-name="Layer 1" xmlns="http://www.w3.org/2000/svg" viewBox="0 0 300 300">
  <path d="M288.64,289.18H10.82v-88.44l1.08-1.12c42.7-.29,86.04-11.33,123.5-33.2,17.02-9.95,34.47-19.67,52.34-29.14,31.33-15.41,66.31-22.12,100.49-22.72l.67.78c.15,58.01.06,115.96-.27,173.84ZM268.03,160l-.02-15.7h-15.74s0,15.75,0,15.75l15.76-.05ZM268.03,214.26l-.02-15.7h-15.74s0,15.75,0,15.75l15.76-.05ZM47.19,268.52l-.02-15.7h-15.74s0,15.75,0,15.75l15.76-.05ZM120.99,268.52v-15.7s-16.28,0-16.28,0v15.76s16.28-.06,16.28-.06ZM194.78,268.52l-.03-15.71h-16.27s0,15.76,0,15.76l16.3-.05ZM268.03,268.52l-.02-15.7h-15.74s0,15.75,0,15.75l15.76-.05Z" fill="#ba1c33"/>
  <path d="M10.82,185V11.36c27.42-.39,55.03-.44,82.81-.15l.21.68v157.59c-.32,1.4-.81,2.26-2.62,2.4-19.52,7.79-39.85,10.5-60.35,13.16-.69.09-1.57.03-2.17-.3-1.02.51-2.18.62-3.31.72-1.83.17-12.99.93-13.63.68-.46-.18-.72-.69-.95-1.16Z" fill="#ba1c33"/>
  <g>
    <path d="M165.85,131.93l-19.6,11.09c-12.42,7.28-24.58,14.25-37.75,20.48V11.38s82.45-.02,82.45-.02v108.25c-8.8,3.79-16.79,7.68-25.1,12.32Z" fill="#ba1c33"/>
    <path d="M278.77,99.92l-8.95.72c-21.54,1.68-42.54,5.64-63.1,12.83l-.02-102.1h81.95s0,88.4,0,88.4l-9.87.15Z" fill="#ba1c33"/>
  </g>
</svg>