<?xml version="1.0" encoding="UTF-8"?>
<svg id="Layer_1" data-name="Layer 1" xmlns="http://www.w3.org/2000/svg" viewBox="0 0 300 300">
  <path d="M102.79,138.63l9.08,9.78,7.44,7.92c1.99,2.12,3.58,3.81,5.85,5.8,16.29,14.26,39.02,18.76,59.63,12.08,2.81,3.05,5.89,5.49,8.44,8.79,2.32,3,5.25,5.42,7.82,8.12,3.32,3.48-3.55,8.29,6.98,18.67,1.97,1.94,3.35,4.25,5.53,6.04,1.92,1.58,3.33,3.47,4.9,5.4,2.91,3.57,7.15,6.24,9.09,10.61,2.75,16.13-9.42,30.93-25.7,30.73-12.85-.16-24.2-9.78-25.24-23.19-.27-3.52,0-6.71-.58-10.4-1.15-7.35-7.67-12.58-15.12-12.53-7.34.05-14.68,5.66-14.84,13.49l-.52,25.84c-.25,12.69-12.47,21.75-24.33,22.14-12.9.42-23.54-7.9-26.54-20.91l-.18-49.6c-.04-10.18-7.18-16.99-16.17-16.55-6.72.33-14.13,5.8-14.18,13.5l-.4,66.75c-2.13,12.72-12.42,21.76-24.54,22.17-12.84.44-23.49-7.94-26.57-20.95V9.62c.09-1.22,2.18-3.27,3.37-3.37l205.91-.06c4,0,5.93,1.93,5.93,5.9l-.05,133.13c-2.46-1.61-3.87-4-5.64-6.23,3.75-8.26,4.7-16.79,4.44-25.83-.48-16.79-8.26-31.26-19.81-42.88-3.18-3.19-6.01-6.45-9.02-9.65l-8.38-8.94-9.02-9.59c-3.49-3.71-6.9-7.59-10.77-10.88-5.4-4.6-13.44-4.4-18.39.25l-8.57,8.06-9.6,8.95-8.97,8.34-9.61,8.96-9.61,8.96-9.61,8.95-8.89,8.36c-4.1,3.86-7.9,7.7-8.22,13.64-.29,5.46,2.85,9.79,6.65,13.46,2.19,2.12,3.71,4.7,6.14,6.67,0,0,10.33,11.14,11.87,12.79ZM104.72,67.14l-.03-34.98c0-2.96-2.27-4.97-4.83-5.29-2.01-.25-5.15,1.7-5.15,4.49v36.82c0,2.8,3.13,4.74,5.15,4.49,2.54-.31,4.86-2.3,4.86-5.54ZM63.79,128.56l-.02-80.98c0-3.05-2.45-5.02-4.88-5.33-1.94-.25-5.19,1.65-5.19,4.53v82.85c0,2.88,3.25,4.78,5.19,4.53,2.43-.32,4.91-2.22,4.91-5.59ZM104.69,169.63c.27-6.76.32-13.23-.03-19.66-.16-2.93-2.13-4.94-4.8-5.26-2.07-.25-5.02,1.71-5.12,4.48-.25,7.21-.25,14.28,0,21.48.1,2.77,3.04,4.72,5.12,4.48,2.64-.32,4.7-2.31,4.83-5.51Z" fill="#ba1c33"/>
  <g>
    <path d="M109.5,131.28l-8.26-8.72c-1.58-1.66-2.76-3.55-4.54-5.07-1.98-1.69-8.52-8.59-8.58-11.07-.11-3.94,4.08-6.22,6.58-8.57l8.88-8.38,9.6-8.96,9.61-8.97,9.61-8.97,9.6-8.96c1.61-1.5,13.65-12.68,13.91-12.99,1.5-1.8,3.32-2.63,5.59-2.46,1.94.14,3.29,1.75,4.8,3.36l7.74,8.24,8.96,9.6,9,9.59c3.02,3.21,5.82,6.46,8.99,9.61,15.35,15.29,20.54,37.82,11.68,57.89-7.46,16.89-22.79,28.37-41.15,30.68-17.97,2.27-33.2-4.97-45.15-17.8l-8.05-8.64-8.82-9.41Z" fill="#ba1c33"/>
    <path d="M245.33,235.64l-7.55-8.2-7.96-8.66-7.38-8-8.01-8.66c-2.17-2.35-4.21-5.42-1.4-8.41,2.16-2.3,4.72-4.64,7.11-6.87l9.58-8.97c3.04-2.85,5.68-5.67,8.89-8.49,1.73-1.52,5.18-2.96,7.2-1.18,2.94,2.6,5.57,5.55,8.22,8.4l7.72,8.32,7.69,8.32,7.12,7.6c1.26,1.35,2.22,2.88,3.59,4.09,6.13,5.43,8.74,12.78,7.89,21.11-.96,9.46-8.63,17.1-17.06,19.17-10.28,2.52-18.77-2.1-25.63-9.55Z" fill="#ba1c33"/>
    <path d="M230.72,163.11c-7.82,7.95-14.39,13.39-22.41,21.23l-8.45-8.64c-1.73-1.76-2.96-3.65-5.16-5.7,9.27-5.26,16.77-11.98,22.45-21.03l8.21,8.29c1.86,1.87,3.04,3.96,5.35,5.85Z" fill="#ba1c33"/>
  </g>
</svg>