<?xml version="1.0" encoding="UTF-8"?>
<svg id="Layer_1" data-name="Layer 1" xmlns="http://www.w3.org/2000/svg" viewBox="0 0 378.04 390.04">
  <defs>
    <style>
      .cls-1 {
        fill: #00ff00;
      }

      .cls-2 {
        fill: #00ff00;
      }

      .cls-3 {
        fill: #00aa00;
      }
    </style>
  </defs>
  <path class="cls-1" d="M281.07,101.64c0-25.55-20.71-46.25-46.25-46.25s-46.25,20.71-46.25,46.25,20.71,46.25,46.25,46.25,46.25-20.71,46.25-46.25Z"/>
  <path class="cls-3" d="M339.09,143.26c-12.88-40.09-40.6-72.76-78.05-92-13.46-6.91-28.8-8.17-43.2-3.54-14.4,4.63-26.14,14.59-33.06,28.04-6.91,13.46-8.17,28.8-3.54,43.21,4.63,14.4,14.59,26.14,28.04,33.06,8.26,4.24,17.08,6.25,25.79,6.25,20.57,0,40.45-11.23,50.47-30.75,2.82-5.49.66-12.22-4.83-15.04-5.49-2.82-12.22-.66-15.04,4.83-8.64,16.82-29.36,23.48-46.18,14.84-8.15-4.19-14.18-11.29-16.98-20.02-2.8-8.72-2.04-18.01,2.15-26.16,4.19-8.15,11.3-14.18,20.02-16.98,8.72-2.8,18.01-2.04,26.16,2.15h0c32.15,16.51,55.93,44.55,66.99,78.96,10.3,32.04,8.39,66.03-5.26,96.51l-78.26-66.79c-2.72-2.32-6.38-3.2-9.86-2.37-3.48.83-6.34,3.28-7.71,6.58l-16.92,40.76-27.64-47.23c-2.02-3.46-5.72-5.61-9.75-5.53-4.01.04-7.69,2.23-9.64,5.73l-15.87,28.43-24.88-46.81c-1.8-3.39-5.22-5.62-9.06-5.9-3.84-.27-7.54,1.43-9.81,4.53l-38.19,52.03c-3.85-27.4.8-55.27,13.7-80.39,16.51-32.14,44.55-55.93,78.96-66.99,5.87-1.89,9.11-8.18,7.22-14.05-1.89-5.87-8.18-9.11-14.05-7.22-40.09,12.88-72.76,40.6-92,78.05-19.24,37.45-22.74,80.16-9.86,120.24,12.88,40.09,40.6,72.76,78.05,92,22.62,11.62,47.14,17.5,71.86,17.5,16.21,0,32.51-2.53,48.39-7.63,40.09-12.88,72.76-40.6,92-78.05,19.24-37.45,22.74-80.15,9.86-120.24ZM62.05,238.16l38.61-52.6,23.31,43.85-31.66,56.75c-13.27-13.53-23.58-29.8-30.25-48ZM127.2,311.81c-6.19-3.18-12.07-6.79-17.61-10.79l53.18-95.31,67.12,114.72c-34.26,10.86-70.7,7.81-102.69-8.62ZM250.77,311.87l-36.8-62.9,17.51-42.2,70.07,59.8c-12.83,19.31-30.23,34.81-50.78,45.29Z"/>
  <path class="cls-2" d="M100.65,185.57l-21.16,28.82c3.4,19.48,11.84,37.23,23.92,51.85l20.55-36.82-23.31-43.85Z"/>
  <path class="cls-2" d="M119.94,282.48c19.13,15.27,43.37,24.41,69.75,24.41,10.36,0,20.39-1.41,29.91-4.05l-56.82-97.12-42.83,76.76Z"/>
  <path class="cls-2" d="M285.46,252.85l-53.98-46.07-17.51,42.2,26.7,45.64c18.53-9.5,34.05-24.02,44.79-41.77Z"/>
</svg>