<?xml version="1.0" encoding="UTF-8"?>
<svg id="Layer_1" data-name="Layer 1" xmlns="http://www.w3.org/2000/svg" viewBox="0 0 516 674">
  <defs>
    <style>
      .cls-1 {
        fill: #6d6a64;
      }

      .cls-2 {
        fill: #00ff00;
      }

      .cls-3 {
        fill: #fff;
      }

      .cls-4 {
        fill: #00aa00;
      }

      .cls-5 {
        fill: #00ff00;
      }
    </style>
  </defs>
  <path class="cls-4" d="M375.76,177.73c-3.13,7.34-8,13.96-14.62,18.66-.85,5.7-1.35,11.32-1.25,16.95,7.12,3.46,11.15,9.65,11.8,17.24l18.77,10.96c4.35-2.61,8.64-3.11,13.21-1.59,6.6,2.19,17.99,8.04,17.48,16.35,9.41,7.53,35.9,20.7,40.26,31.36,10.78,26.36,9.22,106.69,8.25,137.5l-2.47,2.11,2.5,33.68c.47,6.31.44,12.65.12,19.18-1.25,25.78-26.26,32.76-46.58,39.22-3.29,1.32-6.84,2.09-9.86,4.16-17.92,12.27-36.94,21.93-57.69,29.29l40.31,78.68c4.42,8.64,2.19,19.1-5.95,24.61-3.92,2.65-8.32,4.36-12.45,6.29h-8.15c-5.94-1.91-10.4-5.28-13.36-11.07l-45.67-89.24c-13.9,1.02-27.56,1.02-41.28-.89-10.02-1.4-19.71-3.1-28.95-7.11-9.68-1.3-15.97-8.96-24.13-12.62-6.28-6.03-14.05-15.71-13.95-25.14l.49-45.4-.94-56.84-4.87,12.46c-.15.39-1.03,1.22-1.23,1.43-2.08,14.28-9.14,27.22-23.65,31.92-8.63,2.8-23.79,4.21-31.26-.52-15.98-10.12-22.67-30.63-23-48.91-.26-14.59,4.37-28.43,12.11-40.54-1.56-3.08-1.6-6-.03-8.94,10.99-20.55,22.56-40.42,35.26-59.95l2.12-18.63-23.9-46.01-17.75-35.54c-3.46-6.94-1.62-14.54,3.1-20.96l-87.99,4.21c-3.8.18-6.94-1.72-8.6-4.91l-14.99-28.75v-4.32c1.63-1.09,1.15-4.07,5.12-6.31-3.38-5.77-.31-10.69,2.11-15.55s4.28-8.71,9.47-11.37l123.19-63.16c4.73-2.42,8.82-.97,13.58-.45,5.47.59,10.85,1.41,13.64,6.92l6.22,12.27c2.74,5.42-.15,10.06-2.61,14.63-2.25,4.18-3.57,8.33-8.21,10.71l-123.79,63.5c-4.64,2.38-8.79,2.04-14.16.56l3.93,7.81,89.41-4.3c3.62-.17,6.51,2.25,8.02,5.02l2.6,4.77c7.41-.81,15.38,2.16,19.07,9.01l12.43,23.07,25.89,51.26c4.74-3.68,9.43-7.15,14.97-8.47,3.1-.74,5.95-1.29,8.77-2.78-6.12-5.26-10.51-11.09-13.93-18.17-6.3-13.03-7.62-25.59-7.33-39.67.17-8.15.94-16.32.3-24.69-.66-8.61-1.43-16.87-1.12-25.68-5.76-.78-11.06.38-16.59,1.17-9.95,1.42-25.26-1.47-29.54-12.45-1.88-4.83-.49-10.07,2.41-14.19,3.19-4.52,7.47-7.53,12.34-10.21,10.8-5.93,22.32-9.7,34.5-12.6,5.43-23.54,18.36-42.2,40.44-52.9,9.84-4.77,20.04-7.78,31.05-9.28,5.44-.74,11.18-.46,16.67-.06,27.57,1.97,51.52,13.45,65.79,37.72,9.45,16.06,15.04,39.67,15.31,57.96l.5,34.11c.12,7.91,1.5,15.99-1.68,23.46ZM370.52,116.58c-1.72-18.83-5.39-36.65-15.08-52.45-8.61-14.15-21.67-24.16-37.49-29.22-11.65-3.56-23.47-5.15-35.92-4.27,31.82,4.29,48.88,26.71,57.52,56.15,3.97,13.6,5.91,27.2,7.04,41.57,6.84-2.51,18.92-6.2,23.94-11.78ZM333.51,132.63l9.07-2.93c-2.31-44.84-15.78-93.15-68.07-98.09-9.13,1.87-17.46,4.5-25.61,8.78-18.86,10.02-30.49,26.46-35,47.81,13.46-3.17,26.18-3.37,39.53-2.08,16.32,1.58,31.24,8.74,41.85,21.43,10.02,11.99,22.88,20.99,38.23,25.08ZM53.05,151.63l123.03-63.12c4.69-2.41,6.58-8.17,4.22-12.8l-8.06-15.8c-2.5-4.91-8.2-6.85-13.22-4.28l-123.06,63.13c-5.02,2.57-6.5,8.47-4.05,13.24l7.99,15.53c2.45,4.77,8.09,6.69,13.15,4.09ZM184.4,70.39l-5.55-10.82c-1.07-2.09-3.12-3.55-5.45-3.65l10.66,20.78c1.31-2.03,1.23-4.21.34-6.3ZM214.27,118.59c15.28,5.93,27.95,14.07,43.59,20.23,14.22,5.6,27.25,3.67,42.03.48,8.45-1.83,16.55-3.32,25.33-4.71-15.84-6.66-27.45-17.39-39.3-29.22-12.42-15.01-35.55-18.85-53.8-16.59-19.67,2.44-40.47,7.24-57.74,17.06-5.11,2.9-12.95,9.73-9.91,16.08,3.65,7.63,16.23,9.17,22.94,8.04,6.91-1.16,13.39-2.12,20.49-.77l1.39-8.05c-11.73-3.56-19.35-4.35-31.13-.49,9.86-9.76,24.68-6.49,36.11-2.06ZM243.82,243.05c9.67,2.03,19.66,2.3,29.77,1.05,13.9-1.73,26.54-7.12,37.33-15.9,4.75-3.87,8.61-8.17,12.59-12.49.09.03.39.29.38.44l-.04.49c-.01.12-.02.36-.02.48-.15.09-.8.63-.99.95-10.75,18.35-27.86,28.52-48.58,32.47.13,10.89,5.67,20.5,12.67,28.23,4.15.25,8.13-1.01,11.06-3.48,1.1-.44,2.65-1.11,3.82-2.04,10.36-8.26,20.14-16.74,29.6-26.03,7.29-7.17,18.08-18.73,22.08-27.93.16-7.87.19-15.39,1.38-23.69-4.72.31-14.68.2-16.95-4.4l3.11.77c6.08,1.51,13.01,1.55,18.38-2.21,3.51-2.46,6.1-6.21,8.11-9.72,5.8-10.1,5.49-22.58.59-33.11-2.59-5.57-8.2-7.11-13.54-5.46s-9.64,4.74-13.84,8.53c-1.79,1.61-3.07,3.25-3.99,5.18-.58,1.22-1.61,2.65-2.12,4.17-1.9,5.65-3.18,11.16-4.42,17.18l-7.97-.25c1.98,1.14,3.69,1.59,6,2.4l-9.53-.83c1.03-10.7,1.09-20.2-2.49-29.8-.84-2.24-2.01-4.49-3.3-6.84-7.72-.25-17.83,3.12-25.46,4.88-18.28,3.53-36.39-1.21-51.47-11.79-7.33-5.14-14.93-9.05-23.49-12.44-4.21,19.83.8,35.37-.51,54.96-.94,18.71-.67,35.62,9.88,51.67,3.55,5.4,7.88,9.98,13.63,12.9,2.6,1.32,5.74,1.13,8.34,1.68ZM33.43,148.16c.95,1.83,2.74,2.98,5.09,3.1l-10.54-20.68c-1.55,2.14-1.19,4.82-.02,7.07l5.47,10.52ZM136.8,182c-.5.13-1.51.5-1.94.84-5.42,4.32-6.13,10.96-3.07,16.92l41.14,80.25c2.3-.66,4.55-2.04,6.6-2.47,8.32-1.76,16.63-3.25,25.81-4.54l-44.96-87.91c-3.55-6.94-10.87-9.98-18.12-6.32l-4.75-9.41c-.51-1.01-1.73-1.83-3.1-1.76l-90.96,4.4c-1.12.05-2.22-.91-2.64-1.74l-13.36-26.1c-1.28.38-2.61,1.11-3.19,1.9-.88,1.2-.65,3.14,0,4.39l13.28,25.88c.49.95,1.78,1.56,3.03,1.5l91.85-4.43c1.68,1.12,4.71,7.04,4.39,8.6ZM315.18,303.38c18.72-19.11,41.62-46.05,49.74-71.1,1.6-4.92-1.65-10.26-6.03-12.36-11.97,19.97-32.48,40.24-50.98,53.98-4.14,3.08-8.29,5.4-12.96,7.48,10.43,5,17.08,10.11,20.23,22ZM252.28,249.64c-11.23,23.62-10.22,62.82-8.15,88.01.12,1.52,1.63,4.52,2.9,5.27,4.44,2.63,9.52,3.99,14.68,5.07,17.67,3.72,35.43,5.36,53.5,5.34,3.87,0,7.31-.42,11.01-1.52,10.22-29.18,22.1-59.3,40.28-84.41,5.82-7.85,12.11-14.85,19.95-20.91l-18.7-10.99c-4.22,10.8-9.32,20.35-15.7,30.21-9.98,15.75-23.58,32.24-36.09,45.43-.65.68-2.33.68-2.59.27-1.18-1.87-1.94-9.98-8.02-18.1-5.08-6.79-15.04-13.48-23.51-8.99-7.89,4.17-14.43,9.96-20.14,16.89-.4.48-1.62,1.03-2.16.87-.45-.14-1.03-.93-1.24-1.51-6.02-16.47-2.96-34.64,4.23-50.31l-10.23-.61ZM391.05,448.56c-.02-1.49-.09-2.89-.31-4.17-1.85-10.76-3.34-21.21-4.35-32.1-16.83-12.41-22.33-32.5-21.56-52.73.99-26.11,7.76-45.47,18.13-69.06,4.76-10.84,11.5-23.03,20.49-30.69,3.32-2.84,7.11-3.94,11.62-5.14-3.96-5.06-9.36-7.65-15.04-9.2-5.31-1.45-16.78,7.8-20.73,11.74-22.94,22.89-38.72,65.01-49.47,95.46-.67,1.89-3.46,3.11-5.47,3.2-18.79.84-37.08.7-55.66-2.44-6.77-1.14-12.84-3.33-19.47-5.33l60.4,117.96,22.52,4.75c15.31-3.02,30.05-7.69,43.84-15,5.08-2.69,9.5-4.98,15.07-7.25ZM234.58,312.7c1.33,2.39,2.26,6.27,2.79,8.89.28,1.39-1.69,1.76,2.35,7.59-1.38-25.64-3.15-57.85,10.08-80.32l-5.66-.98c-4.13-.72-9.49-1.69-13.5.31-6.56,3.27-10.44,24.52-11.48,31.76l1.08,3.91c2.78,1.26,6.3,8.32,6.88,10.76.44,1.83.85,2.53,1.92,4.03,4.13,5.77,3.36,10.16,5.53,14.07ZM284.05,280.28c-8.08-8.59-11.21-17.88-13.68-28.79-.48-.46-2.54-.73-3.04-.23-.43.43-.83,1.21-1.27,2.11-6.21,12.59-8.69,26.64-5.49,40.62,7.77-6.15,13.73-11.06,23.47-13.7ZM213.44,272.4l2.92,3.41c1.47-8.75,2.91-16.3,5.84-24.34-3.16.43-5.27,1.34-7.69,2.43-3.48,2.2-6.62,4.5-9.79,7.31l5.58,10.91,3.14.28ZM431.23,301.8c-.05.78-.61,1.59-1.34,2.05-8.1,5.1-16.33,8.96-24.77,13.32-6.44,3.32-10.87,9.76-14.05,16.03-2.58,5.09-3.96,10.25-4.9,15.86-4.6,27.35-.41,54.6,8.65,80.65,22.54,3.78,48.65,4.59,68.73-7.82.73-30.05,2.26-105.57-7.81-131.53-2.47-6.35-19.56-16.68-25.79-20.63-5.54-3.52-10.68-6.94-16.03-11.05-9.75,1.45-19.61,15.81-24.07,24.07-11.93,22.07-19.16,46.39-20.92,71.5-1.12,15.97.91,39.1,14.66,50.21-2.44-12.65-4.2-24.56-4.36-37.01-.11-8.2,1.86-15.41,3.3-23.24s.86-15.38,3.31-22.89c1.81-5.55,3.15-11.37,7.22-15.76-3.66,9.1-5.74,17.84-5.58,27.34l8.08-10.09c2.2-2.74,5.35-4.57,7.71-7.05,3.74-3.94,6.88-8.11,11.42-11.13,6.41-4.27,16.77-6.3,16.55-2.83ZM181.96,281.74c-2.97.09-6.11,1.78-8.74,3.43-2.42,20.38-5.3,40.32-10.39,60.15-3.94,15.36-11.63,28.96-22.36,40.32-6.77,12-8.32,22.72-9.06,36.4-3.05-16.64,1.81-32.97,9.92-48.16-1.81-.65-3.44-1.14-5.6-1.63-7.54,11.25-11.99,24.07-11.84,37.71.17,15.99,5.79,34.61,19.64,43.81,3.23,2.15,7.51,2.21,11.08,2.38,3.75.17,7.52-.35,11.42-1.1,18.45-3.55,24.21-20.98,23.99-37.89-.25-19.49-.44-34.23,3.77-53.92l-4.67-.14c-1-.03-2.46-.42-3.79-.77,12.2-2.86,21.37-7.71,24.84-20.95,7.64-5,15.95-9.98,21.75-16.82,1.32-1.9,1.37-4.05.1-5.77-.09-1.19-.59-3.06-1.18-4.25-.29-.59-2.1-.8-2.7-.41-3.93,2.53-8.29,4.85-12.47,6.69l12.72-10.16c.26-.21.54-1.13.48-1.45-.41-2.04-1.88-5.77-2.97-7.9-1.24-2.44-13.06,2.76-16.1,2.29v-.68l12.04-5.08c1.14-.48,1.19-1.75.91-2.56-.94-2.63-1.96-5.15-4.5-7.51l-18.97,2.19c-.54.06-1.58-.07-2.83-.2,5.64-1.64,11.41-2.99,17.55-4.28.47-.1.98-.94,1.17-1.34.17-.35.62-1.33.32-1.74l-4.27-5.83c-10.13,1.48-19.77,2.58-29.22,5.15ZM146.93,370.79c6.15-9.91,10.27-19.44,12.7-30.22,2.04-9.04,3.92-17.74,5.12-27.37-10.96,16.93-20.37,33.8-29.75,51.15-.78,1.44.55,3.21,1.68,3.53l10.24,2.91ZM214.01,344.74l-3.94,7.8,65.61,128.1c2.42-1.28,3.83-4.07,6.02-5.9l5.95-4.97c2.29-1.91,4.82-3.78,7.66-4.9,2.44-.96,5.39.25,8.19-.21l-69.46-135.62c-6.92,6.49-12.66,10.04-20.05,15.7ZM202.62,390.05c.56-2.23.09-4.93.79-6.75,2.65-6.89,4.9-13.5,6.51-20.69l-3.15-5.93c-2.93,2.34-5.38,4.07-8.27,5.9-3.62,14.45-4.42,28.99-4.36,43.73,0,2.03.17,3.79,1.65,5.22,2.64-7.24,4.95-13.95,6.84-21.47ZM288.81,542.87c-1.57-.84-2.44-3.42-3.57-4.16-2.12-1.4-4.24-2.1-5.65-4.26-2.25-3.45-4.6-6.79-4.73-11.02-4.31-.59-8.29-9.08-7.26-12.94-4.3-3.06-3.67-14.36-1.79-18.18,1.46-2.97,4.66-4.99,6.49-7.84l-59.44-116.04c-1.78,5.6-3.2,10.24-5.64,15.18l1.58,82.48-.48,49.96c-.06,6.35,4.12,12.21,8.11,16.67,4.63,5.16,10.15,8.64,16.27,11.7,21.76,10.88,51.47,13.42,76.12,11.49l-5.54-11.01-5.44,2.3c-3.09-1.22-5.99-2.7-9.04-4.33ZM419.82,435.94c-8.1-.15-16.24-.97-24.54-2.21.57,5.15.64,9.85.43,14.9,7.89-2.21,15.73-3.86,23.98-3.07,6.73.64,13.5,2.74,19.24,6.75l.06.4c-13.34-5.25-27.64-5.7-41.63-1.44-6.76,2.06-12.36,4.97-18.7,8.25-14.54,7.51-30.2,13.38-46.55,15.57l-28.93-5.22c-1.75-.32-4.4-1.51-6.44-.64-7.36,3.15-21.35,18.66-27.06,25.25-.79,2.11-1.75,12.92,1.75,12.55.57-.06,1.55-.61,2.08-1.14,6.62-6.54,12.88-13.04,20.93-18.58l-10.14,11.59c-4.09,4.68-7.95,8.81-12.41,13.33.19,1.81,2.33,6.32,3.89,6.74.55.15,1.78-.36,2.34-.75,7.17-5.13,13.67-10.8,22.01-14.93-4.72,8.07-11.84,13.55-18.91,18.94-.81.62-2,1.83-1.62,2.82,1.36,3.56,3.03,6.43,5.97,8.93,7.96-3.79,15.02-8.06,22.06-13.1-3.05,5.59-11.07,10.75-16.56,14.12-.41.25-1.03,1.07-1.13,1.51-.53,2.49,5.81,4.8,7.94,5.75,3.13-1.36,5.66-2.81,8.48-4.39,13.05-7.32,13.8-.68,27.01-7.57,4.64-2.42,7.97-6.26,12.26-9.18,8.56-5.84,40.66-7.3,52.08-7.8,16.61-.73,35.46-2.42,49.88-11.17,6.39-3.88,11.78-9.03,14.85-15.92,1.05-2.36.93-5.33,1.07-8.16.71-16.18-1.02-32.59-2.48-49.59-13.4,5.15-26.99,7.38-41.21,7.45ZM351.43,547.66c19.73-6.82,37.81-15.57,54.79-26.9-.08-1.27-.31-2.24-.8-3.28-13.81.63-26.99,1.27-40.55,3.06-5.67.75-10.9,1.91-16.28,3.71l-6.31,5.59,9.15,17.82ZM315.23,539.12c-2.64.52-5.18,1.69-7.81,3.46l54.52,106.45c3.23,6.31,10.51,9.04,16.94,5.99,5.34-2.54,12.37-5.36,12.69-12.29.73-2.32.58-5.06-.75-7.65l-52.48-102.49c-9.26,5.55-12.79,5.63-23.1,6.53Z"/>
  <path class="cls-5" d="M216.06,541.45c-64.58-28.93-109.48-92.17-115.6-163.17-4.43-51.35,10.84-101.89,42.77-141.91l23.9,46.01-2.12,18.63c-12.7,19.53-24.27,39.4-35.26,59.95-1.57,2.94-1.53,5.87.03,8.94-7.75,12.11-12.38,25.95-12.11,40.54.33,18.28,7.03,38.79,23,48.91,7.47,4.73,22.63,3.32,31.26.52,14.51-4.7,21.57-17.64,23.65-31.92.2-.2,1.07-1.04,1.23-1.43l4.87-12.46.94,56.84-.49,45.4c-.1,9.43,7.66,19.12,13.95,25.14Z"/>
  <path class="cls-5" d="M469.7,460.95l-2.5-33.68,2.47-2.11c.97-30.8,2.53-111.14-8.25-137.5-4.36-10.66-30.86-23.83-40.26-31.36.5-8.31-10.88-14.16-17.48-16.35-4.58-1.52-8.87-1.02-13.21,1.59l-18.77-10.96c-.65-7.59-4.69-13.78-11.8-17.24-.1-5.63.4-11.25,1.25-16.95,6.62-4.7,11.49-11.32,14.62-18.66,67.76,28.38,115.22,93.75,120.48,167.79.69,9.77.59,19.77-.04,29.8-1.92,30.4-11.25,59.66-26.51,85.63Z"/>
  <path class="cls-5" d="M205.39,185.36c-.3,14.08,1.03,26.65,7.33,39.67,3.43,7.08,7.82,12.91,13.93,18.17-2.82,1.49-5.67,2.04-8.77,2.78-5.54,1.33-10.23,4.8-14.97,8.47l-25.89-51.26c8.31-6.25,16.91-11.98,26.19-17.09.66-.36,1.6-.63,2.18-.75Z"/>
  <path class="cls-1" d="M391.05,448.56c-5.57,2.26-9.99,4.55-15.07,7.25-13.79,7.32-28.53,11.98-43.84,15l-22.52-4.75-60.4-117.96c6.63,2,12.7,4.19,19.47,5.33,18.58,3.14,36.87,3.28,55.66,2.44,2.01-.09,4.81-1.32,5.47-3.2,10.76-30.46,26.53-72.57,49.47-95.46,3.95-3.94,15.42-13.19,20.73-11.74,5.67,1.55,11.08,4.14,15.04,9.2-4.51,1.2-8.29,2.3-11.62,5.14-8.98,7.67-15.72,19.85-20.49,30.69-10.36,23.59-17.13,42.95-18.13,69.06-.77,20.24,4.73,40.33,21.56,52.73,1.01,10.89,2.49,21.34,4.35,32.1.22,1.27.29,2.68.31,4.17Z"/>
  <path class="cls-5" d="M431.23,301.8c.22-3.46-10.15-1.44-16.55,2.83-4.53,3.02-7.67,7.19-11.42,11.13-2.36,2.48-5.51,4.31-7.71,7.05l-8.08,10.09c-.16-9.49,1.92-18.24,5.58-27.34-4.06,4.39-5.4,10.21-7.22,15.76-2.45,7.51-1.9,15.23-3.31,22.89s-3.41,15.04-3.3,23.24c.16,12.45,1.92,24.36,4.36,37.01-13.76-11.11-15.78-34.23-14.66-50.21,1.76-25.11,8.98-49.43,20.92-71.5,4.47-8.26,14.33-22.63,24.07-24.07,5.35,4.11,10.49,7.54,16.03,11.05,6.23,3.96,23.32,14.28,25.79,20.63,10.08,25.96,8.54,101.48,7.81,131.53-20.08,12.41-46.19,11.59-68.73,7.82-9.06-26.05-13.25-53.3-8.65-80.65.94-5.6,2.32-10.76,4.9-15.86,3.18-6.27,7.61-12.7,14.05-16.03,8.45-4.36,16.67-8.23,24.77-13.32.74-.46,1.29-1.27,1.34-2.05ZM393.14,305.12c.16-.08.77-.37.79-.43s-.19-.57-.25-.72c-.19-.49-.3,1.03-.54,1.15Z"/>
  <path class="cls-1" d="M288.81,542.87c3.05,1.62,5.95,3.1,9.04,4.33l5.44-2.3,5.54,11.01c-24.66,1.92-54.36-.62-76.12-11.49-6.12-3.06-11.64-6.53-16.27-11.7-4-4.46-8.18-10.32-8.11-16.67l.48-49.96-1.58-82.48c2.44-4.95,3.86-9.59,5.64-15.18l59.44,116.04c-1.83,2.85-5.03,4.87-6.49,7.84-1.88,3.82-2.51,15.12,1.79,18.18-1.03,3.86,2.95,12.34,7.26,12.94.13,4.24,2.47,7.58,4.73,11.02,1.41,2.16,3.53,2.86,5.65,4.26,1.13.74,2,3.33,3.57,4.16Z"/>
  <path class="cls-3" d="M316.2,148.02c3.58,9.6,3.53,19.11,2.49,29.8l9.53.83c-2.31-.81-4.02-1.26-6-2.4l7.97.25c1.24-6.02,2.52-11.53,4.42-17.18.51-1.52,1.53-2.95,2.12-4.17-.03.53-.11,1.29-.32,2.04-3.16,11.21-3.57,23.71,1.5,33.99,2.27,4.6,12.23,4.72,16.95,4.4-1.19,8.3-1.23,15.82-1.38,23.69-4,9.2-14.78,20.76-22.08,27.93-9.46,9.3-19.24,17.77-29.6,26.03-1.16.93-2.72,1.6-3.82,2.04-2.48-1.78-5.12-3.69-6.23-6.89-1.22-3.51-.38-8.22,2.48-10.91,12.05-11.33,23.43-25.22,29.59-40.37,0-.12.01-.36.02-.48.13-.16.38-.43.46-.61l1.34-2.81c-.96.38-1.5,1.79-2.14,2.48-3.98,4.33-7.84,8.62-12.59,12.49-10.79,8.78-23.44,14.17-37.33,15.9-10.11,1.26-20.09.98-29.77-1.05-6.83-6.3-11.15-14.51-11.2-23.97,10.44,3.87,24.59-.4,33.94-5,.9-.44,1.67-1.52,1.73-2.28,2.08-.22,4.3-.82,6.49-.32.85.19,1.92.32,2.41.03s.7-1.92.38-2.45c-1-1.62-3.05-2.84-5.1-3.75l.06,2.08-23.96,2.68c-6.55.73-12.97.21-19.69.24-3.1-3.26,3.16-9.58,2.51-14.82l.73-.69c-2.89-.14-11.61-.43-11.21-5,.17-1.91.94-3.89,1.96-5.47,4.09-6.35,5.77-13.23,6.52-20.47,6.24-2.24,12.7-1.03,18.64,2.6,8.66,8.35,19.2,14.32,31.26,16.47,10.6,1.89,21.81-1.46,27.4-11.42,3.97-7.07,6.51-14.64,8.53-22.56.08-.31.82-.96.97-.9Z"/>
  <path class="cls-3" d="M463.51,478.09c-1.54,3.6-3.48,6.61-6.81,9.11-5.05,3.79-10.37,6.76-16.35,9.05-22.11,8.49-49.22,10.19-72.8,10.41-8.86.08-22.9.32-29.77,6.44l9.55-1.3c-4.17,3.37-20.23,16.25-25.1,13.52-.04-3.33-.87-6.07-2.91-8.62-5.48-6.86-11.25-14.23-12.35-23.46-1.83-15.38-10.78-15.56-9.16-20.42.29-.86,1.73-1.73,2.82-2.09l2.53-.84,28.93,5.22c16.35-2.2,32.01-8.06,46.55-15.57,6.34-3.28,11.94-6.19,18.7-8.25,13.99-4.27,28.29-3.81,41.63,1.44l1.7.67c-.55-.35-1.3-.75-1.76-1.07-5.75-4.01-12.51-6.11-19.24-6.75l.13-9.62c14.22-.06,27.81-2.3,41.21-7.45,1.46,17,3.19,33.41,2.48,49.59ZM441.86,453.89c0-.13-.11-.24-.24-.24s-.24.11-.24.24.11.24.24.24.24-.11.24-.24Z"/>
  <path class="cls-1" d="M181.96,281.74c4.14-.12,11.31,1.02,14.47,4.74,6.34-1.13,12.52-2.48,18.7-2.32-.19.39-.7,1.24-1.17,1.34-6.15,1.29-11.92,2.64-17.55,4.28,1.25.13,2.29.26,2.83.2l6.93,11.49c5.65-2.63,10.98-4.82,16.55-6.16.29.81.24,2.08-.91,2.56l-12.04,5.08-3.01,1.11,1.02.46,5.53,11.63,15.52-6.92c.06.31-.21,1.24-.48,1.45l-12.72,10.16,3.76,8.96,12.59-10.99c1.27,1.72,1.22,3.87-.1,5.77-5.81,6.84-14.12,11.82-21.75,16.82-3.47,13.24-12.64,18.09-24.84,20.95,1.34.34,2.79.74,3.79.77-2.23,21.93-5.78,48.35-14.1,69.07-4.15,10.33-10.13,19.97-20.41,23.97-3.57-.16-7.84-.23-11.08-2.38-13.85-9.2-19.47-27.82-19.64-43.81-.14-13.64,4.3-26.46,11.84-37.71,2.16.49,3.79.97,5.6,1.63-8.11,15.19-12.97,31.52-9.92,48.16.74-13.68,2.3-24.4,9.06-36.4,10.73-11.36,18.43-24.96,22.36-40.32,5.08-19.83,7.97-39.77,10.39-60.15,2.63-1.65,5.77-3.34,8.74-3.43Z"/>
  <path class="cls-5" d="M333.51,132.63c-15.35-4.08-28.21-13.09-38.23-25.08-10.61-12.69-25.53-19.85-41.85-21.43-13.36-1.29-26.07-1.09-39.53,2.08,4.5-21.36,16.14-37.79,35-47.81,8.15-4.28,16.49-6.91,25.61-8.78,52.29,4.93,65.76,53.24,68.07,98.09l-9.07,2.93Z"/>
  <path class="cls-5" d="M252.28,249.64l10.23.61c-7.19,15.66-10.24,33.84-4.23,50.31.21.58.79,1.38,1.24,1.51.54.16,1.76-.39,2.16-.87,5.71-6.93,12.25-12.71,20.14-16.89,8.47-4.48,18.43,2.2,23.51,8.99,6.08,8.13,6.84,16.24,8.02,18.1.26.41,1.95.41,2.59-.27,12.51-13.19,26.11-29.68,36.09-45.43,6.38-9.86,11.49-19.41,15.7-30.21l18.7,10.99c-7.84,6.06-14.13,13.06-19.95,20.91-18.18,25.12-30.06,55.23-40.28,84.41-3.7,1.1-7.14,1.51-11.01,1.52-18.07.02-35.83-1.62-53.5-5.34-5.15-1.08-10.23-2.44-14.68-5.07-1.27-.75-2.78-3.75-2.9-5.27-2.07-25.19-3.08-64.39,8.15-88.01Z"/>
  <path class="cls-5" d="M53.05,151.63c-5.06,2.6-10.7.67-13.15-4.09l-7.99-15.53c-2.45-4.77-.97-10.67,4.05-13.24l123.06-63.13c5.02-2.58,10.72-.63,13.22,4.28l8.06,15.8c2.36,4.63.47,10.39-4.22,12.8l-123.03,63.12Z"/>
  <path class="cls-5" d="M214.27,118.59c-11.44-4.44-26.25-7.7-36.11,2.06,11.78-3.86,19.4-3.07,31.13.49l-1.39,8.05c-7.11-1.35-13.58-.4-20.49.77-6.71,1.13-19.29-.41-22.94-8.04-3.04-6.35,4.81-13.18,9.91-16.08,17.27-9.81,38.07-14.62,57.74-17.06,18.25-2.26,41.38,1.58,53.8,16.59,11.85,11.83,23.46,22.56,39.3,29.22-8.78,1.39-16.88,2.88-25.33,4.71-14.78,3.19-27.81,5.13-42.03-.48-15.64-6.16-28.31-14.3-43.59-20.23Z"/>
  <path class="cls-1" d="M316.2,148.02c-.15-.06-.89.59-.97.9-2.02,7.92-4.57,15.5-8.53,22.56-5.59,9.95-16.8,13.31-27.4,11.42-12.06-2.15-22.6-8.12-31.26-16.47-5.94-3.63-12.41-4.85-18.64-2.6l-.22-4.4c-2.13,9.59-6.22,18.38-12.74,25.86-2.42,2.78-1.55,6.45,1.12,8.72,3.95,3.36,9.24,3.38,13.85,1.46.65,5.24-5.61,11.56-2.51,14.82l-1.35.35c5.93,2.92,12.7,4.11,19.67,3.38l21.08-2.22c-.07.76-.84,1.84-1.73,2.28-9.34,4.6-23.49,8.87-33.94,5,.05,9.46,4.37,17.67,11.2,23.97-2.6-.55-5.73-.35-8.34-1.68-5.74-2.92-10.07-7.5-13.63-12.9-10.56-16.05-10.83-32.95-9.88-51.67,1.31-19.59-3.7-35.13.51-54.96,8.56,3.39,16.16,7.3,23.49,12.44,15.08,10.58,33.18,15.31,51.47,11.79,7.62-1.76,17.74-5.14,25.46-4.88,1.29,2.35,2.47,4.6,3.3,6.84Z"/>
  <path class="cls-3" d="M281.71,474.74l-67.7-130c7.39-5.66,13.13-9.22,20.05-15.7l69.46,135.62c-2.81.46-5.75-.75-8.19.21-2.84,1.12-5.37,2.99-7.66,4.9l-5.95,4.97Z"/>
  <path class="cls-3" d="M179.54,277.54l-43.06-83.39c-2.04-3.96-.47-8.36.32-12.15.33-1.56-2.7-7.48-4.39-8.6l-91.85,4.43c-1.24.06-2.54-.56-3.03-1.5l-13.28-25.88c-.64-1.25-.87-3.19,0-4.39.57-.78,1.9-1.51,3.19-1.9l13.36,26.1c.43.83,1.52,1.79,2.64,1.74l90.96-4.4c1.37-.07,2.59.75,3.1,1.76l4.75,9.41c7.26-3.66,14.58-.62,18.12,6.32l44.96,87.91c-9.18,1.29-17.49,2.78-25.81,4.54Z"/>
  <path class="cls-1" d="M303.17,469.88l-2.53.84c-1.09.36-2.53,1.23-2.82,2.09-1.62,4.86,7.34,5.04,9.16,20.42,1.1,9.24,6.87,16.6,12.35,23.46,2.03,2.55,2.87,5.3,2.91,8.62,4.87,2.74,20.93-10.15,25.1-13.52l-9.55,1.3c6.86-6.13,20.9-6.36,29.77-6.44,23.58-.22,50.69-1.92,72.8-10.41,5.97-2.29,11.3-5.26,16.35-9.05,3.33-2.5,5.27-5.51,6.81-9.11-.14,2.83-.01,5.8-1.07,8.16-3.07,6.88-8.46,12.04-14.85,15.92-14.43,8.75-33.27,10.45-49.88,11.17-11.42.5-43.52,1.96-52.08,7.8-4.28,2.92-7.61,6.76-12.26,9.18-13.21,6.89-13.96.24-27.01,7.57-2.82,1.58-5.36,3.02-8.48,4.39-2.13-.95-8.48-3.26-7.94-5.75.1-.44.72-1.26,1.13-1.51,5.48-3.37,13.51-8.53,16.56-14.12-7.04,5.04-14.1,9.32-22.06,13.1-2.93-2.5-4.61-5.37-5.97-8.93-.38-.99.81-2.2,1.62-2.82,7.06-5.4,14.19-10.87,18.91-18.94-8.34,4.14-14.84,9.8-22.01,14.93-.56.4-1.79.9-2.34.75-1.56-.42-3.7-4.92-3.89-6.74,4.46-4.52,8.32-8.65,12.41-13.33l10.14-11.59c-8.05,5.54-14.3,12.04-20.93,18.58-.53.53-1.52,1.08-2.08,1.14-3.5.37-2.54-10.44-1.75-12.55,5.72-6.59,19.71-22.1,27.06-25.25,2.04-.87,4.69.32,6.44.64Z"/>
  <path class="cls-3" d="M391.56,642.73c-3.79,1.43-14.51,9.46-19.17,7.42l-57.16-111.03c10.3-.9,13.83-.98,23.1-6.53l52.48,102.49c1.33,2.6,1.48,5.33.75,7.65Z"/>
  <path class="cls-5" d="M370.52,116.58c-5.02,5.58-17.1,9.26-23.94,11.78-1.13-14.37-3.07-27.97-7.04-41.57-8.64-29.44-25.7-51.86-57.52-56.15,12.46-.87,24.27.72,35.92,4.27,15.81,5.06,28.88,15.07,37.49,29.22,9.69,15.79,13.36,33.62,15.08,52.45Z"/>
  <path class="cls-5" d="M315.18,303.38c-3.15-11.89-9.8-17-20.23-22,4.67-2.08,8.82-4.4,12.96-7.48,18.51-13.75,39.02-34.01,50.98-53.98,4.37,2.11,7.62,7.45,6.03,12.36-8.12,25.05-31.02,51.99-49.74,71.1Z"/>
  <path class="cls-5" d="M315.23,539.12l57.16,111.03c4.67,2.04,15.38-5.99,19.17-7.42-.32,6.93-7.34,9.76-12.69,12.29-6.43,3.05-13.71.32-16.94-5.99l-54.52-106.45c2.63-1.77,5.17-2.94,7.81-3.46Z"/>
  <path class="cls-5" d="M281.71,474.74c-2.19,1.83-3.6,4.62-6.02,5.9l-65.61-128.1,3.94-7.8,67.7,130Z"/>
  <path class="cls-1" d="M234.58,312.7c-2.17-3.91-1.41-8.3-5.53-14.07-1.07-1.5-1.49-2.2-1.92-4.03-.58-2.44-4.1-9.5-6.88-10.76l-1.08-3.91c1.04-7.24,4.92-28.49,11.48-31.76,4.01-2,9.36-1.03,13.5-.31l5.66.98c-13.23,22.47-11.46,54.68-10.08,80.32-4.03-5.83-2.07-6.19-2.35-7.59-.53-2.62-1.46-6.5-2.79-8.89Z"/>
  <path class="cls-1" d="M344.07,163.88c-1.5,3.31-4.13,12.48-.56,15.6,1.51,1.32,3.72,2.01,5.87,1.62,4.63-.83,7.69-6.32,5.73-10.57-1-2.19-3.56-2.3-5.84-2.59,3.23-3.97,8.07-5.31,13.55-5.63-4.19-2.47-8.62-1.52-13.19-.07,2.59-6.64,5.67-9.27,11.23-9.95,3.97,1.31,6.23,5.21,6.59,9.74.46,5.7-1.61,10.77-3.87,16.56,2.53-1.46,2.84-4.21,4.56-6.71l-.99,7.9.38.25c-2.02,3.51-4.6,7.26-8.11,9.72-5.37,3.76-12.3,3.72-18.38,2.21l-3.11-.77c-5.07-10.28-4.66-22.77-1.5-33.99.21-.74.29-1.51.32-2.04.92-1.93,2.21-3.57,3.99-5.18,4.2-3.78,8.65-6.93,13.84-8.53,3.74.76,10.42,2.08,11.67,8.34-3.63-2.36-6.53-4.33-10.58-2.98-1.61.54-4.23,1.29-5.4,2.62-3.61,4.11-5.71,9.28-6.18,14.44Z"/>
  <path class="cls-1" d="M351.43,547.66l-9.15-17.82,6.31-5.59c5.38-1.79,10.61-2.96,16.28-3.71,13.56-1.79,26.74-2.43,40.55-3.06.48,1.03.72,2,.8,3.28-16.98,11.33-35.06,20.08-54.79,26.9Z"/>
  <path class="cls-3" d="M154.6,456.15c10.28-4,16.26-13.64,20.41-23.97,8.32-20.72,11.86-47.14,14.1-69.07l4.67.14c-4.21,19.68-4.02,34.43-3.77,53.92.22,16.91-5.54,34.34-23.99,37.89-3.9.75-7.66,1.27-11.42,1.1Z"/>
  <path class="cls-5" d="M136.8,182c-.79,3.79-2.36,8.19-.32,12.15l43.06,83.39c-2.05.43-4.3,1.82-6.6,2.47l-41.14-80.25c-3.05-5.96-2.35-12.6,3.07-16.92.43-.34,1.44-.72,1.94-.84Z"/>
  <path class="cls-1" d="M297.99,275.28c-2.93,2.48-6.91,3.73-11.06,3.48-7.01-7.73-12.55-17.34-12.67-28.23,20.72-3.95,37.83-14.12,48.58-32.47.18-.31.84-.86.99-.95-6.16,15.15-17.54,29.04-29.59,40.37-2.86,2.69-3.69,7.4-2.48,10.91,1.11,3.21,3.75,5.11,6.23,6.89Z"/>
  <path class="cls-5" d="M146.93,370.79l-10.24-2.91c-1.13-.32-2.46-2.09-1.68-3.53,9.37-17.35,18.79-34.23,29.75-51.15-1.2,9.63-3.08,18.34-5.12,27.37-2.44,10.78-6.56,20.31-12.7,30.22Z"/>
  <path class="cls-5" d="M284.05,280.28c-9.74,2.64-15.7,7.55-23.47,13.7-3.2-13.98-.72-28.02,5.49-40.62.44-.89.85-1.68,1.27-2.11.5-.5,2.56-.22,3.04.23,2.47,10.92,5.6,20.21,13.68,28.79Z"/>
  <path class="cls-5" d="M202.62,390.05c-1.89,7.52-4.2,14.23-6.84,21.47-1.48-1.44-1.64-3.19-1.65-5.22-.06-14.73.74-29.27,4.36-43.73,2.89-1.83,5.34-3.56,8.27-5.9l3.15,5.93c-1.61,7.2-3.86,13.81-6.51,20.69-.7,1.82-.22,4.52-.79,6.75Z"/>
  <path class="cls-3" d="M367.52,180.02l-.38-.25.99-7.9c-1.72,2.51-2.02,5.25-4.56,6.71,2.26-5.79,4.33-10.86,3.87-16.56-.36-4.52-2.62-8.42-6.59-9.74-3.53-1.17-6.99-1.32-10.04,1.73-2.74,2.73-5.13,6.31-6.74,9.87.48-5.16,2.57-10.33,6.18-14.44,1.17-1.33,3.79-2.08,5.4-2.62,4.05-1.35,6.96.62,10.58,2.98-1.25-6.27-7.94-7.58-11.67-8.34,5.34-1.65,10.95-.11,13.54,5.46,4.9,10.53,5.21,23.01-.59,33.11ZM366.57,150.16c0-.13-.11-.24-.24-.24s-.24.11-.24.24.11.24.24.24.24-.11.24-.24ZM367.05,151.12c0-.13-.11-.24-.24-.24s-.24.11-.24.24.11.24.24.24.24-.11.24-.24Z"/>
  <path class="cls-1" d="M419.82,435.94l-.13,9.62c-8.25-.79-16.09.86-23.98,3.07.21-5.06.14-9.75-.43-14.9,8.3,1.24,16.43,2.06,24.54,2.21Z"/>
  <path class="cls-5" d="M213.44,272.4l-3.14-.28-5.58-10.91c3.17-2.81,6.32-5.11,9.79-7.31,2.43-1.09,4.53-2,7.69-2.43-2.92,8.04-4.36,15.59-5.84,24.34l-2.92-3.41Z"/>
  <path class="cls-3" d="M228.84,309.22l-15.52,6.92-5.53-11.63,1.98-.9c3.05.47,14.86-4.73,16.1-2.29,1.08,2.13,2.56,5.85,2.97,7.9Z"/>
  <path class="cls-3" d="M222.72,295.3c-5.57,1.35-10.9,3.54-16.55,6.16l-6.93-11.49,18.97-2.19c2.55,2.36,3.57,4.88,4.5,7.51Z"/>
  <path class="cls-3" d="M215.13,284.16c-6.18-.17-12.36,1.19-18.7,2.32-3.16-3.72-10.33-4.86-14.47-4.74,9.45-2.57,19.09-3.67,29.22-5.15l4.27,5.83c.3.41-.15,1.39-.32,1.74Z"/>
  <path class="cls-3" d="M231.99,318.79l-12.59,10.99-3.76-8.96c4.17-1.84,8.54-4.16,12.47-6.69.61-.39,2.41-.18,2.7.41.59,1.2,1.08,3.06,1.18,4.25Z"/>
  <path class="cls-3" d="M33.43,148.16l-5.47-10.52c-1.17-2.25-1.53-4.93.02-7.07l10.54,20.68c-2.35-.11-4.14-1.27-5.09-3.1Z"/>
  <path class="cls-5" d="M184.4,70.39c.9,2.1.98,4.27-.34,6.3l-10.66-20.78c2.33.11,4.37,1.56,5.45,3.65l5.55,10.82Z"/>
  <path class="cls-5" d="M324.31,216.03l-.42.11c.01-.15-.29-.4-.38-.44.64-.69,1.18-2.11,2.14-2.48l-1.34,2.81Z"/>
  <polygon class="cls-5" points="209.77 302.94 209.77 303.62 207.78 304.51 206.76 304.05 209.77 302.94"/>
  <path class="cls-5" d="M438.99,452.71l-.06-.4c.45.31,1.2.72,1.76,1.07l-1.7-.67Z"/>
  <path class="cls-2" d="M323.85,216.63l.04-.49.42-.11c-.08.17-.33.45-.46.61Z"/>
  <path class="cls-4" d="M393.14,305.12c.23-.12.35-1.64.54-1.15.05.14.27.65.25.72s-.62.35-.79.43Z"/>
  <path class="cls-4" d="M268.29,211.8l-21.08,2.22c-6.97.73-13.74-.46-19.67-3.38l1.35-.35c6.71-.03,13.14.49,19.69-.24l23.96-2.68-.06-2.08c2.05.91,4.09,2.13,5.1,3.75.33.53.11,2.16-.38,2.45s-1.56.17-2.41-.03c-2.19-.5-4.41.1-6.49.32Z"/>
  <path class="cls-4" d="M229.39,163.83c-.75,7.25-2.43,14.12-6.52,20.47-1.02,1.59-1.79,3.57-1.96,5.47-.4,4.57,8.33,4.86,11.21,5l-.73.69c-4.61,1.93-9.9,1.9-13.85-1.46-2.68-2.28-3.54-5.95-1.12-8.72,6.52-7.48,10.61-16.26,12.74-25.86l.22,4.4Z"/>
  <circle class="cls-5" cx="441.62" cy="453.89" r=".24"/>
  <path class="cls-4" d="M360.86,152.28c-5.56.68-8.64,3.31-11.23,9.95,4.58-1.45,9.01-2.39,13.19.07-5.48.32-10.31,1.66-13.55,5.63,2.28.29,4.83.4,5.84,2.59,1.95,4.25-1.1,9.75-5.73,10.57-2.16.39-4.36-.3-5.87-1.62-3.57-3.12-.94-12.3.56-15.6,1.61-3.56,4-7.14,6.74-9.87,3.05-3.04,6.51-2.9,10.04-1.73Z"/>
  <circle class="cls-2" cx="366.81" cy="151.12" r=".24"/>
  <circle class="cls-2" cx="366.33" cy="150.16" r=".24"/>
</svg>