<?xml version="1.0" encoding="UTF-8"?>
<svg id="Layer_1" data-name="Layer 1" xmlns="http://www.w3.org/2000/svg" xmlns:xlink="http://www.w3.org/1999/xlink" viewBox="0 0 336.03 384.04">
  <defs>
    <style>
      .cls-1 {
        fill: url(#linear-gradient);
      }
    </style>
    <linearGradient id="linear-gradient" x1="55.85" y1="199.49" x2="305.86" y2="199.49" gradientUnits="userSpaceOnUse">
      <stop offset="0" stop-color="#00ff00"/>
      <stop offset="1" stop-color="#00ff00"/>
    </linearGradient>
  </defs>
  <path class="cls-1" d="M211.83,40.01h-113.94c-23.18,0-42.04,18.86-42.04,42.04v44.25c0,23.18,18.86,42.04,42.04,42.04h113.94c18.91,0,34.29-15.38,34.29-34.29s-15.38-34.29-34.3-34.29l-54.17.03c-23.18,0-42.04,18.86-42.04,42.04v2.18h-17.73c-9.76,0-17.7-7.94-17.7-17.7v-44.25c0-9.76,7.94-17.7,17.7-17.7h113.94c38.43,0,69.69,31.26,69.69,69.69s-31.26,69.69-69.69,69.69h-113.94c-23.18,0-42.04,18.86-42.04,42.04v71.17c0,23.18,18.86,42.04,42.04,42.04s42.04-18.86,42.04-42.04v-71.17c0-9.76,7.94-17.7,17.7-17.7h54.21c51.85,0,94.03-42.18,94.03-94.03s-42.18-94.03-94.03-94.03ZM139.95,141.82c0-9.76,7.94-17.7,17.71-17.7l54.17-.03c5.49,0,9.96,4.47,9.96,9.96s-4.47,9.96-9.96,9.96h-71.88v-2.18ZM115.59,245.77v71.17c0,9.76-7.94,17.7-17.7,17.7s-17.7-7.94-17.7-17.7v-71.17c0-9.76,7.94-17.7,17.7-17.7h21.62c-2.51,5.38-3.92,11.38-3.92,17.7Z"/>
</svg>