<?xml version="1.0" encoding="UTF-8"?>
<svg id="Layer_1" data-name="Layer 1" xmlns="http://www.w3.org/2000/svg" viewBox="0 0 460.85 416.25">
  <defs>
    <style>
      .cls-1 {
        fill: #666666;
      }

      .cls-2 {
        fill: #00ff00;
      }

      .cls-3 {
        font-family: Poppins-ExtraBoldItalic, Poppins;
        font-size: 12px;
        font-style: italic;
        font-weight: 700;
      }
    </style>
  </defs>
  <g>
    <path class="cls-2" d="M123.74,160.57h-29.62c-.79-1.28-1.66.46-3.38,0v-17.25h-17.25v-16.12l-1.12-1.12h-13.88c-.12,1.07.19,2.37,0,3.38-.05.28-.66.44-.75.75-.44,1.46.71,2.04.75,2.25.67,3.76-.6,8.11-.75,11.25-.38,8.07.28,16.3,0,24.38-2.85-.13-5.78.18-8.62,0-.27-.02-.49-.74-.75-.75-7.75-.42-15.84.31-23.62,0,.41,1.2-.7,1.58-.75,1.88-1.53,8.98,1.59,22.61,0,31.5-.05.28-.66.44-.75.75-.27.88.31,2.39,1.12,2.62.47.13,1.05-.14,1.5,0,.6.19,1.45,1.3,3,.75l1.12,1.12c-.22.14-.39.34-.52.57h1.77c.11-.49.21-.9.25-.95.08-.08,1.49.21,1.88-.75l4.5,1.5,5.25-3.75c1.42.09,2.91-.46,3.75.75l12.75,12c.96.4,3.01,1.66,3.75,2.25.82.66,2.85,2.59,3.38,3.38.11.16-.12.55,0,.75,1.17,1.98,2.6,3.99.75,6l1.12,1.12,5.25,1.5c2.47,1.81,6.11,1.48,9,2.25,1.92.51,3.25,2,6,1.5,1.89-.34,5.75-2.69,7.5-3,1.22-.22,5.53-.22,6.75,0,.28.05.44.65.75.75.45.14,1.03-.13,1.5,0,.35.1.99,1.15,1.5,1.5.18.13.6-.11.75,0,1.58,1.19,1.92,2.91,3.38,4.12l2.25,6.38c1.57-.6,2.53,2.01,3.38,2.25,2.04.59,3.7,1.22,5.31,1.93v-3.51c0-.28.11-.51.29-.69-.36-4.91-.13-11.16.03-16.1.52-16.38.93-34.62,1.5-51,.19-5.36-.14-10.77,0-16.12Z"/>
    <path class="cls-1" d="M437.8,205.36c-.35-7.35-1.32-16.67-1.5-24-.19-7.86.14-15.77,0-23.62h-8.25l-.75-35.25-137.62.75-1.12,1.12v14.05c.2.19.33.45.33.73v2.09s.03,0,.04,0c.52.06,2.74.54,3.75.75.44.09,6.59,3.14,7.5,3.75,1.45.97,2.84,2.41,3.38,3.38.69,1.23,1.91,1.44,2.62,1.88,6.15,3.7,12.32,7.21,18,11.25.23.17,1.17.02,1.88,1.12.1.16-.11.54,0,.75,1.25,2.24,1.93,3.08,1.5,6-.04.28-.7.46-.75.75-.36,2.01-.32,4.82-.75,6.75-.04.17-1.31,2.71-1.5,3-1.46,2.2-4.8,3.31-6.38,5.62l-4.88,3.38c-.34,3.54-1.69,5.41-4.12,7.12-1.42,1-2.7,3-4.12,4.12.16,1.17-.23,2.69,0,3.75.06.27.62.43.75.75.84,2.11,1.96,3.5,3,5.25,1.63,2.75,1.62,3.09,2.25,6,.06.29.7.47.75.75,0,.05,0,.1,0,.15h3.4c.24,0,.45.1.62.24l120.85.73,1.12-1.12c-.14-3.99.19-8.02,0-12Z"/>
    <path class="cls-2" d="M174.05,239.28s-.01-.02-.02-.02c-.07-.08-.14-.16-.19-.26-.05-.04-.1-.08-.14-.13-.09.16-.19.29-.35.4-.23.15-.51.16-.77.1,0,0,0,0,0,0-.42,1.42-4.03,6.52-5.99,6.35v1.5c-1.38-.57-2.35.7-2.62.75-2.75.51-3.31.25-6,1.5-2.57,1.19-3.26,3.18-5.25,4.5-1.38.92-4.11,1.67-5.25,2.25-3.07,1.58-7.8,6.01-10.5,6.75-.62.17-1.57-.15-2.25,0-.29.06-.47.71-.75.75-1.02.15-3.52.17-4.5,0-.28-.05-.45-.68-.75-.75-2.96-.73-5.3-1.34-7.5-3.75l-6-2.25c-1.6.09-7.63-5.53-7.88-6.38-.14-.48.15-1.08,0-1.5-.35-.96-1.08-3.05-1.5-3.75-.21-.35-2.45-2.58-2.62-2.62-.62-.17-1.56.14-2.25,0-.29-.06-.51-1.02-1.5-.75-.3.08-.47.69-.75.75-.69.14-1.63-.17-2.25,0-.33.09-1.92,1.41-2.25,1.5-.64.18-1.65-.19-2.25,0-.5.16-2.67,1.44-3,1.5-2.01.37-5.24-.92-7.5-1.5-5.25-1.35-10.49-2.86-15.75-5.25-1.2-.54-2.59-.7-3.38-1.88v-7.5l-4.12-2.62-13.5-12.75-3.75,3c-1.87-.22-4.24.31-6,0-.09-.02-.31-.25-.6-.47-.05.39-.13.77-.3,1.14-.06.14-.17.24-.31.32.28.28.53.65.83.88v41.25c-1.07,19.11-.58,42.04-.75,61.5v31.12l129,.75c-.57-1.36.72-2.4.75-2.62,1.6-10.61,2.67-21.01,4.5-31.5,1.07-6.11,2.83-12.65,3.75-18.75,1.35-8.96-.05-20.1,1.5-27,.97-4.34.49-19.27.75-24.75.15-3.25-.03-6.53-.02-9.78,0,0-.01-.02-.02-.03Z"/>
    <path class="cls-2" d="M179.57,271.48c2.33-.41,4.46.61,4.5,3h4.5c-.08.93,1.11,3.53,1.88,3.75.89.26,1.84-.28,2.62,1.12l-.75,1.88,3.75-.75.75-1.88-1.5-6,1.88-2.62h3.75l4.5,4.5c.76-.9,1.92-.76,2.62-1.88.51-.8.54-2.51.75-3,.45-1.02,1.78-2.11,1.5-3.38h42.75c.59,1.31-.76,2.49-.75,2.62.02.26.66.44.75.75.54,1.93-1.89,3.88-3.75,3.38.05.36-.13.81,0,1.12.34.81,1.21,2.21,1.5,3,.27.74-.31,1.88,1.12,2.62l3-1.5,1.12,2.25c1.18-1.1,2.4-.46,3.38-.75.48-.14,2.67-1.44,3-1.5,2.18-.4,3.56.8,5.62.75l.75,2.62-3,4.5v6.44c.07.1.12.21.17.33-.03-.07-.06-.13-.08-.2.05.12.12.22.2.33.09.1.19.2.3.29.24.17.5.31.77.43.13.05.26.09.39.13.97-.96,2.27-1.81,3.51-3.25,1.02-1.2,4.94-6.8,5.25-8.25.56-2.57.95-5.07,1.5-7.5.85-3.76,1.32-7.53,2.25-11.25.71-2.85,1.84-5.77,3.27-8.59-1.02-.25-2.04-.47-2.93-1.07-.13-.09-.23-.2-.31-.32-.29-.17-.56-.35-.78-.52-.89-.65-1.8-2.17-2.62-2.62-.35-.2-.98.14-1.12,0-.14-.14.2-.77,0-1.12-.61-1.09-2.03-2.11-3-3.75-.34-.58-1.31-1.76-1.5-2.25-.16-.41.13-1.01,0-1.5-.08-.31-.75-.5-.75-.75s.7-.46.75-.75c.15-.93-.19-2.13,0-3,.06-.26,1.44-1.99,1.5-2.25.29-1.35.45-2.48.75-3.75.66-2.81.48-5.69,1.5-8.25,1.45-3.64,5.4-9.42,7.5-12.75,1.92-3.04,3.59-5.93,6.84-7.27.13-.17.29-.3.5-.35,1.02-.23,2.08-.43,3.13-.43,0-.07,0-.14.03-.2.12-.29.61-.44.75-.75.11-.23-.1-.59,0-.75.3-.5,4.41-4.62,4.88-4.88.35-.2.98.14,1.12,0,.32-.32,1.22-4.24,1.5-4.88,1.41-3.22,3.41-3.22,5.62-4.88,1.98-1.48,3.6-3.47,5.62-4.88l-.75-3.38-4.12-.75-4.5,3c-1.17-.16-2.69.23-3.75,0-.27-.06-.43-.62-.75-.75-3.41-1.35-4.67-2.68-7.5-4.5-6.26-4.03-7.99-4.25-12.38-10.88-1.22-1.84-4.77-4.78-7.12-4.12-.13.04-1.84,1.75-1.88,1.88-.13.47.14,1.05,0,1.5-.1.31-.7.47-.75.75-.24,1.35.28,3.22,0,4.5-.11.53-1.11,2.39-1.5,3.75-.04.14-1.35,2.05-1.5,2.25-.53.73-3.47,3.74-4.12,4.12-.16.1-.52-.11-.75,0-.33.15-.48.69-.75.75-.93.21-4.2.15-5.25,0-.91-.13-3.92-1.11-5.25-1.5-.3-.09-.46-.68-.75-.75-2.08-.49-3.68,1.02-4.88,2.62-2.52,3.38-4.25,8.12-6,12-2.03,4.51-4.18,6.52-7.88,9.38-1.15.89-1.78,2.56-3.38,2.25l.75,9.37c-1.59,1.43-2.2,3.6-4.12,4.88-.16.11-.55-.12-.75,0-.48.29-2.01,1.45-2.25,1.5-2.08.45-14.12.35-16.5,0-.48-.07-3.13-1.35-3.75-1.5-1.04-.26-2.28.51-3-.75h-.75c-.4.11-1.65,2.12-1.88,2.62-.18.42.18,1.08,0,1.5-.73,1.65-1.88,2.71-3.38,3.38-.65.29-1.63-.42-2.62,1.12-1.16,1.8-.05,2.17-2.62,3.38-1.76.82-2.72.99-4.5,1.5-.05.02-.27.2-.57.48.19,1.46.34,2.91.34,4.39,0,.18-.06.33-.13.47.12,2.72.14,5.89-.02,8.54-.4,6.74-.84,15.02-1.5,21.75-.18,1.81.12,3.79,0,5.62Z"/>
    <path class="cls-1" d="M282.97,378.78c.26-.21.49-.46.7-.72.14-.2.27-.4.4-.61-.08-.12-.17-.23-.26-.35-.89-6.79-5.77-13.98-12.38-16.12-3.2-.55-4.78-3.49-6.38-5.62-3.65-4.87-4.84-6.96-6-12.75-.35-1.74-1.15-4.26-1.5-6-.78-3.88-1.62-17.86-.75-21.75.38-1.72,2.99-5.44,3.75-7.5.8-2.19.75-5.23,2.25-7.5.73-1.11,2.61-2.29,3.47-3.36-.17-.07-.34-.13-.5-.22-.35-.19-.69-.43-.98-.71-.35-.34-.57-.72-.75-1.16-.1-.24-.02-.53.09-.75.04-.77.42-1.64.91-2.05v-.75c-2.71-3.35,1.81-6.01,2.25-9.38-1.2.41-1.58-.7-1.88-.75-3.63-.64-7.95,3.11-11.25.75l-3,.75-1.88-2.62-1.5-7.12h3.75v-3.75h-40.5l-.75,3.38-4.12,4.88c-.24.07-2-.6-2.25-.75-1.38-.84-2.28-3.55-3-3.75-1.13-.31-3.8-.05-4.12,1.12-.43,2.51,1.44,5.01.75,7.5-.04.13-1.58,1.7-1.88,1.88-.16.1-.52-.11-.75,0-.33.15-.48.69-.75.75-1.15.26-2.85-.18-4.12,0l-2.25-6.75h-5.25v-3h-2.25c.41,1.2-.7,1.58-.75,1.88-.85,4.82.48,12.01,0,17.25-.02.27-.71.47-.75.75-1.95,15.33-5.24,29.99-7.5,45-.47,3.1-.31,6.72-.75,9.75-.04.27-1.24,1.21-.75,3l21.75,27.75c0,.98.84,1.72,1.12,2.62.31.98-.33.72-.38,1.5h2.25c-.18-1.91,1.23-2.53,3-2.25l.75,2.62-1.5,1.88c.6.09,1.41-.15,1.88,0,.38.12,1.98,1.44,2.25,1.5,1.08.23,2.61-.2,3.75,0,.29.05.67,1.16,1.88.75-.4,1.23.63,1.48.75,1.88.63,2.08-2,2.86-2.25,3.75-.22.8-.13,4.21,0,5.25.03.27.7.46.75.75.24,1.34-.57,2.89.75,3.75v1.5l-2.25,1.88c1.33.11,2.83-.17,4.12,0,.28.04.47.72.75.75,2.47.31,3.5-.32,5.25-.75,11.41-2.84,22.94-6.92,34.5-9.75l19.5-14.25c.67-.97,2.55-.97,3.75-.75.28.05.46.68.75.75,1.07.24,2.28-.5,3,.75l6-5.25.85.68c.06-.04.12-.08.17-.12Z"/>
    <path class="cls-1" d="M360.32,342.58l.75-2.25c-1.94-1.57-2.65-2.65-2.25-5.25l1.88-3.38,2.62,3c.47-2.81-1.09-5.12-1.5-7.5h-27.75l-.75-6c-2.86.32-2.62-4.03-5.25-3.75v-1.5c-1.93-1.27-7.36-6.28-8.25-7.88-1.29-2.32-10.09-9.02-10.5-10.5-.28-1.02.3-4.57,0-4.88h-1.5v-1.12c-5.95-6.58-13.33-12.49-19.12-19.12-.02-.02-.04-.04-.06-.07-.37.18-.86.12-1.15-.18-.59-.59-1.21-1.17-1.81-1.74-1.2,4.25-1.77,8.75-2.59,12.86-.36,1.82-.41,3.66-.75,5.25-.25,1.17-3,5.64-3.75,6.75-1.38,2.03-3.8,5.93-6,6.38v1.5h-1.5c.06,2.05-2.49,3.26-3.75,4.88.43,3.47-3.93,8.61-4.5,11.25-.6,2.79.39,7.38,0,10.5-.56,4.5-.04,5.32.75,9.75.94,5.32.8,9.15,3.75,14.25.59,1.02,2.44,2.74,3,3.75.2.36-.14.98,0,1.12s.77-.2,1.12,0c.7.39,2.01,1.98,3,2.25.64.17,1.61-.18,2.25,0,.88.24,6.19,5.13,7.12,6.38.69.91,5.02,8.16,5.25,9,.17.63-.15,1.57,0,2.25.06.29.7.47.75.75.18,1,.15,1.87-.03,2.59.28.21.54.45.76.71.31.37.56.77.8,1.18l4.84,4.15c1.49.43,1.84-.62,2.25-.75,1.56-.51,3.11-1.02,4.5-1.5,9.83-3.41,18.86-6.84,28.5-9.75.46-.14,1.18-1.29,2.62-.75v-25.5l29.25.75.75-3.38-3.75-4.5Z"/>
    <path class="cls-1" d="M411.31,342.35c-.1-.31-.7-.48-.75-.75-2.72-15.51,2.65-38.32-.75-54,.36-15.53-.1-34.19-.75-50.25-.19-4.61.13-9.27,0-13.88l-97.19-.74c-.18.16-.42.27-.66.27h-3.42c-.04.55-.06,1.1.01,1.6.04.28.72.48.75.75.15,1.35.19,3.95,0,5.25-.04.28-.69.46-.75.75-.14.69.16,1.6,0,2.25-.07.29-.66.45-.75.75-.18.62.17,1.61,0,2.25-.43,1.59-4.33,7.64-5.62,8.62-5.44,4.12-6.83,7.28-10.12,13.12-.8,1.43-1.45,2.94-1.99,4.49.85.83,1.72,1.63,2.56,2.47.14.14.21.31.25.48,1.38,1.44,2.84,3.5,4.06,4.17,1.08.6,6.1,5.67,7.12,7.12,1.52,2.15,10.18,9.35,10.5,10.5.4,1.46-.22,3.95.75,5.62h1.5v1.12c2.51,3.87,21.07,19.28,21.75,21.75.22.79-.15,2.08,0,3l1.12,1.12h26.62c-.55,1.42,1.32,1.98,1.5,2.62.17.63-.16,1.58,0,2.25.07.3.7.47.75.75.41,2.24-.12,3.55-1.88,4.88l-2.62-.75c-.92,1.94,2.03,4.08,2.25,4.88.44,1.62.36,3.54,1.5,5.25.52.78,1.64,1.46,2.25,2.25l-.75,2.62h41.62c.62,0,1.41-1.73,1.12-2.62Z"/>
    <path class="cls-1" d="M301.3,231.1c.56-4.52-.52-8.54-1.43-12.47-.04-.19-.12-.36-.23-.52l-4.82-6.89c-.17-.25-.25-.54-.27-.84-.07-1.63-.71-3.02-.83-4.65-.75-.56-1.05-.77-1.8-1.33-.23.05-.44.02-.64-.06l-.1.13c-3.55.5-4.11,3.8-5.62,6.38-.78,1.32-2.72,3-2.25,3.75.22.34.88.45.9.41.02-.04-.56-.44-.91-.5-1.32-.21-3.05,3.76-4.01,6.23l-1.71,2.47c-.17.25-.27.55-.27.85v3.66c-.22.98-.43,1.97-.65,2.95-.41.84-.48,1.18-.46,1.32.02.1.02.14.02.14,0,0,0-.13-.02-.14-.08-.03-.48.87-.95,2l-1.55,4.92c-.09.28-.09.58-.01.86l1.29,4.52c.06.19.15.38.28.54,2.12,2.62,3.46,4.22,6.18,6.13.35.25.62.6.9.91.28-.1.59-.09.83.07.17.11.34.21.52.3.04.02.08.04.13.06,0,0,.03.01.05.02.02,0,.03.01.04.01.04.02.09.03.13.05.35.13.72.22,1.08.31.32.08.64.15.95.23,2.56-4.53,5.91-8.68,9.63-11.72,2.17-1.77,2.23-2.75,3.38-4.88.28-.51,1.39-1.12,1.5-1.5.22-.79-.17-2.09,0-3,.05-.29.72-.48.75-.75Z"/>
    <path class="cls-1" d="M215.32,75.63c.05.28.66.44.75.75.58,1.9-1.91,3.9-3.75,3.38l.75,2.62c-3.33,3.37-.26,7.1.75,10.5.32,1.09.38,3.2.75,4.5.12.42,1.39,1.09,1.5,1.5.72,2.62-2.22,3.38-1.5,6,.13.48,1.83,1.55,2.25,2.25,1.47,2.47.42,8.99,1.5,12.75.13.44,1.77,1.57,2.25,2.25.33.47,1.19,2.6,1.5,3,.54.69,4.54,4.78,4.88,4.88.74.21,1.63-.37,2.25.75l2.71-1.59c1.22-2.34,4.32-2.95,6.88-2.35.77-.64,1.52-1.27,1.66-1.31.47-.13,1.05.14,1.5,0,.31-.1.47-.7.75-.75,1.18-.21,3.97-.14,5.25,0,.27.03.47.71.75.75,4.74.6,6.14.45,10.5,2.25,4.49,1.85,8.66,4.44,12.75,6.75,5,2.82,6.05,1.92,9.96,2.08v-1.93c0-.2.07-.36.17-.51v-14.26c0-.16,1.16-.74.75-1.88l2.62-.75c.93,1.47,1.13,0,1.5,0h23.62l-.75-72.75c-1.32.13-2.86-.19-4.12,0-.61.09-2.47,1.92-3.75,0l-2.62,1.5v9c-4.35.14-8.77-.2-13.12,0-.26.01-.49.74-.75.75-3.61.18-7.27-.13-10.88,0,.11,1.08-.17,2.34,0,3.38.05.28.72.48.75.75.31,2.83-.54,5.63,0,7.5.13.45-.09,1.01,0,1.5l-1.12,1.12c-10.22-.64-21.41.86-31.5,0-.27-.02-.47-.72-.75-.75-1.55-.18-3.29.12-4.88,0,.51,3.92-2.62,6.32-5.25,2.62v-4.5l-4.12-1.88-1.5.75-.75-.75-2.62,1.5v-1.5c-3.31-.85-2.49,3.19-5.25,3v3.75h-2.25c.12,1.07-.19,2.37,0,3.38Z"/>
    <path class="cls-1" d="M232.07,139.85c.26-1.22,2.56-3.06,2.94-4.76-.31,0-.62.01-.93.05-.05,0-.11.02-.12.02-.08.02-.17.03-.25.05-.17.04-.33.08-.49.13-.08.03-.16.06-.24.08-.02,0-.03,0-.04.01,0,0-.01,0-.02.01-.15.07-.29.14-.43.22-.07.04-.13.09-.2.13-.02.01-.02,0-.03.02,0,0,0,0-.02.02-.12.1-.23.21-.33.32-.04.04-.16.23-.04.04-.04.07-.09.13-.13.2-.04.07-.07.14-.11.21,0,.01,0,0-.01.02,0,.01,0,.01-.01.04-.19.51-.67.85-1.23.7-.08-.02-.15-.07-.22-.11-3.8,1.72-6.68.6-9.33-2.64-.13-.15.12-.61,0-.75-1.5-1.79-5.51-5.74-6-7.5-.17-.62.15-1.57,0-2.25-.32-1.46-1.25-3-.75-5.25.29-1.29.74.05,0-2.25-.14-.44.13-1.03,0-1.5-.17-.6-2.48-2.18-3-3,.15-.92-.22-2.21,0-3,.11-.41,1.38-1.08,1.5-1.5.46-1.6-1.23-2.77-1.5-3.75-1.53-5.62-2.88-11.54-4.5-17.25-.09-.31-.7-.47-.75-.75-.27-1.49-.26-7.5,0-9,.05-.26.61-.43.75-.75.17-.4-.13-.99,0-1.12.14-.14.77.2,1.12,0,1.83-1.04,1.7-4.78,3.38-6.38-1.42-3.36-.54-8.52-1.5-12-.11-.39-2.75-3.39-3-4.5-.12-3.2,2.16-8.2,1.5-11.25-.06-.26-1.44-1.99-1.5-2.25-.75-3.45-.78-7.66-1.5-11.25-.57-2.83-1.45-7.25-.75-10.5.21-.96,2.48-2.21.38-3.38-8.74-.14-17.51.19-26.25,0-.26,0-.49-.74-.75-.75-12.24-.25-24.51.19-36.75,0l-.98-.39c-.3.49-.6.98-.91,1.46.44.17.95.36,1.14.43,4.81,1.75,3.87,2.71,7.5,5.25,5.51,3.85,9.01,5.43,13.12,10.88,2.04,2.69,6.19,2.9,8.25,6,1.88,2.84,4.1,4.89,5.25,8.25,2.66,3.34,6.42,3.92,9,7.5.44,4.34,1.99,8.84,3.75,12.75v1.5c-1.87,1.82.3,4.82.75,6.75.76,3.27.57,6.51,1.5,9.75,1.08,3.78,3.59,5.88,4.5,9,.18.6-.14,1.56,0,2.25.06.29.71.47.75.75.15,1.02.17,3.52,0,4.5-.05.28-.65.44-.75.75-.14.45.13,1.03,0,1.5-.21.75-3.54,3-3.75,3.75-.13.46.13,1.04,0,1.5-.31,1.07-2.95,1.44-2.25,4.5.06.28.64.44.75.75.75,2.07,2.06,3.96,3,6,.49,1.07,3.65,7.8,3.75,8.25.61,2.79-.12,5.52.75,9,.75,3.01,1.33,7.86,3,10.5,1.7,2.68,3.94,1.42,5.25,6,.31,1.08,3.93,3.54,4.88,4.12,2.58,1.58,6.49,4.37,9,2.25.29.08.57.11.75,0,.56-.33,6.09-5.86,6.38-6.38,1.24-2.22,2.68-1.55,3-1.88.14-.14-.2-.77,0-1.12.67-1.21,3.48-3.98,3.75-5.25.23-1.09-.23-2.66,0-3.75Z"/>
    <path class="cls-2" d="M186.33,139.87c-1.66-1.2-.65-3.2,1.12-3.45.04-.09.09-.17.16-.24.64-.64,1.31-1.28,2.05-1.79-1.09-3.3-2.02-6.62-1.83-7.27,1.15-4.02-1.56-8.02-3-12-1.09-3-2.83-6.14-4.5-9,.22-1.33-.32-3.35,0-4.5.24-.87,4.05-3.32,3-5.62h1.5c-.6-1.56,2.02-2.54,2.25-3.38.16-.59.15-3.83,0-4.5-.05-.25-1.86-3.8-2.25-4.5-.29-.52-1.2-.98-1.5-1.5-2.76-4.83-1.74-9.92-3-15-.87-3.51-.95-7.05-1.75-10.75h-5.57c-.21,0-.39-.08-.55-.19l-91.88-1.44c-.3,5.51.41,11.41,0,16.88-.02.27-.72.48-.75.75-.21,2.27-.29,5.26.75,7.12h-17.25l-.75,39.75c3.09.15,6.29-.21,9.38,0,.27.02.48.73.75.75,2.08.18,4.29-.13,6.38,0v16.5h16.12l1.12,1.12c-.47,3.88.65,9.09,0,12.75-.05.27-.65.44-.75.75v.75c-.29.64.9,1.88,1.12,1.88h31.88v-6c2.45-.44,3.38.52,4.88,2.25,2.55-.57,5.34-1.11,8.25-.75,3.37.42,6.31-.11,9.75.75,1.67.42,3.3.42,4.5.75.45.12,2.4,2.52,3.75,2.25,1.64-.94.84-2.16,1.12-3.38.13-.56,1.36-1.79.75-3.38h1.5l-.75-2.62c1.69-2.58,4.61-2.01,6.38-4.12l4.5,1.5c.47-.65,1.53-1.26,1.88-1.88.2-.35-.14-.98,0-1.12.13-.13.72.17,1.12,0,.32-.13.48-.69.75-.75,1.7-.39,2.59.66,4.12.75v3l-2.25,1.5c2.94,1.18,4.16-2.87,6.38-2.25.62.18,1.17,2.02,2.62,1.5.39-2.06-.5-1.16-1.5-1.88Z"/>
    <path class="cls-2" d="M310.45,167.98c-4.44-2.6-9.03-6.22-13.5-7.5-.88-.25-4.55-5.04-6-6-.78-.52-2.82-1-3.75-1.5-.51-.28-1.12-1.39-1.5-1.5-.79-.22-2.09.17-3,0-.29-.05-.48-.72-.75-.75-3.6-.44-6.25.64-9.75-.75-3.78-1.5-6.46-3.54-9.75-5.25-2.51-1.31-8.33-4.86-10.5-5.25-2.65-.47-6.04.58-8.25-1.5h-.75c-.49,1.03-3.24,1.36-3.38,1.5-.14.14.2.77,0,1.12-.29.52-1.4,1.12-1.5,1.5-.27.97.2,2.63,0,3.75-.4,2.26-3.77,6.16-5.25,8.25-1.73,2.43-3.45,2.61-4.5,4.5-.32.57-4.95,5.18-5.62,5.62-2.09,1.38-3.86,1.12-6,1.5-.38.07-1.13,1.19-3,.75-.28-.07-.44-.65-.75-.75-.45-.14-1.03.13-1.5,0-.38-.11-.98-1.21-1.5-1.5-3.85-2.17-7.59-3.11-10.12-7.12-.21-.34-.54-1.92-.75-2.25-1.04-1.63-2.02-1.24-3-3-.48-.86-1.49-1.71-2.25-3-.41-.69-1.2-2.7-2-5.01-.2.16-.39.34-.56.5-.25.24-.5.48-.74.73-.38.38-.95.36-1.35.04l-.59.74c1.73,1.5,2.69,2.43,2.25,4.88h-3c.38,1.86-.95,3.77-3,3.75v-2.25c-2.52.39-3.16-2.27-6-1.5-.05-.87-.12-1.44.38-2.25.73-1.2,2.43-.05,1.88-2.25-1.18.07-2.61-.44-3.38.75-.52.81-.32,1.45-.38,1.5-.21.21-3.35.93-4.12.75-4-.93-2.22.33-3.75.75-.64.18-1.63-.18-2.25,0-.39.11-.65,1.16-1.88.75l.75,3.75h-1.5l-.75,2.62.75,4.12-4.12.75c-2.06-1.59-5.13-1.6-7.5-2.25-.33-.09-1.97-1.44-2.25-1.5-2.95-.64-6.64,2.67-9-.75l-6.75,1.5-1.88-.75v-1.12l-1.5-.38c-.1.84.15,1.85,0,2.62-1.04,5.22-.54,10.17-.75,15.75-.55,14.59-1.21,31.16-1.5,45.75-.17,8.42.06,16.86.01,25.28.1.16.17.33.17.52v4.45c1.01.5,2.05,1.03,3.19,1.63.48.25,1.99,1.44,2.25,1.5.82.18,4.44.18,5.25,0,.27-.06.43-.62.75-.75.5-.2,1.94-.54,2.25-.75,1.92-1.27,3.82-3.55,6-4.5.42-.18,1.09.19,1.5,0,4.35-1.98,7.34-6.69,11.25-8.25,1.99-.79,4.96-.43,6.75-1.5,1.09-.65,2.24-2.55,3.38-3.38l.75-3.75c.58-1.19,1.59-2.06,2.25-3,.17-.24.02-1.17,1.12-1.88,1.66-1.06,6.34-2.14,7.12-3.38,2.12-3.32,2.04-2.29,4.88-4.12,1.72-1.11.79-2.17,1.12-3.38.36-1.31,4.04-2.91,4.88-4.12,2.25.32,5.44-.44,7.5,0,.26.06,1.99,1.44,2.25,1.5,4.18.9,11.2-.66,15.75,0l1.88-1.88c-.22-1.87.31-4.24,0-6-.04-.21-1.19-.78-.75-2.25l1.5-3c1.13-.87,2.25-1.75,3.38-2.62,4.42-3.44,6.02-4.53,7.88-10.12,1.4-4.23,4.1-7.04,6-11.25l4.12-4.12c2.14.21,4.69-.3,6.75,0,.38.06,3.37,1.44,3.75,1.5,1.61.24,3.57-.16,5.25,0,1.01-.49.91-1.5,1.12-1.88.58-1.05,1.89-2.77,2.25-3.75.85-2.32.36-4.56.75-6.75.04-.22,1.27-1.07.75-2.25l4.12-4.12,3.75-.75c.69,1.28,2.01.46,3,.75.3.09.45.65.75.75.45.14,1.03-.13,1.5,0,1.76.51,3.68,4.04,4.5,4.5,1.88,1.05,1.41,1.73,2.62,3.38,2,2.72,9.38,6.74,12.38,8.62.86.54,1.83,1.74,3,2.25h1.5c.83-.45,3.17-2.12,3.75-2.25,1.67-.36,3.57.37,5.25-.75l4.12,2.25v-3c-1.72.31-2.98-1.58-4.12-2.25Z"/>
  </g>
  <text class="cls-3" transform="translate(207.87 242.15)"><tspan x="0" y="0">St. Louis </tspan></text>
  <text class="cls-3" transform="translate(142.13 192.38)"><tspan x="0" y="0">St. Charles</tspan></text>
  <text class="cls-3" transform="translate(108.22 107.26)"><tspan x="0" y="0">Lincoln</tspan></text>
  <text class="cls-3" transform="translate(59.77 197.6)"><tspan x="0" y="0">Warren</tspan></text>
  <text class="cls-3" transform="translate(75.49 305.68)"><tspan x="0" y="0">Fanklin</tspan></text>
  <text class="cls-3" transform="translate(185.7 334.93)"><tspan x="0" y="0">Jefferson</tspan></text>
  <text class="cls-3" transform="translate(274.42 341.15)"><tspan x="0" y="0">Monroe</tspan></text>
  <text class="cls-3" transform="translate(327.23 267.4)"><tspan x="0" y="0">St. Clair</tspan></text>
  <text class="cls-3" transform="translate(348.69 176.17)"><tspan x="0" y="0">Madison</tspan></text>
  <text class="cls-3" transform="translate(242.9 106.54)"><tspan x="0" y="0">Jersey</tspan></text>
</svg>